GeoramaExtraExtended-ExtraLight.ufo
<glyph name="exclam" format="2">
  <advance width="340.86"/>
  <unicode hex="0021"/>
  <outline>
    <contour>
      <point x="150.35" y="263.55" type="line"/>
      <point x="191.14" y="263.55" type="line"/>
      <point x="192.94" y="740.0" type="line"/>
      <point x="148.55" y="740.0" type="line"/>
    </contour>
    <contour>
      <point x="140.29" y="24.740000000000002" type="curve" smooth="yes"/>
      <point x="140.29" y="3.43"/>
      <point x="146.16" y="-0.9899999999999999"/>
      <point x="170.43" y="-0.9899999999999999" type="curve" smooth="yes"/>
      <point x="195.60999999999999" y="-0.9899999999999999"/>
      <point x="200.57000000000002" y="3.43"/>
      <point x="200.57000000000002" y="24.740000000000002" type="curve" smooth="yes"/>
      <point x="200.57000000000002" y="46.13999999999999"/>
      <point x="195.60999999999999" y="50.559999999999995"/>
      <point x="170.43" y="50.559999999999995" type="curve" smooth="yes"/>
      <point x="145.25" y="50.559999999999995"/>
      <point x="140.29" y="46.13999999999999"/>
    </contour>
  </outline>
</glyph>
<glyph name="numbersign" format="2">
  <advance width="1035.44"/>
  <unicode hex="0023"/>
  <outline>
    <contour>
      <point x="172.34" y="469.87" type="line"/>
      <point x="356.44" y="469.87" type="line"/>
      <point x="286.49" y="215.47" type="line"/>
      <point x="112.67" y="215.47" type="line"/>
      <point x="112.67" y="184.51" type="line"/>
      <point x="277.61" y="184.51" type="line"/>
      <point x="227.68" y="0.0" type="line"/>
      <point x="273.78000000000003" y="0.0" type="line"/>
      <point x="323.71" y="184.51" type="line"/>
      <point x="627.8399999999999" y="184.51" type="line"/>
      <point x="577.9100000000001" y="0.0" type="line"/>
      <point x="624.01" y="0.0" type="line"/>
      <point x="673.94" y="184.51" type="line"/>
      <point x="863.19" y="184.51" type="line"/>
      <point x="863.19" y="215.47" type="line"/>
      <point x="682.8199999999999" y="215.47" type="line"/>
      <point x="752.77" y="469.87" type="line"/>
      <point x="922.8599999999999" y="469.87" type="line"/>
      <point x="922.8599999999999" y="500.65000000000003" type="line"/>
      <point x="760.65" y="500.65000000000003" type="line"/>
      <point x="815.9499999999999" y="700.0" type="line"/>
      <point x="769.85" y="700.0" type="line"/>
      <point x="714.55" y="500.65000000000003" type="line"/>
      <point x="410.42" y="500.65000000000003" type="line"/>
      <point x="465.72" y="700.0" type="line"/>
      <point x="419.62" y="700.0" type="line"/>
      <point x="364.32" y="500.65000000000003" type="line"/>
      <point x="172.34" y="500.65000000000003" type="line"/>
    </contour>
    <contour>
      <point x="402.54" y="469.87" type="line"/>
      <point x="706.67" y="469.87" type="line"/>
      <point x="636.72" y="215.47" type="line"/>
      <point x="332.59" y="215.47" type="line"/>
    </contour>
  </outline>
</glyph>
<glyph name="dollar" format="2">
  <advance width="1035.44"/>
  <unicode hex="0024"/>
  <outline>
    <contour>
      <point x="530.8" y="-10.0" type="curve" smooth="yes"/>
      <point x="806.66" y="-11.08"/>
      <point x="933.12" y="47.36"/>
      <point x="933.12" y="184.04" type="curve" smooth="yes"/>
      <point x="933.12" y="298.44"/>
      <point x="832.8400000000001" y="342.26000000000005"/>
      <point x="563.6200000000001" y="368.72" type="curve" smooth="yes"/>
      <point x="309.50000000000006" y="394.18"/>
      <point x="206.35999999999999" y="430.90000000000003"/>
      <point x="206.35999999999999" y="522.58" type="curve" smooth="yes"/>
      <point x="206.35999999999999" y="619.48"/>
      <point x="327.79999999999995" y="672.3600000000001"/>
      <point x="545.66" y="672.3600000000001" type="curve" smooth="yes"/>
      <point x="639.26" y="672.3600000000001"/>
      <point x="779.16" y="651.7199999999999"/>
      <point x="878.72" y="623.9" type="curve"/>
      <point x="888.32" y="661.9" type="line"/>
      <point x="789.42" y="690.36"/>
      <point x="648.3199999999999" y="710.0"/>
      <point x="539.98" y="710.0" type="curve" smooth="yes"/>
      <point x="293.84" y="708.18"/>
      <point x="159.8" y="644.54"/>
      <point x="159.8" y="519.52" type="curve" smooth="yes"/>
      <point x="159.8" y="403.29999999999995"/>
      <point x="265.66" y="356.28000000000003"/>
      <point x="530.6600000000001" y="330.36" type="curve" smooth="yes"/>
      <point x="786.84" y="304.53999999999996"/>
      <point x="886.84" y="270.92"/>
      <point x="886.84" y="181.34" type="curve" smooth="yes"/>
      <point x="886.84" y="72.88000000000001"/>
      <point x="780.6" y="26.92"/>
      <point x="537.26" y="26.92" type="curve" smooth="yes"/>
      <point x="419.91999999999996" y="26.92"/>
      <point x="235.72" y="56.56"/>
      <point x="112.46" y="94.92" type="curve"/>
      <point x="102.5" y="57.1" type="line"/>
      <point x="225.6" y="18.639999999999997"/>
      <point x="408.64" y="-9.64"/>
    </contour>
    <contour>
      <point x="522.44" y="-105.0" type="line"/>
      <point x="558.82" y="-105.0" type="line"/>
      <point x="558.82" y="-3.3800000000000003" type="line"/>
      <point x="522.44" y="-3.92" type="line"/>
    </contour>
    <contour>
      <point x="522.44" y="703.74" type="line"/>
      <point x="558.82" y="703.92" type="line"/>
      <point x="558.82" y="805.0" type="line"/>
      <point x="522.44" y="805.0" type="line"/>
    </contour>
  </outline>
</glyph>
<glyph name="ampersand" format="2">
  <advance width="1014.6999999999999"/>
  <unicode hex="0026"/>
  <outline>
    <contour>
      <point x="971.8800000000001" y="-8.280000000000001" type="line"/>
      <point x="1016.2600000000001" y="8.28" type="line"/>
      <point x="322.02" y="408.06" type="line" smooth="yes"/>
      <point x="254.46" y="446.6"/>
      <point x="217.35999999999999" y="491.82"/>
      <point x="217.35999999999999" y="543.58" type="curve" smooth="yes"/>
      <point x="217.35999999999999" y="624.46"/>
      <point x="301.86" y="675.6"/>
      <point x="478.18" y="675.6" type="curve" smooth="yes"/>
      <point x="635.32" y="675.6"/>
      <point x="723.26" y="629.2"/>
      <point x="723.26" y="542.5" type="curve" smooth="yes"/>
      <point x="723.26" y="474.35999999999996"/>
      <point x="681.8" y="434.15999999999997"/>
      <point x="583.38" y="418.34000000000003" type="curve"/>
      <point x="603.22" y="391.78" type="line"/>
      <point x="716.48" y="414.48"/>
      <point x="766.84" y="463.73999999999995"/>
      <point x="766.84" y="546.8399999999999" type="curve" smooth="yes"/>
      <point x="766.84" y="653.92"/>
      <point x="666.14" y="710.0"/>
      <point x="477.28" y="710.0" type="curve" smooth="yes"/>
      <point x="268.16" y="710.0"/>
      <point x="172.16000000000003" y="643.94"/>
      <point x="172.16000000000003" y="543.58" type="curve" smooth="yes"/>
      <point x="172.16000000000003" y="481.86"/>
      <point x="208.1" y="429.38"/>
      <point x="275.28" y="389.94" type="curve" smooth="yes"/>
    </contour>
    <contour>
      <point x="442.54" y="-10.0" type="curve" smooth="yes"/>
      <point x="587.98" y="-10.0"/>
      <point x="715.0" y="29.759999999999998"/>
      <point x="798.4399999999999" y="95.7" type="curve"/>
      <point x="769.2" y="116.94" type="line"/>
      <point x="695.14" y="60.16"/>
      <point x="581.14" y="24.759999999999998"/>
      <point x="445.78000000000003" y="24.759999999999998" type="curve" smooth="yes"/>
      <point x="234.92" y="24.759999999999998"/>
      <point x="110.60000000000001" y="88.88"/>
      <point x="110.60000000000001" y="203.57999999999998" type="curve" smooth="yes"/>
      <point x="110.60000000000001" y="289.1"/>
      <point x="177.73999999999998" y="348.42"/>
      <point x="305.84" y="379.26" type="curve"/>
      <point x="274.5" y="399.44" type="line"/>
      <point x="136.94000000000003" y="365.98"/>
      <point x="67.19999999999999" y="299.15999999999997"/>
      <point x="67.19999999999999" y="200.34" type="curve" smooth="yes"/>
      <point x="67.19999999999999" y="65.97999999999999"/>
      <point x="203.2" y="-10.0"/>
    </contour>
    <contour>
      <point x="822.66" y="109.36" type="line"/>
      <point x="885.46" y="166.18"/>
      <point x="919.52" y="236.18"/>
      <point x="919.52" y="319.18" type="curve" smooth="yes"/>
      <point x="919.52" y="341.0"/>
      <point x="915.7" y="358.74"/>
      <point x="908.4200000000001" y="379.84" type="curve"/>
      <point x="871.9599999999999" y="373.56" type="line"/>
      <point x="879.24" y="352.28"/>
      <point x="881.88" y="335.46"/>
      <point x="881.52" y="319.0" type="curve" smooth="yes"/>
      <point x="880.26" y="244.85999999999999"/>
      <point x="851.6" y="181.35999999999999"/>
      <point x="791.98" y="128.72" type="curve"/>
    </contour>
  </outline>
</glyph>
<glyph name="quotesingle" format="2">
  <advance width="198.98000000000002"/>
  <unicode hex="0027"/>
  <outline>
    <contour>
      <point x="83.67999999999999" y="427.0" type="line"/>
      <point x="115.30000000000001" y="427.0" type="line"/>
      <point x="120.75" y="700.0" type="line"/>
      <point x="78.23" y="700.0" type="line"/>
    </contour>
  </outline>
</glyph>
<glyph name="parenleft" format="2">
  <advance width="469.06"/>
  <unicode hex="0028"/>
  <outline>
    <contour>
      <point x="148.10999999999999" y="265.0" type="curve" smooth="yes"/>
      <point x="148.10999999999999" y="31.82"/>
      <point x="233.44" y="-181.53"/>
      <point x="434.70000000000005" y="-220.0" type="curve"/>
      <point x="434.70000000000005" y="-186.68" type="line"/>
      <point x="265.85999999999996" y="-150.96"/>
      <point x="188.09" y="45.14"/>
      <point x="188.09" y="265.0" type="curve" smooth="yes"/>
      <point x="188.09" y="484.85999999999996"/>
      <point x="265.85999999999996" y="680.96"/>
      <point x="434.70000000000005" y="716.6800000000001" type="curve"/>
      <point x="434.70000000000005" y="750.0" type="line"/>
      <point x="233.44" y="711.53"/>
      <point x="148.10999999999999" y="498.18"/>
    </contour>
  </outline>
</glyph>
<glyph name="parenright" format="2">
  <advance width="469.06"/>
  <unicode hex="0029"/>
  <outline>
    <contour>
      <point x="34.36" y="-186.68" type="curve"/>
      <point x="34.36" y="-220.0" type="line"/>
      <point x="235.62" y="-181.53"/>
      <point x="320.95" y="31.82"/>
      <point x="320.95" y="265.0" type="curve" smooth="yes"/>
      <point x="320.95" y="498.18"/>
      <point x="235.62" y="711.53"/>
      <point x="34.36" y="750.0" type="curve"/>
      <point x="34.36" y="716.6800000000001" type="line"/>
      <point x="203.2" y="680.96"/>
      <point x="280.97" y="484.85999999999996"/>
      <point x="280.97" y="265.0" type="curve" smooth="yes"/>
      <point x="280.97" y="45.14"/>
      <point x="203.2" y="-150.96"/>
    </contour>
  </outline>
</glyph>
<glyph name="asterisk" format="2">
  <advance width="469.06"/>
  <unicode hex="002A"/>
  <outline>
    <contour>
      <point x="108.31" y="308.39" type="line"/>
      <point x="235.44000000000003" y="476.83000000000004" type="line"/>
      <point x="358.92999999999995" y="307.47999999999996" type="line"/>
      <point x="379.31" y="321.61" type="line"/>
      <point x="259.07000000000005" y="495.58" type="line"/>
      <point x="455.97" y="558.86" type="line"/>
      <point x="448.18" y="582.23" type="line"/>
      <point x="251.20000000000002" y="524.01" type="line"/>
      <point x="249.85000000000002" y="730.0" type="line"/>
      <point x="221.03000000000003" y="730.0" type="line"/>
      <point x="219.68" y="524.01" type="line"/>
      <point x="20.88" y="582.23" type="line"/>
      <point x="13.09" y="558.86" type="line"/>
      <point x="211.81" y="495.58" type="line"/>
      <point x="87.02" y="323.43" type="line"/>
    </contour>
  </outline>
</glyph>
<glyph name="plus" format="2">
  <advance width="579.98"/>
  <unicode hex="002B"/>
  <outline>
    <contour>
      <point x="269.82" y="73.35" type="line"/>
      <point x="310.07" y="73.35" type="line"/>
      <point x="310.07" y="273.33000000000004" type="line"/>
      <point x="517.25" y="273.33000000000004" type="line"/>
      <point x="517.25" y="309.97999999999996" type="line"/>
      <point x="310.07" y="309.97999999999996" type="line"/>
      <point x="310.07" y="509.87" type="line"/>
      <point x="269.82" y="509.87" type="line"/>
      <point x="269.82" y="309.97999999999996" type="line"/>
      <point x="62.730000000000004" y="309.97999999999996" type="line"/>
      <point x="62.730000000000004" y="273.33000000000004" type="line"/>
      <point x="269.82" y="273.33000000000004" type="line"/>
    </contour>
  </outline>
</glyph>
<glyph name="comma" format="2">
  <advance width="236.21"/>
  <unicode hex="002C"/>
  <outline>
    <contour>
      <point x="101.95" y="35.47" type="line"/>
      <point x="111.22999999999999" y="15.29"/>
      <point x="116.78000000000002" y="-6.799999999999999"/>
      <point x="116.78000000000002" y="-29.710000000000004" type="curve" smooth="yes"/>
      <point x="116.78000000000002" y="-89.24"/>
      <point x="84.49000000000001" y="-155.14000000000001"/>
      <point x="24.67" y="-182.46" type="curve"/>
      <point x="52.83" y="-200.0" type="line"/>
      <point x="123.91" y="-171.23"/>
      <point x="160.36" y="-95.32000000000001"/>
      <point x="160.36" y="-28.52" type="curve" smooth="yes"/>
      <point x="160.36" y="-1.4300000000000002"/>
      <point x="154.54" y="23.66"/>
      <point x="143.80999999999997" y="43.75" type="curve"/>
    </contour>
  </outline>
</glyph>
<glyph name="hyphen" format="2">
  <advance width="449.06000000000006"/>
  <unicode hex="002D"/>
  <outline>
    <contour>
      <point x="61.830000000000005" y="253.11" type="line"/>
      <point x="387.23" y="253.11" type="line"/>
      <point x="387.23" y="290.03000000000003" type="line"/>
      <point x="61.830000000000005" y="290.03000000000003" type="line"/>
    </contour>
  </outline>
</glyph>
<glyph name="period" format="2">
  <advance width="237.65"/>
  <unicode hex="002E"/>
  <outline>
    <contour>
      <point x="89.14" y="24.74" type="curve" smooth="yes"/>
      <point x="89.14" y="3.43"/>
      <point x="95.01" y="-0.99"/>
      <point x="119.28" y="-0.99" type="curve" smooth="yes"/>
      <point x="144.45999999999998" y="-0.99"/>
      <point x="149.42000000000002" y="3.43"/>
      <point x="149.42000000000002" y="24.74" type="curve" smooth="yes"/>
      <point x="149.42000000000002" y="46.14"/>
      <point x="144.45999999999998" y="50.56"/>
      <point x="119.28" y="50.56" type="curve" smooth="yes"/>
      <point x="94.1" y="50.56"/>
      <point x="89.14" y="46.14"/>
    </contour>
  </outline>
</glyph>
<glyph name="slash" format="2">
  <advance width="460.27"/>
  <unicode hex="002F"/>
  <outline>
    <contour>
      <point x="10.0" y="-210.0" type="line"/>
      <point x="50.269999999999996" y="-210.0" type="line"/>
      <point x="450.27" y="740.0" type="line"/>
      <point x="409.99999999999994" y="740.0" type="line"/>
    </contour>
  </outline>
</glyph>
<glyph name="zero" format="2">
  <advance width="1035.44"/>
  <unicode hex="0030"/>
  <outline>
    <contour>
      <point x="51.92" y="350.0" type="curve" smooth="yes"/>
      <point x="51.92" y="69.0"/>
      <point x="272.82" y="-10.0"/>
      <point x="517.72" y="-10.0" type="curve" smooth="yes"/>
      <point x="762.8000000000001" y="-10.0"/>
      <point x="983.52" y="69.0"/>
      <point x="983.52" y="350.0" type="curve" smooth="yes"/>
      <point x="983.52" y="631.0"/>
      <point x="762.8" y="710.0"/>
      <point x="517.72" y="710.0" type="curve" smooth="yes"/>
      <point x="272.81999999999994" y="710.0"/>
      <point x="51.92" y="631.0"/>
    </contour>
    <contour>
      <point x="98.56" y="350.0" type="curve" smooth="yes"/>
      <point x="98.56" y="602.04"/>
      <point x="296.86" y="674.16"/>
      <point x="517.72" y="674.16" type="curve" smooth="yes"/>
      <point x="738.7600000000001" y="674.16"/>
      <point x="937.06" y="602.04"/>
      <point x="937.06" y="350.0" type="curve" smooth="yes"/>
      <point x="937.06" y="97.96000000000001"/>
      <point x="738.7600000000001" y="25.840000000000003"/>
      <point x="517.72" y="25.840000000000003" type="curve" smooth="yes"/>
      <point x="296.85999999999996" y="25.840000000000003"/>
      <point x="98.56" y="97.96"/>
    </contour>
  </outline>
</glyph>
<glyph name="one" format="2">
  <advance width="1035.44"/>
  <unicode hex="0031"/>
  <outline>
    <contour>
      <point x="98.29" y="0.0" type="line"/>
      <point x="996.2199999999999" y="0.0" type="line"/>
      <point x="996.2199999999999" y="37.1" type="line"/>
      <point x="614.2399999999999" y="37.1" type="line"/>
      <point x="614.2399999999999" y="709.1" type="line"/>
      <point x="589.64" y="709.1" type="line"/>
      <point x="90.85" y="503.22999999999996" type="line"/>
      <point x="104.52" y="468.4" type="line"/>
      <point x="568.3199999999999" y="660.52" type="line"/>
      <point x="568.3199999999999" y="37.1" type="line"/>
      <point x="98.29" y="37.1" type="line"/>
    </contour>
  </outline>
</glyph>
<glyph name="two" format="2">
  <advance width="1035.44"/>
  <unicode hex="0032"/>
  <outline>
    <contour>
      <point x="97.82" y="29.779999999999998" type="curve"/>
      <point x="101.82" y="0.0" type="line"/>
      <point x="955.54" y="0.0" type="line"/>
      <point x="955.54" y="37.1" type="line"/>
      <point x="194.54" y="37.1" type="line"/>
      <point x="708.66" y="259.92"/>
      <point x="810.52" y="348.58000000000004"/>
      <point x="810.52" y="488.9200000000001" type="curve" smooth="yes"/>
      <point x="810.52" y="630.0200000000001"/>
      <point x="703.92" y="710.0"/>
      <point x="486.08000000000004" y="710.0" type="curve" smooth="yes"/>
      <point x="368.36" y="710.0"/>
      <point x="240.04" y="683.9200000000001"/>
      <point x="149.14" y="642.84" type="curve"/>
      <point x="163.26" y="608.1" type="line"/>
      <point x="254.97999999999996" y="647.64"/>
      <point x="372.64" y="671.4599999999999"/>
      <point x="483.55999999999995" y="671.4599999999999" type="curve" smooth="yes"/>
      <point x="674.8000000000001" y="671.4599999999999"/>
      <point x="764.78" y="603.6"/>
      <point x="764.78" y="486.22" type="curve" smooth="yes"/>
      <point x="764.78" y="358.25999999999993"/>
      <point x="656.12" y="274.64"/>
    </contour>
  </outline>
</glyph>
<glyph name="three" format="2">
  <advance width="1035.44"/>
  <unicode hex="0033"/>
  <outline>
    <contour>
      <point x="47.99999999999999" y="83.04" type="line"/>
      <point x="176.02" y="19.92"/>
      <point x="296.0" y="-9.0"/>
      <point x="471.36" y="-9.0" type="curve" smooth="yes"/>
      <point x="771.86" y="-9.0"/>
      <point x="947.7" y="72.46"/>
      <point x="947.7" y="210.0" type="curve" smooth="yes"/>
      <point x="947.7" y="306.19999999999993"/>
      <point x="849.02" y="366.48"/>
      <point x="672.22" y="370.28" type="curve"/>
      <point x="801.26" y="382.0"/>
      <point x="875.5600000000001" y="439.1"/>
      <point x="875.5600000000001" y="528.1999999999999" type="curve" smooth="yes"/>
      <point x="875.5600000000001" y="643.8199999999999"/>
      <point x="756.74" y="710.0"/>
      <point x="492.18" y="710.0" type="curve" smooth="yes"/>
      <point x="362.59999999999997" y="710.0"/>
      <point x="230.54" y="691.8199999999999"/>
      <point x="122.4" y="666.3799999999999" type="curve"/>
      <point x="129.82" y="629.82" type="line"/>
      <point x="239.94" y="655.0799999999999"/>
      <point x="365.5" y="672.72"/>
      <point x="487.5" y="672.72" type="curve" smooth="yes"/>
      <point x="721.86" y="672.72"/>
      <point x="830.5400000000001" y="619.22"/>
      <point x="830.5400000000001" y="522.78" type="curve" smooth="yes"/>
      <point x="830.5400000000001" y="432.26"/>
      <point x="728.3000000000001" y="384.4"/>
      <point x="533.18" y="384.4" type="curve" smooth="yes"/>
      <point x="286.84000000000003" y="384.4" type="line"/>
      <point x="286.84000000000003" y="350.0" type="line"/>
      <point x="528.5800000000002" y="350.0" type="line" smooth="yes"/>
      <point x="776.5600000000001" y="350.0"/>
      <point x="901.6" y="311.7"/>
      <point x="901.6" y="211.44" type="curve" smooth="yes"/>
      <point x="901.6" y="96.62"/>
      <point x="743.0200000000001" y="28.099999999999998"/>
      <point x="470.28000000000003" y="28.099999999999998" type="curve" smooth="yes"/>
      <point x="304.06" y="28.099999999999998"/>
      <point x="185.1" y="55.84"/>
      <point x="60.6" y="116.7" type="curve"/>
    </contour>
  </outline>
</glyph>
<glyph name="four" format="2">
  <advance width="1035.44"/>
  <unicode hex="0034"/>
  <outline>
    <contour>
      <point x="45.76" y="200.84" type="line"/>
      <point x="729.56" y="200.84" type="line"/>
      <point x="729.56" y="0.0" type="line"/>
      <point x="774.4" y="0.0" type="line"/>
      <point x="774.4" y="200.84" type="line"/>
      <point x="998.92" y="200.84" type="line"/>
      <point x="998.92" y="235.24" type="line"/>
      <point x="774.4" y="235.24" type="line"/>
      <point x="774.4" y="700.0" type="line"/>
      <point x="744.9200000000001" y="709.1" type="line"/>
      <point x="42.12" y="232.60000000000002" type="line"/>
    </contour>
    <contour>
      <point x="106.14" y="235.24" type="line"/>
      <point x="729.56" y="655.98" type="line"/>
      <point x="729.56" y="235.24" type="line"/>
    </contour>
  </outline>
</glyph>
<glyph name="five" format="2">
  <advance width="1035.44"/>
  <unicode hex="0035"/>
  <outline>
    <contour>
      <point x="73.65" y="82.95" type="line"/>
      <point x="182.35999999999999" y="24.66"/>
      <point x="286.32" y="-9.09"/>
      <point x="491.2" y="-9.09" type="curve" smooth="yes"/>
      <point x="805.03" y="-9.09"/>
      <point x="944.88" y="73.47"/>
      <point x="944.88" y="223.44" type="curve" smooth="yes"/>
      <point x="944.88" y="363.31"/>
      <point x="855.9599999999999" y="415.97"/>
      <point x="649.52" y="415.97" type="curve" smooth="yes"/>
      <point x="173.8" y="415.97" type="line"/>
      <point x="222.75" y="662.9" type="line"/>
      <point x="880.61" y="662.9" type="line"/>
      <point x="880.61" y="700.0" type="line"/>
      <point x="189.74" y="700.0" type="line"/>
      <point x="129.75" y="391.84999999999997" type="line"/>
      <point x="139.84" y="381.21" type="line"/>
      <point x="627.32" y="381.21" type="line" smooth="yes"/>
      <point x="828.0" y="381.21"/>
      <point x="899.68" y="336.64000000000004"/>
      <point x="899.68" y="222.26999999999998" type="curve" smooth="yes"/>
      <point x="899.68" y="95.44"/>
      <point x="783.98" y="27.38"/>
      <point x="490.12" y="27.38" type="curve" smooth="yes"/>
      <point x="290.5" y="27.38"/>
      <point x="190.0" y="61.49"/>
      <point x="87.43" y="116.07" type="curve"/>
    </contour>
  </outline>
</glyph>
<glyph name="six" format="2">
  <advance width="1035.44"/>
  <unicode hex="0036"/>
  <outline>
    <contour>
      <point x="552.6399999999999" y="-10.0" type="curve" smooth="yes"/>
      <point x="824.8800000000001" y="-10.0"/>
      <point x="980.4200000000001" y="76.28"/>
      <point x="980.4200000000001" y="225.18" type="curve" smooth="yes"/>
      <point x="980.4200000000001" y="369.9"/>
      <point x="832.94" y="441.26"/>
      <point x="591.6800000000001" y="441.26" type="curve" smooth="yes"/>
      <point x="406.08000000000004" y="441.26"/>
      <point x="204.9" y="397.78"/>
      <point x="96.24" y="336.76" type="curve"/>
      <point x="97.42" y="299.46000000000004" type="line"/>
      <point x="198.06" y="359.14000000000004"/>
      <point x="396.09999999999997" y="404.52"/>
      <point x="582.14" y="404.52" type="curve" smooth="yes"/>
      <point x="800.42" y="404.52"/>
      <point x="934.3199999999999" y="347.46"/>
      <point x="934.3199999999999" y="225.0" type="curve" smooth="yes"/>
      <point x="934.3199999999999" y="99.62"/>
      <point x="797.6800000000001" y="26.919999999999998"/>
      <point x="555.6999999999999" y="26.919999999999998" type="curve" smooth="yes"/>
      <point x="245.82000000000002" y="26.919999999999998"/>
      <point x="102.83999999999999" y="134.98000000000002"/>
      <point x="102.83999999999999" y="347.1" type="curve" smooth="yes"/>
      <point x="102.83999999999999" y="558.9200000000001"/>
      <point x="267.1" y="671.9999999999999"/>
      <point x="565.0" y="671.9999999999999" type="curve" smooth="yes"/>
      <point x="692.08" y="671.9999999999999"/>
      <point x="806.7800000000001" y="654.9"/>
      <point x="929.8199999999999" y="630.9" type="curve"/>
      <point x="937.42" y="668.1800000000001" type="line"/>
      <point x="816.8" y="693.18"/>
      <point x="697.2399999999999" y="710.0"/>
      <point x="561.5799999999999" y="710.0" type="curve" smooth="yes"/>
      <point x="237.72000000000003" y="710.0"/>
      <point x="56.74" y="582.1"/>
      <point x="56.74" y="348.02" type="curve" smooth="yes"/>
      <point x="56.74" y="110.46000000000001"/>
      <point x="213.82" y="-10.0"/>
    </contour>
  </outline>
</glyph>
<glyph name="seven" format="2">
  <advance width="1035.44"/>
  <unicode hex="0037"/>
  <outline>
    <contour>
      <point x="377.2" y="0.0" type="curve"/>
      <point x="424.2" y="0.0" type="line"/>
      <point x="424.92" y="129.12"/>
      <point x="484.56" y="222.66000000000003"/>
      <point x="607.5600000000001" y="345.66" type="curve" smooth="yes"/>
      <point x="932.14" y="668.96" type="line"/>
      <point x="932.14" y="700.0" type="line"/>
      <point x="87.34" y="700.0" type="line"/>
      <point x="87.34" y="662.0000000000001" type="line"/>
      <point x="870.64" y="662.0000000000001" type="line"/>
      <point x="605.72" y="400.08" type="line" smooth="yes"/>
      <point x="425.02" y="221.55999999999997"/>
      <point x="377.2" y="143.12"/>
    </contour>
  </outline>
</glyph>
<glyph name="eight" format="2">
  <advance width="1035.44"/>
  <unicode hex="0038"/>
  <outline>
    <contour>
      <point x="707.8199999999999" y="365.86" type="curve"/>
      <point x="756.3600000000001" y="356.18" type="line"/>
      <point x="889.14" y="401.46"/>
      <point x="941.8" y="463.35999999999996"/>
      <point x="941.8" y="537.84" type="curve" smooth="yes"/>
      <point x="941.8" y="649.92"/>
      <point x="801.46" y="710.0"/>
      <point x="523.46" y="710.0" type="curve" smooth="yes"/>
      <point x="245.81999999999996" y="710.0"/>
      <point x="89.26" y="649.0200000000001"/>
      <point x="89.26" y="531.96" type="curve" smooth="yes"/>
      <point x="89.26" y="228.26000000000002"/>
      <point x="951.8000000000001" y="481.86"/>
      <point x="951.8000000000001" y="201.92" type="curve" smooth="yes"/>
      <point x="951.8000000000001" y="82.64"/>
      <point x="792.78" y="24.040000000000003"/>
      <point x="510.86" y="24.040000000000003" type="curve" smooth="yes"/>
      <point x="232.89999999999998" y="24.040000000000003"/>
      <point x="83.28" y="88.53999999999999"/>
      <point x="83.28" y="201.33999999999997" type="curve" smooth="yes"/>
      <point x="83.28" y="283.04"/>
      <point x="162.34" y="349.18"/>
      <point x="314.46000000000004" y="389.74" type="curve"/>
      <point x="261.8" y="404.02" type="line"/>
      <point x="109.48" y="359.56"/>
      <point x="36.82" y="289.2"/>
      <point x="36.82" y="197.07999999999998" type="curve" smooth="yes"/>
      <point x="36.82" y="64.17999999999999"/>
      <point x="199.36" y="-10.0"/>
      <point x="507.08000000000004" y="-10.0" type="curve" smooth="yes"/>
      <point x="822.4200000000001" y="-10.0"/>
      <point x="998.8000000000001" y="61.46"/>
      <point x="998.8000000000001" y="205.34" type="curve" smooth="yes"/>
      <point x="998.8000000000001" y="527.6800000000001"/>
      <point x="133.92000000000002" y="275.84000000000003"/>
      <point x="133.92000000000002" y="535.1400000000001" type="curve" smooth="yes"/>
      <point x="133.92000000000002" y="626.66"/>
      <point x="272.04" y="674.88"/>
      <point x="521.6600000000001" y="674.88" type="curve" smooth="yes"/>
      <point x="773.08" y="674.88"/>
      <point x="897.14" y="625.9399999999999"/>
      <point x="897.14" y="534.24" type="curve" smooth="yes"/>
      <point x="897.14" y="467.91999999999996"/>
      <point x="852.5600000000001" y="418.98"/>
    </contour>
  </outline>
</glyph>
<glyph name="nine" format="2">
  <advance width="1035.44"/>
  <unicode hex="0039"/>
  <outline>
    <contour>
      <point x="470.09999999999997" y="-10.0" type="curve" smooth="yes"/>
      <point x="793.9599999999999" y="-10.0"/>
      <point x="973.14" y="117.36"/>
      <point x="973.14" y="350.71999999999997" type="curve" smooth="yes"/>
      <point x="973.14" y="589.1800000000001"/>
      <point x="816.06" y="710.0"/>
      <point x="513.64" y="710.0" type="curve" smooth="yes"/>
      <point x="226.84" y="710.0"/>
      <point x="49.46" y="628.82"/>
      <point x="49.46" y="475.46" type="curve" smooth="yes"/>
      <point x="49.46" y="335.20000000000005"/>
      <point x="200.58" y="258.74000000000007"/>
      <point x="436.40000000000003" y="258.74000000000007" type="curve" smooth="yes"/>
      <point x="623.8" y="258.74000000000007"/>
      <point x="824.98" y="301.32000000000005"/>
      <point x="933.64" y="362.52" type="curve"/>
      <point x="932.46" y="399.28000000000003" type="line"/>
      <point x="831.82" y="339.6"/>
      <point x="633.78" y="294.40000000000003"/>
      <point x="447.74" y="294.40000000000003" type="curve" smooth="yes"/>
      <point x="242.20000000000002" y="294.40000000000003"/>
      <point x="95.56" y="358.18"/>
      <point x="95.56" y="476.0" type="curve" smooth="yes"/>
      <point x="95.56" y="606.02"/>
      <point x="254.04" y="673.26"/>
      <point x="510.58" y="673.26" type="curve" smooth="yes"/>
      <point x="784.06" y="673.26"/>
      <point x="927.4000000000001" y="565.2"/>
      <point x="927.4000000000001" y="352.9" type="curve" smooth="yes"/>
      <point x="927.4000000000001" y="141.07999999999998"/>
      <point x="764.58" y="27.279999999999998"/>
      <point x="466.68" y="27.279999999999998" type="curve" smooth="yes"/>
      <point x="343.2" y="27.279999999999998"/>
      <point x="226.7" y="45.099999999999994"/>
      <point x="100.06" y="68.91999999999999" type="curve"/>
      <point x="92.46000000000001" y="31.999999999999996" type="line"/>
      <point x="216.67999999999998" y="6.82"/>
      <point x="338.03999999999996" y="-10.0"/>
    </contour>
  </outline>
</glyph>
<glyph name="less" format="2">
  <advance width="579.98"/>
  <unicode hex="003C"/>
  <outline>
    <contour>
      <point x="517.25" y="64.67999999999999" type="line"/>
      <point x="517.25" y="103.87" type="line"/>
      <point x="104.89" y="291.61" type="line"/>
      <point x="517.25" y="481.08" type="line"/>
      <point x="517.25" y="519.54" type="line"/>
      <point x="62.73" y="309.8" type="line"/>
      <point x="62.73" y="273.15" type="line"/>
    </contour>
  </outline>
</glyph>
<glyph name="equal" format="2">
  <advance width="579.98"/>
  <unicode hex="003D"/>
  <outline>
    <contour>
      <point x="517.25" y="205.82" type="line"/>
      <point x="62.730000000000004" y="205.82" type="line"/>
      <point x="62.730000000000004" y="169.17000000000002" type="line"/>
      <point x="517.25" y="169.17000000000002" type="line"/>
    </contour>
    <contour>
      <point x="517.25" y="416.87" type="line"/>
      <point x="62.730000000000004" y="416.87" type="line"/>
      <point x="62.730000000000004" y="380.21999999999997" type="line"/>
      <point x="517.25" y="380.21999999999997" type="line"/>
    </contour>
  </outline>
</glyph>
<glyph name="greater" format="2">
  <advance width="579.98"/>
  <unicode hex="003E"/>
  <outline>
    <contour>
      <point x="517.25" y="273.15000000000003" type="line"/>
      <point x="517.25" y="309.79999999999995" type="line"/>
      <point x="62.73" y="519.54" type="line"/>
      <point x="62.73" y="480.17" type="line"/>
      <point x="475.09" y="291.61" type="line"/>
      <point x="62.73" y="103.87" type="line"/>
      <point x="62.73" y="64.67999999999999" type="line"/>
    </contour>
  </outline>
</glyph>
<glyph name="question" format="2">
  <advance width="681.2"/>
  <unicode hex="003F"/>
  <outline>
    <contour>
      <point x="291.88" y="260.82" type="line"/>
      <point x="332.67" y="260.82" type="line"/>
      <point x="332.85" y="324.84000000000003" type="line"/>
      <point x="536.1300000000001" y="366.84000000000003"/>
      <point x="635.26" y="426.56"/>
      <point x="635.26" y="542.39" type="curve" smooth="yes"/>
      <point x="635.26" y="704.29"/>
      <point x="478.37" y="750.0"/>
      <point x="345.96" y="750.0" type="curve" smooth="yes"/>
      <point x="234.05" y="750.0"/>
      <point x="106.72" y="724.83"/>
      <point x="12.9" y="669.1" type="curve"/>
      <point x="28.03" y="635.1700000000001" type="line"/>
      <point x="119.75999999999999" y="687.7299999999999"/>
      <point x="236.7" y="712.18"/>
      <point x="341.37" y="712.18" type="curve" smooth="yes"/>
      <point x="454.42" y="712.18"/>
      <point x="588.98" y="675.15"/>
      <point x="588.98" y="541.2199999999999" type="curve" smooth="yes"/>
      <point x="588.98" y="456.43"/>
      <point x="513.64" y="387.92"/>
      <point x="291.25" y="351.28000000000003" type="curve"/>
    </contour>
    <contour>
      <point x="288.37" y="24.740000000000002" type="curve" smooth="yes"/>
      <point x="288.37" y="3.43"/>
      <point x="294.24" y="-0.9899999999999999"/>
      <point x="318.51" y="-0.9899999999999999" type="curve" smooth="yes"/>
      <point x="343.69" y="-0.9899999999999999"/>
      <point x="348.65000000000003" y="3.43"/>
      <point x="348.65000000000003" y="24.740000000000002" type="curve" smooth="yes"/>
      <point x="348.65000000000003" y="46.13999999999999"/>
      <point x="343.69" y="50.559999999999995"/>
      <point x="318.51" y="50.559999999999995" type="curve" smooth="yes"/>
      <point x="293.33" y="50.559999999999995"/>
      <point x="288.37" y="46.13999999999999"/>
    </contour>
  </outline>
</glyph>
<glyph name="at" format="2">
  <advance width="1175.86"/>
  <unicode hex="0040"/>
  <outline>
    <contour>
      <point x="564.8000000000001" y="-123.18" type="curve" smooth="yes"/>
      <point x="685.66" y="-123.18"/>
      <point x="803.24" y="-93.88000000000001"/>
      <point x="894.5199999999999" y="-52.480000000000004" type="curve"/>
      <point x="885.0" y="-22.959999999999997" type="line"/>
      <point x="798.88" y="-63.36"/>
      <point x="687.02" y="-91.66"/>
      <point x="567.5" y="-91.66" type="curve" smooth="yes"/>
      <point x="306.14" y="-91.66"/>
      <point x="122.38000000000001" y="44.18"/>
      <point x="122.38000000000001" y="271.28" type="curve" smooth="yes"/>
      <point x="122.38000000000001" y="497.16"/>
      <point x="292.04" y="679.02"/>
      <point x="598.2" y="679.02" type="curve" smooth="yes"/>
      <point x="890.8" y="679.02"/>
      <point x="1057.48" y="549.52"/>
      <point x="1057.48" y="337.38" type="curve" smooth="yes"/>
      <point x="1057.48" y="211.56"/>
      <point x="991.9000000000001" y="107.56"/>
      <point x="913.0200000000001" y="107.56" type="curve" smooth="yes"/>
      <point x="841.5000000000001" y="107.56"/>
      <point x="813.4000000000001" y="157.24"/>
      <point x="819.22" y="259.68" type="curve" smooth="yes"/>
      <point x="832.9399999999999" y="487.2" type="line"/>
      <point x="755.3000000000001" y="505.28000000000003"/>
      <point x="683.36" y="515.7199999999999"/>
      <point x="623.02" y="515.7199999999999" type="curve" smooth="yes"/>
      <point x="419.48" y="515.7199999999999"/>
      <point x="313.52" y="390.14"/>
      <point x="313.52" y="266.74" type="curve" smooth="yes"/>
      <point x="313.52" y="149.2"/>
      <point x="395.16" y="80.22000000000001"/>
      <point x="503.12" y="80.22000000000001" type="curve" smooth="yes"/>
      <point x="613.14" y="80.22000000000001"/>
      <point x="730.48" y="147.24"/>
      <point x="782.5" y="302.58" type="curve"/>
      <point x="775.1800000000001" y="179.85999999999999"/>
      <point x="790.5799999999999" y="76.32"/>
      <point x="907.8800000000001" y="76.32" type="curve" smooth="yes"/>
      <point x="1015.34" y="76.32"/>
      <point x="1089.62" y="199.66"/>
      <point x="1089.62" y="337.38" type="curve" smooth="yes"/>
      <point x="1089.62" y="568.4599999999999"/>
      <point x="910.9000000000001" y="709.18"/>
      <point x="600.54" y="709.18" type="curve" smooth="yes"/>
      <point x="272.2" y="709.18"/>
      <point x="88.88" y="514.0"/>
      <point x="88.88" y="270.92" type="curve" smooth="yes"/>
      <point x="88.88" y="23.900000000000002"/>
      <point x="284.14" y="-123.18"/>
    </contour>
    <contour>
      <point x="511.76" y="114.69999999999999" type="curve" smooth="yes"/>
      <point x="425.70000000000005" y="114.69999999999999"/>
      <point x="357.1" y="170.92"/>
      <point x="357.1" y="270.15999999999997" type="curve" smooth="yes"/>
      <point x="357.1" y="374.66"/>
      <point x="448.06" y="481.32"/>
      <point x="619.3199999999999" y="481.32" type="curve" smooth="yes"/>
      <point x="664.52" y="481.32"/>
      <point x="735.5" y="471.58"/>
      <point x="790.4399999999999" y="460.40000000000003" type="curve"/>
      <point x="786.3599999999999" y="394.09999999999997" type="line" smooth="yes"/>
      <point x="756.36" y="210.08"/>
      <point x="626.68" y="114.69999999999999"/>
    </contour>
  </outline>
</glyph>
<glyph name="A" format="2">
  <advance width="967.3"/>
  <unicode hex="0041"/>
  <anchor x="957.84" y="0.0" name="ogonek"/>
  <anchor x="482.3" y="0.0" name="bottom"/>
  <anchor x="483.92" y="700.0" name="top"/>
  <outline>
    <contour>
      <point x="9.639999999999999" y="0.0" type="line"/>
      <point x="60.620000000000005" y="0.0" type="line"/>
      <point x="195.08" y="210.12" type="line"/>
      <point x="768.0600000000001" y="210.12" type="line"/>
      <point x="903.52" y="0.0" type="line"/>
      <point x="957.84" y="0.0" type="line"/>
      <point x="501.32" y="709.1" type="line"/>
      <point x="464.34" y="709.1" type="line"/>
    </contour>
    <contour>
      <point x="215.28000000000003" y="246.4" type="line"/>
      <point x="480.84000000000003" y="660.9200000000001" type="line"/>
      <point x="748.68" y="246.4" type="line"/>
    </contour>
  </outline>
</glyph>
<glyph name="B" format="2">
  <advance width="1043.1999999999998"/>
  <unicode hex="0042"/>
  <anchor x="541.46" y="700.0" name="top"/>
  <anchor x="541.46" y="0.0" name="bottom"/>
  <outline>
    <contour>
      <point x="136.06000000000003" y="5.0" type="line"/>
      <point x="345.9" y="-7.18"/>
      <point x="438.26" y="-10.0"/>
      <point x="579.76" y="-10.0" type="curve" smooth="yes"/>
      <point x="878.5600000000001" y="-10.0"/>
      <point x="988.56" y="46.28000000000001"/>
      <point x="988.56" y="195.44" type="curve" smooth="yes"/>
      <point x="988.56" y="294.62"/>
      <point x="902.74" y="359.8"/>
      <point x="764.56" y="373.8" type="curve"/>
      <point x="764.56" y="375.8" type="line"/>
      <point x="866.18" y="395.06"/>
      <point x="926.38" y="456.08"/>
      <point x="926.38" y="540.9" type="curve" smooth="yes"/>
      <point x="926.38" y="665.5400000000001"/>
      <point x="830.5799999999999" y="710.0"/>
      <point x="560.56" y="710.0" type="curve" smooth="yes"/>
      <point x="448.66" y="710.0"/>
      <point x="345.62" y="706.0"/>
      <point x="136.06000000000003" y="695.0" type="curve"/>
    </contour>
    <contour>
      <point x="183.06" y="386.3" type="line"/>
      <point x="183.06" y="660.44" type="line"/>
      <point x="394.84" y="671.72"/>
      <point x="408.3" y="672.72"/>
      <point x="539.92" y="672.72" type="curve" smooth="yes"/>
      <point x="791.68" y="672.72"/>
      <point x="879.9200000000001" y="636.4200000000001"/>
      <point x="879.9200000000001" y="533.52" type="curve" smooth="yes"/>
      <point x="879.9200000000001" y="443.79999999999995"/>
      <point x="791.6800000000001" y="386.3"/>
      <point x="652.5" y="386.3" type="curve" smooth="yes"/>
    </contour>
    <contour>
      <point x="183.06" y="40.38" type="curve"/>
      <point x="183.06" y="349.74" type="line"/>
      <point x="662.88" y="349.74" type="line" smooth="yes"/>
      <point x="841.14" y="349.74"/>
      <point x="939.76" y="297.24"/>
      <point x="939.76" y="195.06" type="curve" smooth="yes"/>
      <point x="939.76" y="70.68"/>
      <point x="841.24" y="26.46"/>
      <point x="568.78" y="26.46" type="curve" smooth="yes"/>
      <point x="467.98" y="26.46"/>
      <point x="396.88" y="29.28"/>
    </contour>
  </outline>
</glyph>
<glyph name="C" format="2">
  <advance width="1065.91"/>
  <unicode hex="0043"/>
  <anchor x="590.47" y="700.0" name="top"/>
  <anchor x="588.67" y="0.0" name="bottom"/>
  <outline>
    <contour>
      <point x="86.96" y="336.09999999999997" type="curve" smooth="yes"/>
      <point x="86.96" y="110.21000000000001"/>
      <point x="266.13" y="-10.0"/>
      <point x="591.11" y="-10.0" type="curve" smooth="yes"/>
      <point x="749.31" y="-10.0"/>
      <point x="889.8000000000001" y="9.54"/>
      <point x="1008.08" y="44.73" type="curve"/>
      <point x="997.5799999999999" y="81.02000000000001" type="line"/>
      <point x="879.21" y="46.46"/>
      <point x="738.8299999999999" y="27.910000000000004"/>
      <point x="595.3399999999999" y="27.910000000000004" type="curve" smooth="yes"/>
      <point x="296.5" y="27.910000000000004"/>
      <point x="134.77" y="137.25"/>
      <point x="134.77" y="337.09" type="curve" smooth="yes"/>
      <point x="134.77" y="550.93"/>
      <point x="305.97" y="671.6400000000001"/>
      <point x="614.99" y="671.6400000000001" type="curve" smooth="yes"/>
      <point x="746.49" y="671.6400000000001"/>
      <point x="842.39" y="660.64"/>
      <point x="954.75" y="631.8100000000001" type="curve"/>
      <point x="965.79" y="669.0" type="line"/>
      <point x="852.6199999999999" y="699.0"/>
      <point x="758.15" y="710.0"/>
      <point x="613.64" y="710.0" type="curve" smooth="yes"/>
      <point x="276.95" y="710.0"/>
      <point x="86.96" y="576.71"/>
    </contour>
  </outline>
</glyph>
<glyph name="D" format="2">
  <advance width="1150.9199999999998"/>
  <unicode hex="0044"/>
  <anchor x="569.82" y="700.0" name="top"/>
  <outline>
    <contour>
      <point x="536.96" y="-10.0" type="curve" smooth="yes"/>
      <point x="865.22" y="-10.0"/>
      <point x="1063.9599999999998" y="109.53999999999999"/>
      <point x="1063.9599999999998" y="342.18" type="curve" smooth="yes"/>
      <point x="1063.9599999999998" y="592.5400000000001"/>
      <point x="885.5000000000001" y="710.0"/>
      <point x="515.0600000000001" y="710.0" type="curve" smooth="yes"/>
      <point x="399.02" y="710.0"/>
      <point x="280.94" y="707.0"/>
      <point x="136.06000000000003" y="700.0" type="curve"/>
      <point x="136.06000000000003" y="0.0" type="line"/>
      <point x="284.06" y="-4.0"/>
      <point x="431.62" y="-10.0"/>
    </contour>
    <contour>
      <point x="529.66" y="26.2" type="curve" smooth="yes"/>
      <point x="455.03999999999996" y="26.2"/>
      <point x="272.44" y="31.02"/>
      <point x="183.06" y="35.66" type="curve"/>
      <point x="183.06" y="664.5200000000001" type="line"/>
      <point x="293.21999999999997" y="670.34"/>
      <point x="436.29999999999995" y="673.98"/>
      <point x="510.38" y="673.98" type="curve" smooth="yes"/>
      <point x="850.6" y="673.98"/>
      <point x="1015.6" y="567.3"/>
      <point x="1015.6" y="343.36" type="curve" smooth="yes"/>
      <point x="1015.6" y="135.7"/>
      <point x="835.0400000000001" y="26.2"/>
    </contour>
  </outline>
</glyph>
<glyph name="E" format="2">
  <advance width="961.38"/>
  <unicode hex="0045"/>
  <anchor x="909.2800000000001" y="0.0" name="ogonek"/>
  <anchor x="523.0799999999999" y="0.0" name="bottom"/>
  <anchor x="514.4200000000001" y="700.0" name="top"/>
  <outline>
    <contour>
      <point x="136.06000000000003" y="0.0" type="line"/>
      <point x="909.2800000000001" y="0.0" type="line"/>
      <point x="909.2800000000001" y="39.8" type="line"/>
      <point x="183.06" y="39.8" type="line"/>
      <point x="183.06" y="360.75999999999993" type="line"/>
      <point x="848.28" y="360.75999999999993" type="line"/>
      <point x="848.28" y="399.65999999999997" type="line"/>
      <point x="183.06" y="399.65999999999997" type="line"/>
      <point x="183.06" y="660.2" type="line"/>
      <point x="880.28" y="660.2" type="line"/>
      <point x="880.28" y="700.0" type="line"/>
      <point x="136.06000000000003" y="700.0" type="line"/>
    </contour>
  </outline>
</glyph>
<glyph name="F" format="2">
  <advance width="917.12"/>
  <unicode hex="0046"/>
  <outline>
    <contour>
      <point x="136.06000000000003" y="0.0" type="line"/>
      <point x="183.06" y="0.0" type="line"/>
      <point x="183.06" y="290.76000000000005" type="line"/>
      <point x="806.38" y="290.76000000000005" type="line"/>
      <point x="806.38" y="329.66" type="line"/>
      <point x="183.06" y="329.66" type="line"/>
      <point x="183.06" y="660.2" type="line"/>
      <point x="879.38" y="660.2" type="line"/>
      <point x="879.38" y="700.0" type="line"/>
      <point x="136.06000000000003" y="700.0" type="line"/>
    </contour>
  </outline>
</glyph>
<glyph name="G" format="2">
  <advance width="1123.3100000000002"/>
  <unicode hex="0047"/>
  <anchor x="572.09" y="700.0" name="top"/>
  <anchor x="578.11" y="0.0" name="bottom"/>
  <outline>
    <contour>
      <point x="86.96" y="336.1" type="curve" smooth="yes"/>
      <point x="86.96" y="116.28999999999999"/>
      <point x="262.33000000000004" y="-10.0"/>
      <point x="565.01" y="-10.0" type="curve" smooth="yes"/>
      <point x="741.0" y="-10.0"/>
      <point x="903.3700000000001" y="13.82"/>
      <point x="1013.7099999999999" y="58.0" type="curve"/>
      <point x="1013.7099999999999" y="321.15999999999997" type="line"/>
      <point x="596.37" y="321.15999999999997" type="line"/>
      <point x="596.37" y="285.86" type="line"/>
      <point x="970.31" y="285.86" type="line"/>
      <point x="970.31" y="83.52000000000001" type="line"/>
      <point x="859.9599999999999" y="44.94"/>
      <point x="728.15" y="26.47"/>
      <point x="570.7700000000001" y="26.47" type="curve" smooth="yes"/>
      <point x="296.03000000000003" y="26.47"/>
      <point x="134.77" y="139.91"/>
      <point x="134.77" y="337.09000000000003" type="curve" smooth="yes"/>
      <point x="134.77" y="540.5500000000001"/>
      <point x="303.23" y="671.64"/>
      <point x="584.96" y="671.64" type="curve" smooth="yes"/>
      <point x="715.1" y="671.64"/>
      <point x="836.48" y="655.36"/>
      <point x="956.8399999999999" y="619.98" type="curve"/>
      <point x="967.61" y="655.3499999999999" type="line"/>
      <point x="853.4499999999999" y="691.9"/>
      <point x="726.86" y="710.0"/>
      <point x="583.61" y="710.0" type="curve" smooth="yes"/>
      <point x="273.04999999999995" y="710.0"/>
      <point x="86.96" y="564.07"/>
    </contour>
  </outline>
</glyph>
<glyph name="H" format="2">
  <advance width="1186.03"/>
  <unicode hex="0048"/>
  <anchor x="593.4699999999999" y="700.0" name="top"/>
  <outline>
    <contour>
      <point x="135.97000000000003" y="0.0" type="line"/>
      <point x="182.97" y="0.0" type="line"/>
      <point x="182.97" y="282.89" type="line"/>
      <point x="1003.0600000000001" y="282.89" type="line"/>
      <point x="1003.0600000000001" y="0.0" type="line"/>
      <point x="1050.06" y="0.0" type="line"/>
      <point x="1050.06" y="700.0" type="line"/>
      <point x="1003.0600000000001" y="700.0" type="line"/>
      <point x="1003.0600000000001" y="322.69" type="line"/>
      <point x="182.97" y="322.69" type="line"/>
      <point x="182.97" y="700.0" type="line"/>
      <point x="135.97000000000003" y="700.0" type="line"/>
    </contour>
  </outline>
</glyph>
<glyph name="I" format="2">
  <advance width="318.94"/>
  <unicode hex="0049"/>
  <anchor x="182.97" y="0.0" name="ogonek"/>
  <anchor x="159.47" y="0.0" name="bottom"/>
  <anchor x="159.47" y="700.0" name="top"/>
  <outline>
    <contour>
      <point x="135.97000000000003" y="0.0" type="line"/>
      <point x="182.97" y="0.0" type="line"/>
      <point x="182.97" y="700.0" type="line"/>
      <point x="135.97000000000003" y="700.0" type="line"/>
    </contour>
  </outline>
</glyph>
<glyph name="J" format="2">
  <advance width="786.6899999999999"/>
  <unicode hex="004A"/>
  <anchor x="387.56" y="700.0" name="top"/>
  <outline>
    <contour>
      <point x="27.47" y="40.09" type="line"/>
      <point x="125.67999999999999" y="7.55"/>
      <point x="252.93" y="-10.91"/>
      <point x="349.72" y="-10.91" type="curve" smooth="yes"/>
      <point x="558.0" y="-10.91"/>
      <point x="678.6500000000001" y="77.17"/>
      <point x="678.6500000000001" y="286.89" type="curve" smooth="yes"/>
      <point x="678.6500000000001" y="700.0" type="line"/>
      <point x="104.47000000000001" y="700.0" type="line"/>
      <point x="104.47000000000001" y="660.83" type="line"/>
      <point x="631.65" y="660.83" type="line"/>
      <point x="631.65" y="289.86" type="line" smooth="yes"/>
      <point x="631.65" y="104.4"/>
      <point x="524.13" y="27.45"/>
      <point x="343.33" y="27.45" type="curve" smooth="yes"/>
      <point x="254.04" y="27.45"/>
      <point x="135.01999999999998" y="46.18"/>
      <point x="38.6" y="77.64000000000001" type="curve"/>
    </contour>
  </outline>
</glyph>
<glyph name="K" format="2">
  <advance width="1060.8"/>
  <unicode hex="004B"/>
  <anchor x="530.54" y="700.0" name="top"/>
  <anchor x="499.5" y="0.0" name="bottom"/>
  <outline>
    <contour>
      <point x="1018.1000000000001" y="-10.0" type="curve" smooth="yes"/>
      <point x="1022.6400000000001" y="-10.0"/>
      <point x="1030.18" y="-10.0"/>
      <point x="1036.72" y="-9.0" type="curve"/>
      <point x="1036.72" y="32.96" type="line"/>
      <point x="1031.0" y="31.959999999999997"/>
      <point x="1024.6399999999999" y="31.959999999999997"/>
      <point x="1019.9200000000001" y="31.959999999999997" type="curve" smooth="yes"/>
      <point x="932.82" y="34.42"/>
      <point x="866.3799999999999" y="68.80000000000001"/>
      <point x="704.14" y="161.84" type="curve" smooth="yes"/>
      <point x="182.88" y="460.96" type="line"/>
      <point x="182.88" y="700.0" type="line"/>
      <point x="136.06" y="700.0" type="line"/>
      <point x="136.06" y="0.0" type="line"/>
      <point x="182.88" y="0.0" type="line"/>
      <point x="182.88" y="414.2" type="line"/>
      <point x="690.98" y="120.97999999999999" type="line" smooth="yes"/>
      <point x="848.2199999999999" y="30.94"/>
      <point x="927.64" y="-10.0"/>
    </contour>
    <contour>
      <point x="379.5" y="325.1" type="line"/>
      <point x="569.66" y="388.66"/>
      <point x="856.0" y="507.78"/>
      <point x="995.96" y="681.22" type="curve"/>
      <point x="961.0600000000001" y="707.2600000000001" type="line"/>
      <point x="815.5000000000001" y="529.4"/>
      <point x="520.44" y="408.38"/>
      <point x="341.78000000000003" y="345.66" type="curve"/>
    </contour>
  </outline>
</glyph>
<glyph name="L" format="2">
  <advance width="877.73"/>
  <unicode hex="004C"/>
  <anchor x="439.32" y="350.0" name="center"/>
  <anchor x="159.47" y="700.0" name="top"/>
  <anchor x="559.64" y="700.0" name="topright"/>
  <anchor x="478.79" y="0.0" name="bottom"/>
  <outline>
    <contour>
      <point x="135.97000000000003" y="0.0" type="line"/>
      <point x="848.1899999999999" y="0.0" type="line"/>
      <point x="848.1899999999999" y="39.800000000000004" type="line"/>
      <point x="182.97" y="39.800000000000004" type="line"/>
      <point x="182.97" y="700.0" type="line"/>
      <point x="135.97000000000003" y="700.0" type="line"/>
    </contour>
  </outline>
</glyph>
<glyph name="M" format="2">
  <advance width="1344.8400000000001"/>
  <unicode hex="004D"/>
  <outline>
    <contour>
      <point x="135.97000000000003" y="0.0" type="line"/>
      <point x="180.72" y="0.0" type="line"/>
      <point x="180.72" y="646.3" type="line"/>
      <point x="662.21" y="274.82" type="line"/>
      <point x="681.82" y="274.82" type="line"/>
      <point x="1164.12" y="646.47" type="line"/>
      <point x="1164.12" y="0.0" type="line"/>
      <point x="1208.87" y="0.0" type="line"/>
      <point x="1208.87" y="700.0" type="line"/>
      <point x="1165.22" y="700.0" type="line"/>
      <point x="672.96" y="318.32" type="line"/>
      <point x="181.42" y="700.0" type="line"/>
      <point x="135.97000000000003" y="700.0" type="line"/>
    </contour>
  </outline>
</glyph>
<glyph name="N" format="2">
  <advance width="1177.8400000000001"/>
  <unicode hex="004E"/>
  <anchor x="589.42" y="700.0" name="top"/>
  <anchor x="589.42" y="0.0" name="bottom"/>
  <outline>
    <contour>
      <point x="135.97000000000003" y="0.0" type="line"/>
      <point x="180.27" y="0.0" type="line"/>
      <point x="180.27" y="650.7" type="line"/>
      <point x="1001.1" y="0.0" type="line"/>
      <point x="1041.87" y="0.0" type="line"/>
      <point x="1041.87" y="700.0" type="line"/>
      <point x="997.57" y="700.0" type="line"/>
      <point x="997.57" y="55.61" type="line"/>
      <point x="176.83" y="709.1" type="line"/>
      <point x="135.97000000000003" y="709.1" type="line"/>
    </contour>
  </outline>
</glyph>
<glyph name="O" format="2">
  <advance width="1246.92"/>
  <unicode hex="004F"/>
  <anchor x="686.25" y="-0.2699999999999998" name="ogonek"/>
  <anchor x="622.0500000000001" y="700.0" name="top"/>
  <anchor x="949.12" y="660.61" name="topright"/>
  <anchor x="622.23" y="0.0" name="bottom"/>
  <outline>
    <contour>
      <point x="622.14" y="26.2" type="curve" smooth="yes"/>
      <point x="404.06" y="26.2"/>
      <point x="134.5" y="91.12"/>
      <point x="134.5" y="350.18" type="curve" smooth="yes"/>
      <point x="134.5" y="619.89"/>
      <point x="403.60999999999996" y="673.98"/>
      <point x="622.14" y="673.98" type="curve" smooth="yes"/>
      <point x="842.12" y="673.98"/>
      <point x="1111.42" y="619.9"/>
      <point x="1111.42" y="350.18" type="curve" smooth="yes"/>
      <point x="1111.42" y="79.46000000000001"/>
      <point x="842.0300000000001" y="26.2"/>
    </contour>
    <contour>
      <point x="622.23" y="-10.0" type="curve" smooth="yes"/>
      <point x="878.48" y="-10.0"/>
      <point x="1159.87" y="54.03"/>
      <point x="1159.87" y="355.0" type="curve" smooth="yes"/>
      <point x="1159.87" y="645.34"/>
      <point x="869.72" y="710.0"/>
      <point x="622.14" y="710.0" type="curve" smooth="yes"/>
      <point x="370.74" y="710.0"/>
      <point x="87.05" y="641.6999999999999"/>
      <point x="87.05" y="350.45" type="curve" smooth="yes"/>
      <point x="87.05" y="69.49999999999999"/>
      <point x="372.90000000000003" y="-10.0"/>
    </contour>
  </outline>
</glyph>
<glyph name="P" format="2">
  <advance width="1046.3700000000001"/>
  <unicode hex="0050"/>
  <outline>
    <contour>
      <point x="135.97000000000003" y="0.0" type="line"/>
      <point x="182.97" y="0.0" type="line"/>
      <point x="182.97" y="242.52999999999997" type="line"/>
      <point x="344.88" y="238.53"/>
      <point x="416.28999999999996" y="237.62"/>
      <point x="546.0699999999999" y="237.62" type="curve" smooth="yes"/>
      <point x="865.77" y="237.62"/>
      <point x="982.06" y="290.86999999999995"/>
      <point x="982.06" y="478.95" type="curve" smooth="yes"/>
      <point x="982.06" y="642.36"/>
      <point x="896.71" y="710.0"/>
      <point x="515.3100000000001" y="710.0" type="curve" smooth="yes"/>
      <point x="451.4" y="710.0"/>
      <point x="360.76" y="707.9100000000001"/>
      <point x="135.97000000000003" y="700.0" type="curve"/>
    </contour>
    <contour>
      <point x="182.97" y="663.89" type="line"/>
      <point x="380.51" y="671.5300000000001"/>
      <point x="450.75000000000006" y="673.35"/>
      <point x="517.74" y="673.35" type="curve" smooth="yes"/>
      <point x="852.9300000000001" y="673.35"/>
      <point x="934.43" y="617.5"/>
      <point x="934.43" y="478.86" type="curve" smooth="yes"/>
      <point x="934.43" y="328.21000000000004"/>
      <point x="849.54" y="274.54"/>
      <point x="533.38" y="274.54" type="curve" smooth="yes"/>
      <point x="397.72999999999996" y="274.54"/>
      <point x="328.41" y="277.36"/>
      <point x="182.97" y="280.45" type="curve"/>
    </contour>
  </outline>
</glyph>
<glyph name="Q" format="2">
  <advance width="1246.92"/>
  <unicode hex="0051"/>
  <outline>
    <contour>
      <point x="733.32" y="2.1399999999999997" type="curve"/>
      <point x="687.6600000000001" y="-2.1" type="line"/>
      <point x="753.1" y="-119.16000000000001"/>
      <point x="833.34" y="-208.27"/>
      <point x="956.59" y="-208.27" type="curve" smooth="yes"/>
      <point x="999.95" y="-208.27"/>
      <point x="1051.04" y="-197.72"/>
      <point x="1107.77" y="-172.71" type="curve"/>
      <point x="1097.6100000000001" y="-137.61" type="line"/>
      <point x="1046.85" y="-159.9"/>
      <point x="1001.37" y="-170.18"/>
      <point x="962.3499999999999" y="-170.18" type="curve" smooth="yes"/>
      <point x="857.83" y="-170.18"/>
      <point x="790.71" y="-96.57000000000001"/>
    </contour>
    <component base="O"/>
  </outline>
</glyph>
<glyph name="R" format="2">
  <advance width="1128.7"/>
  <unicode hex="0052"/>
  <anchor x="522.1199999999999" y="700.0" name="top"/>
  <anchor x="547.6" y="0.0" name="bottom"/>
  <outline>
    <contour>
      <point x="1103.4" y="-10.0" type="curve" smooth="yes"/>
      <point x="1108.12" y="-10.0"/>
      <point x="1115.8400000000001" y="-10.0"/>
      <point x="1122.2" y="-9.0" type="curve"/>
      <point x="1122.2" y="32.06" type="line"/>
      <point x="1116.84" y="31.06"/>
      <point x="1110.48" y="31.06"/>
      <point x="1106.1200000000001" y="31.06" type="curve" smooth="yes"/>
      <point x="1015.46" y="31.06"/>
      <point x="837.4000000000001" y="163.46"/>
      <point x="668.0" y="305.5" type="curve"/>
      <point x="857.06" y="318.94"/>
      <point x="961.4200000000001" y="363.48"/>
      <point x="961.4200000000001" y="510.48" type="curve" smooth="yes"/>
      <point x="961.4200000000001" y="667.4799999999999"/>
      <point x="837.6" y="709.18"/>
      <point x="484.92" y="709.18" type="curve" smooth="yes"/>
      <point x="355.76" y="709.18"/>
      <point x="274.4" y="708.0"/>
      <point x="136.06" y="701.8199999999999" type="curve"/>
      <point x="136.06" y="0.0" type="line"/>
      <point x="183.06" y="0.0" type="line"/>
      <point x="183.06" y="301.91999999999996" type="line"/>
      <point x="302.36" y="299.09999999999997"/>
      <point x="412.26" y="297.28"/>
      <point x="516.0" y="297.28" type="curve" smooth="yes"/>
      <point x="546.12" y="297.28"/>
      <point x="579.3000000000001" y="297.09999999999997"/>
      <point x="609.4200000000001" y="297.91999999999996" type="curve"/>
      <point x="790.2600000000001" y="146.32"/>
      <point x="988.8199999999999" y="-10.0"/>
    </contour>
    <contour>
      <point x="523.74" y="334.92" type="curve" smooth="yes"/>
      <point x="417.48" y="334.92"/>
      <point x="308.12" y="336.92"/>
      <point x="183.06" y="339.92" type="curve"/>
      <point x="183.06" y="667.7" type="line"/>
      <point x="308.26" y="673.52"/>
      <point x="356.48" y="673.52"/>
      <point x="486.9" y="673.52" type="curve" smooth="yes"/>
      <point x="803.08" y="673.52"/>
      <point x="913.52" y="639.6"/>
      <point x="913.52" y="507.24" type="curve" smooth="yes"/>
      <point x="913.52" y="378.06"/>
      <point x="821.28" y="334.92"/>
    </contour>
  </outline>
</glyph>
<glyph name="S" format="2">
  <advance width="972.02"/>
  <unicode hex="0053"/>
  <anchor x="484.68" y="700.0" name="top"/>
  <anchor x="486.34000000000003" y="0.0" name="bottom"/>
  <outline>
    <contour>
      <point x="841.06" y="661.9" type="line"/>
      <point x="751.8" y="686.6600000000001"/>
      <point x="609.3599999999999" y="710.0"/>
      <point x="497.31999999999994" y="710.0" type="curve" smooth="yes"/>
      <point x="224.48000000000002" y="710.0"/>
      <point x="87.14" y="644.44"/>
      <point x="87.14" y="520.42" type="curve" smooth="yes"/>
      <point x="87.14" y="375.68"/>
      <point x="270.78000000000003" y="350.36"/>
      <point x="478.17999999999995" y="330.54" type="curve" smooth="yes"/>
      <point x="679.76" y="311.0"/>
      <point x="856.34" y="294.70000000000005"/>
      <point x="856.34" y="181.16" type="curve" smooth="yes"/>
      <point x="856.34" y="74.06"/>
      <point x="734.54" y="27.1"/>
      <point x="486.58000000000004" y="27.1" type="curve" smooth="yes"/>
      <point x="320.3" y="27.1"/>
      <point x="114.64" y="77.76"/>
      <point x="57.99999999999999" y="95.28" type="curve"/>
      <point x="47.68" y="57.10000000000001" type="line"/>
      <point x="103.96000000000001" y="40.120000000000005"/>
      <point x="310.90000000000003" y="-10.0"/>
      <point x="482.26" y="-10.0" type="curve" smooth="yes"/>
      <point x="763.3" y="-10.0"/>
      <point x="904.42" y="48.18"/>
      <point x="904.42" y="184.04" type="curve" smooth="yes"/>
      <point x="904.42" y="325.58"/>
      <point x="717.8000000000001" y="350.46"/>
      <point x="513.8399999999999" y="368.18" type="curve" smooth="yes"/>
      <point x="317.23999999999995" y="384.9"/>
      <point x="135.04000000000002" y="404.3"/>
      <point x="135.04000000000002" y="523.12" type="curve" smooth="yes"/>
      <point x="135.04000000000002" y="619.66"/>
      <point x="256.84" y="673.2600000000001"/>
      <point x="494.8" y="673.2600000000001" type="curve" smooth="yes"/>
      <point x="599.5999999999999" y="673.2600000000001"/>
      <point x="743.46" y="649.74"/>
      <point x="831.1" y="624.44" type="curve"/>
    </contour>
  </outline>
</glyph>
<glyph name="T" format="2">
  <advance width="858.32"/>
  <unicode hex="0054"/>
  <anchor x="429.16" y="700.0" name="top"/>
  <anchor x="429.16" y="0.0" name="bottom"/>
  <outline>
    <contour>
      <point x="849.71" y="661.11" type="line"/>
      <point x="849.71" y="700.0" type="line"/>
      <point x="8.61" y="700.0" type="line"/>
      <point x="8.61" y="661.11" type="line"/>
      <point x="405.66" y="661.11" type="line"/>
      <point x="405.66" y="0.0" type="line"/>
      <point x="452.66" y="0.0" type="line"/>
      <point x="452.66" y="661.11" type="line"/>
    </contour>
  </outline>
</glyph>
<glyph name="U" format="2">
  <advance width="1130.18"/>
  <unicode hex="0055"/>
  <anchor x="638.85" y="0.0" name="ogonek"/>
  <anchor x="565.09" y="700.0" name="top"/>
  <anchor x="1022.14" y="700.0" name="topright"/>
  <anchor x="565.09" y="0.0" name="bottom"/>
  <outline>
    <contour>
      <point x="108.03999999999999" y="292.0" type="line"/>
      <point x="108.03999999999999" y="46.67999999999999"/>
      <point x="343.4" y="-10.0"/>
      <point x="565.09" y="-10.0" type="curve" smooth="yes"/>
      <point x="786.7800000000001" y="-10.0"/>
      <point x="1022.14" y="46.67999999999999"/>
      <point x="1022.14" y="292.0" type="curve" smooth="yes"/>
      <point x="1022.14" y="700.0" type="line"/>
      <point x="975.86" y="700.0" type="line"/>
      <point x="975.86" y="294.88" type="line" smooth="yes"/>
      <point x="975.86" y="75.64"/>
      <point x="758.24" y="27.73"/>
      <point x="565.36" y="27.73" type="curve" smooth="yes"/>
      <point x="373.10999999999996" y="27.73"/>
      <point x="154.32" y="74.83000000000001"/>
      <point x="154.32" y="294.88" type="curve" smooth="yes"/>
      <point x="154.32" y="700.0" type="line"/>
      <point x="108.03999999999999" y="700.0" type="line"/>
    </contour>
  </outline>
</glyph>
<glyph name="V" format="2">
  <advance width="996.19"/>
  <unicode hex="0056"/>
  <outline>
    <contour>
      <point x="478.65" y="0.0" type="line"/>
      <point x="517.6300000000001" y="0.0" type="line"/>
      <point x="984.17" y="694.63" type="line"/>
      <point x="938.02" y="705.46" type="line"/>
      <point x="498.32" y="48.7" type="line"/>
      <point x="58.44" y="705.46" type="line"/>
      <point x="12.02" y="694.63" type="line"/>
    </contour>
  </outline>
</glyph>
<glyph name="W" format="2">
  <advance width="1377.02"/>
  <unicode hex="0057"/>
  <anchor x="688.51" y="700.0" name="top"/>
  <anchor x="688.51" y="0.0" name="bottom"/>
  <outline>
    <contour>
      <point x="1062.38" y="0.0" type="line"/>
      <point x="1364.46" y="696.4499999999999" type="line"/>
      <point x="1317.39" y="703.6400000000001" type="line"/>
      <point x="1042.32" y="59.37" type="line"/>
      <point x="712.55" y="662.0" type="line"/>
      <point x="666.1800000000001" y="662.0" type="line"/>
      <point x="334.88" y="59.01" type="line"/>
      <point x="59.089999999999996" y="703.6400000000001" type="line"/>
      <point x="12.559999999999999" y="696.4499999999999" type="line"/>
      <point x="313.56" y="0.0" type="line"/>
      <point x="352.29999999999995" y="0.0" type="line"/>
      <point x="687.61" y="607.49" type="line"/>
      <point x="1021.03" y="0.0" type="line"/>
    </contour>
  </outline>
</glyph>
<glyph name="X" format="2">
  <advance width="992.74"/>
  <unicode hex="0058"/>
  <outline>
    <contour>
      <point x="21.48" y="7.28" type="line"/>
      <point x="64.52" y="-7.28" type="line"/>
      <point x="495.92" y="334.22" type="line"/>
      <point x="925.34" y="-7.28" type="line"/>
      <point x="971.26" y="7.28" type="line"/>
      <point x="528.7399999999999" y="360.54" type="line"/>
      <point x="945.3399999999999" y="691.9" type="line"/>
      <point x="904.28" y="706.1" type="line"/>
      <point x="498.08" y="385.5" type="line"/>
      <point x="94.94" y="706.46" type="line"/>
      <point x="48.480000000000004" y="691.9" type="line"/>
      <point x="467.23999999999995" y="360.18" type="line"/>
    </contour>
  </outline>
</glyph>
<glyph name="Y" format="2">
  <advance width="972.4399999999999"/>
  <unicode hex="0059"/>
  <anchor x="486.22" y="700.0" name="top"/>
  <anchor x="492.59" y="0.0" name="bottom"/>
  <outline>
    <contour>
      <point x="469.09" y="0.0" type="line"/>
      <point x="516.0899999999999" y="0.0" type="line"/>
      <point x="516.0899999999999" y="305.17" type="line"/>
      <point x="960.42" y="692.72" type="line"/>
      <point x="917.46" y="707.28" type="line"/>
      <point x="492.77000000000004" y="336.04" type="line"/>
      <point x="55.339999999999996" y="707.28" type="line"/>
      <point x="12.02" y="692.72" type="line"/>
      <point x="469.09" y="305.17" type="line"/>
    </contour>
  </outline>
</glyph>
<glyph name="Z" format="2">
  <advance width="949.46"/>
  <unicode hex="005A"/>
  <anchor x="470.86" y="350.0" name="center"/>
  <anchor x="470.86" y="0.0" name="bottom"/>
  <anchor x="476.41" y="700.0" name="top"/>
  <outline>
    <contour>
      <point x="44.37" y="0.0" type="line"/>
      <point x="912.55" y="0.0" type="line"/>
      <point x="912.55" y="37.19" type="line"/>
      <point x="120.9" y="37.19" type="line"/>
      <point x="120.9" y="39.1" type="line"/>
      <point x="865.64" y="669.34" type="line"/>
      <point x="865.64" y="700.0" type="line"/>
      <point x="79.03" y="700.0" type="line"/>
      <point x="79.03" y="662.99" type="line"/>
      <point x="790.01" y="662.99" type="line"/>
      <point x="790.01" y="660.9000000000001" type="line"/>
      <point x="44.37" y="30.839999999999996" type="line"/>
    </contour>
  </outline>
</glyph>
<glyph name="bracketleft" format="2">
  <advance width="469.06"/>
  <unicode hex="005B"/>
  <outline>
    <contour>
      <point x="177.91" y="-177.57999999999998" type="line"/>
      <point x="177.91" y="707.58" type="line"/>
      <point x="423.78" y="707.58" type="line"/>
      <point x="423.78" y="740.0" type="line"/>
      <point x="139.01" y="740.0" type="line"/>
      <point x="139.01" y="-210.0" type="line"/>
      <point x="423.78" y="-210.0" type="line"/>
      <point x="423.78" y="-177.57999999999998" type="line"/>
    </contour>
  </outline>
</glyph>
<glyph name="backslash" format="2">
  <advance width="460.27"/>
  <unicode hex="005C"/>
  <outline>
    <contour>
      <point x="50.27" y="740.0" type="line"/>
      <point x="10.0" y="740.0" type="line"/>
      <point x="410.0" y="-210.0" type="line"/>
      <point x="450.27" y="-210.0" type="line"/>
    </contour>
  </outline>
</glyph>
<glyph name="bracketright" format="2">
  <advance width="469.06"/>
  <unicode hex="005D"/>
  <outline>
    <contour>
      <point x="45.28" y="-177.57999999999998" type="line"/>
      <point x="45.28" y="-210.0" type="line"/>
      <point x="330.05" y="-210.0" type="line"/>
      <point x="330.05" y="740.0" type="line"/>
      <point x="45.28" y="740.0" type="line"/>
      <point x="45.28" y="707.58" type="line"/>
      <point x="291.15" y="707.58" type="line"/>
      <point x="291.15" y="-177.57999999999998" type="line"/>
    </contour>
  </outline>
</glyph>
<glyph name="asciicircum" format="2">
  <advance width="579.98"/>
  <unicode hex="005E"/>
  <outline>
    <contour>
      <point x="57.47" y="269.34000000000003" type="line"/>
      <point x="99.55" y="269.34000000000003" type="line"/>
      <point x="289.99" y="660.89" type="line"/>
      <point x="480.52000000000004" y="269.34000000000003" type="line"/>
      <point x="522.51" y="269.34000000000003" type="line"/>
      <point x="309.89" y="709.1" type="line"/>
      <point x="270.09" y="709.1" type="line"/>
    </contour>
  </outline>
</glyph>
<glyph name="underscore" format="2">
  <advance width="1003.6"/>
  <unicode hex="005F"/>
  <outline>
    <contour>
      <point x="1.7999999999999998" y="-142.66" type="line"/>
      <point x="1001.8000000000001" y="-142.66" type="line"/>
      <point x="1001.8000000000001" y="-109.34" type="line"/>
      <point x="1.7999999999999998" y="-109.34" type="line"/>
    </contour>
  </outline>
</glyph>
<glyph name="a" format="2">
  <advance width="814.04"/>
  <unicode hex="0061"/>
  <anchor x="793.0799999999999" y="-0.10000000000000009" name="ogonek"/>
  <anchor x="407.15999999999997" y="0.0" name="bottom"/>
  <anchor x="408.98" y="531.8" name="top"/>
  <outline>
    <contour>
      <point x="75.32" y="124.96" type="curve" smooth="yes"/>
      <point x="75.32" y="28.46"/>
      <point x="151.82000000000002" y="-10.0"/>
      <point x="256.36" y="-10.0" type="curve" smooth="yes"/>
      <point x="418.24" y="-10.0"/>
      <point x="548.5799999999999" y="61.53999999999999"/>
      <point x="632.94" y="127.1" type="curve"/>
      <point x="636.0" y="25.5"/>
      <point x="673.7800000000001" y="-10.0"/>
      <point x="742.04" y="-10.0" type="curve" smooth="yes"/>
      <point x="760.18" y="-10.0"/>
      <point x="779.3199999999999" y="-5.92"/>
      <point x="798.48" y="2.42" type="curve"/>
      <point x="790.86" y="32.739999999999995" type="line"/>
      <point x="778.22" y="27.919999999999998"/>
      <point x="766.22" y="26.099999999999998"/>
      <point x="754.5799999999999" y="26.099999999999998" type="curve" smooth="yes"/>
      <point x="705.18" y="26.099999999999998"/>
      <point x="674.34" y="51.48"/>
      <point x="675.98" y="142.54000000000002" type="curve" smooth="yes"/>
      <point x="680.08" y="352.82" type="line" smooth="yes"/>
      <point x="682.5400000000001" y="488.54"/>
      <point x="564.62" y="541.8"/>
      <point x="396.56" y="541.8" type="curve" smooth="yes"/>
      <point x="312.85999999999996" y="541.8"/>
      <point x="219.06" y="527.62"/>
      <point x="128.06" y="504.97999999999996" type="curve"/>
      <point x="134.57999999999998" y="470.4" type="line"/>
      <point x="232.16000000000003" y="495.32000000000005"/>
      <point x="323.21999999999997" y="506.86"/>
      <point x="396.58" y="506.86" type="curve" smooth="yes"/>
      <point x="554.2" y="506.86"/>
      <point x="636.88" y="450.26"/>
      <point x="635.24" y="352.46" type="curve" smooth="yes"/>
      <point x="634.4200000000001" y="299.32" type="line"/>
      <point x="252.56" y="286.29999999999995"/>
      <point x="75.32" y="279.7"/>
    </contour>
    <contour>
      <point x="121.41999999999999" y="130.32000000000002" type="curve" smooth="yes"/>
      <point x="121.41999999999999" y="256.78000000000003"/>
      <point x="314.42" y="262.5"/>
      <point x="633.6" y="270.41999999999996" type="curve"/>
      <point x="631.14" y="162.28000000000003" type="line"/>
      <point x="521.42" y="68.64"/>
      <point x="384.2" y="22.419999999999998"/>
      <point x="266.97999999999996" y="22.419999999999998" type="curve" smooth="yes"/>
      <point x="178.73999999999998" y="22.419999999999998"/>
      <point x="121.41999999999999" y="56.08"/>
    </contour>
  </outline>
</glyph>
<glyph name="b" format="2">
  <advance width="867.1199999999999"/>
  <unicode hex="0062"/>
  <outline>
    <contour>
      <point x="117.7" y="21.18" type="line"/>
      <point x="230.01" y="0.08999999999999975"/>
      <point x="320.51" y="-10.0"/>
      <point x="402.48" y="-10.0" type="curve" smooth="yes"/>
      <point x="665.35" y="-10.0"/>
      <point x="797.17" y="88.83"/>
      <point x="797.17" y="284.46" type="curve" smooth="yes"/>
      <point x="797.17" y="444.17"/>
      <point x="687.07" y="541.8"/>
      <point x="505.88" y="541.8" type="curve" smooth="yes"/>
      <point x="393.5" y="541.8"/>
      <point x="295.12" y="506.24"/>
      <point x="162.89999999999998" y="416.20000000000005" type="curve"/>
      <point x="162.89999999999998" y="740.0" type="line"/>
      <point x="117.7" y="740.0" type="line"/>
    </contour>
    <contour>
      <point x="162.89999999999998" y="50.41" type="curve"/>
      <point x="162.89999999999998" y="381.06" type="line"/>
      <point x="292.52" y="469.13"/>
      <point x="387.02000000000004" y="504.52"/>
      <point x="494.27" y="504.52" type="curve" smooth="yes"/>
      <point x="653.0" y="504.52"/>
      <point x="751.61" y="420.09999999999997"/>
      <point x="751.61" y="283.20000000000005" type="curve" smooth="yes"/>
      <point x="751.61" y="110.27"/>
      <point x="634.81" y="23.58"/>
      <point x="402.75" y="23.58" type="curve" smooth="yes"/>
      <point x="337.35999999999996" y="23.58"/>
      <point x="256.22999999999996" y="32.22"/>
    </contour>
  </outline>
</glyph>
<glyph name="c" format="2">
  <advance width="824.7099999999999"/>
  <unicode hex="0063"/>
  <anchor x="468.83" y="531.8" name="top"/>
  <anchor x="468.56" y="0.0" name="bottom"/>
  <outline>
    <contour>
      <point x="70.03999999999999" y="251.35999999999999" type="curve" smooth="yes"/>
      <point x="70.03999999999999" y="83.10000000000001"/>
      <point x="210.59" y="-10.0"/>
      <point x="466.65" y="-10.0" type="curve" smooth="yes"/>
      <point x="568.27" y="-10.0"/>
      <point x="687.08" y="7.369999999999999"/>
      <point x="777.78" y="31.369999999999997" type="curve"/>
      <point x="771.35" y="64.24" type="line"/>
      <point x="678.73" y="40.96"/>
      <point x="566.6" y="24.13"/>
      <point x="475.33" y="24.13" type="curve" smooth="yes"/>
      <point x="246.21" y="24.13"/>
      <point x="115.24000000000001" y="102.21000000000001"/>
      <point x="115.24000000000001" y="252.35" type="curve" smooth="yes"/>
      <point x="115.24000000000001" y="419.23"/>
      <point x="255.32999999999998" y="507.31"/>
      <point x="471.62" y="507.31" type="curve" smooth="yes"/>
      <point x="554.99" y="507.31"/>
      <point x="671.74" y="492.03"/>
      <point x="756.99" y="471.47999999999996" type="curve"/>
      <point x="763.24" y="505.42999999999995" type="line"/>
      <point x="679.52" y="526.34"/>
      <point x="560.0600000000001" y="541.8"/>
      <point x="471.16999999999996" y="541.8" type="curve" smooth="yes"/>
      <point x="227.49" y="541.8"/>
      <point x="70.03999999999999" y="437.44"/>
    </contour>
  </outline>
</glyph>
<glyph name="d" format="2">
  <advance width="867.3"/>
  <unicode hex="0064"/>
  <anchor x="434.59999999999997" y="275.0" name="center"/>
  <anchor x="430.52000000000004" y="740.0" name="top"/>
  <anchor x="869.6800000000001" y="740.0" name="topright"/>
  <anchor x="434.59999999999997" y="0.0" name="bottom"/>
  <outline>
    <contour>
      <point x="714.82" y="-0.36" type="line"/>
      <point x="749.6" y="-0.36" type="line"/>
      <point x="749.6" y="740.0" type="line"/>
      <point x="704.4000000000001" y="740.0" type="line"/>
      <point x="704.4000000000001" y="517.96" type="line"/>
      <point x="624.54" y="533.52"/>
      <point x="538.22" y="541.8"/>
      <point x="464.64000000000004" y="541.8" type="curve" smooth="yes"/>
      <point x="201.85999999999999" y="541.8"/>
      <point x="70.03999999999999" y="443.05999999999995"/>
      <point x="70.03999999999999" y="247.34" type="curve" smooth="yes"/>
      <point x="70.03999999999999" y="87.72000000000001"/>
      <point x="180.14000000000001" y="-10.0"/>
      <point x="361.23999999999995" y="-10.0" type="curve" smooth="yes"/>
      <point x="473.61999999999995" y="-10.0"/>
      <point x="572.0" y="25.56"/>
      <point x="704.2199999999999" y="114.78" type="curve"/>
    </contour>
    <contour>
      <point x="704.22" y="150.73999999999998" type="line"/>
      <point x="574.6" y="62.760000000000005"/>
      <point x="480.09999999999997" y="27.28"/>
      <point x="372.94" y="27.28" type="curve" smooth="yes"/>
      <point x="214.12" y="27.28"/>
      <point x="115.6" y="110.88"/>
      <point x="115.6" y="248.60000000000002" type="curve" smooth="yes"/>
      <point x="115.6" y="421.62"/>
      <point x="232.4" y="508.21999999999997"/>
      <point x="464.46000000000004" y="508.21999999999997" type="curve" smooth="yes"/>
      <point x="529.94" y="508.21999999999997"/>
      <point x="610.98" y="499.58"/>
      <point x="704.22" y="481.48" type="curve"/>
    </contour>
  </outline>
</glyph>
<glyph name="e" format="2">
  <advance width="856.72"/>
  <unicode hex="0065"/>
  <anchor x="739.44" y="22.099999999999998" name="ogonek"/>
  <anchor x="452.02000000000004" y="0.0" name="bottom"/>
  <anchor x="453.1" y="531.8" name="top"/>
  <outline>
    <contour>
      <point x="426.14000000000004" y="-10.0" type="curve" smooth="yes"/>
      <point x="576.6999999999999" y="-10.0"/>
      <point x="713.2800000000001" y="14.559999999999999"/>
      <point x="787.5999999999999" y="31.460000000000004" type="curve"/>
      <point x="781.44" y="65.67999999999999" type="line"/>
      <point x="709.2199999999999" y="50.14"/>
      <point x="568.36" y="24.94"/>
      <point x="429.02000000000004" y="24.94" type="curve" smooth="yes"/>
      <point x="247.32" y="24.94"/>
      <point x="115.6" y="99.56"/>
      <point x="115.6" y="242.7" type="curve" smooth="yes"/>
      <point x="115.6" y="254.61999999999998"/>
      <point x="116.42" y="265.36"/>
      <point x="117.42" y="276.46" type="curve"/>
      <point x="452.44" y="276.82"/>
      <point x="725.02" y="294.92"/>
      <point x="793.7" y="298.09999999999997" type="curve"/>
      <point x="794.7" y="306.79999999999995"/>
      <point x="794.7" y="315.5"/>
      <point x="794.7" y="321.58000000000004" type="curve" smooth="yes"/>
      <point x="794.7" y="471.54"/>
      <point x="685.6200000000001" y="541.8"/>
      <point x="472.84" y="541.8" type="curve" smooth="yes"/>
      <point x="260.94" y="541.8"/>
      <point x="70.03999999999999" y="454.44"/>
      <point x="70.03999999999999" y="249.54" type="curve" smooth="yes"/>
      <point x="70.03999999999999" y="77.82"/>
      <point x="217.04000000000002" y="-10.0"/>
    </contour>
    <contour>
      <point x="120.24" y="309.06" type="curve"/>
      <point x="150.8" y="460.36"/>
      <point x="331.4" y="508.3"/>
      <point x="471.58000000000004" y="508.3" type="curve" smooth="yes"/>
      <point x="662.26" y="508.3"/>
      <point x="747.9599999999999" y="444.8"/>
      <point x="748.68" y="327.8" type="curve"/>
      <point x="699.78" y="324.8"/>
      <point x="439.32000000000005" y="309.24"/>
    </contour>
  </outline>
</glyph>
<glyph name="f" format="2">
  <advance width="552.35"/>
  <unicode hex="0066"/>
  <outline>
    <contour>
      <point x="178.97" y="0.0" type="line"/>
      <point x="223.80999999999997" y="0.0" type="line"/>
      <point x="223.80999999999997" y="449.69" type="line"/>
      <point x="544.9300000000001" y="449.69" type="line"/>
      <point x="544.9300000000001" y="484.0" type="line"/>
      <point x="223.81" y="484.0" type="line"/>
      <point x="223.81" y="498.54999999999995" type="line" smooth="yes"/>
      <point x="223.81" y="656.03"/>
      <point x="298.21000000000004" y="714.98"/>
      <point x="436.56000000000006" y="714.98" type="curve" smooth="yes"/>
      <point x="502.31" y="714.98"/>
      <point x="562.67" y="703.34"/>
      <point x="636.8" y="682.51" type="curve"/>
      <point x="644.23" y="717.0" type="line"/>
      <point x="559.85" y="741.64"/>
      <point x="499.33" y="750.91"/>
      <point x="427.43" y="750.91" type="curve" smooth="yes"/>
      <point x="274.4" y="750.91"/>
      <point x="178.97" y="683.48"/>
      <point x="178.97" y="499.09000000000003" type="curve" smooth="yes"/>
      <point x="178.97" y="484.0" type="line"/>
      <point x="42.21" y="477.65" type="line"/>
      <point x="42.21" y="449.69" type="line"/>
      <point x="178.97" y="449.69" type="line"/>
    </contour>
  </outline>
</glyph>
<glyph name="g" format="2">
  <advance width="886.54"/>
  <unicode hex="0067"/>
  <anchor x="446.3" y="531.8" name="top"/>
  <anchor x="427.3" y="-220.0" name="bottom"/>
  <outline>
    <contour>
      <point x="422.61999999999995" y="-220.0" type="curve" smooth="yes"/>
      <point x="710.68" y="-220.0"/>
      <point x="858.72" y="-152.10000000000002"/>
      <point x="858.72" y="-36.49999999999999" type="curve" smooth="yes"/>
      <point x="858.72" y="48.49999999999999"/>
      <point x="795.44" y="85.10000000000001"/>
      <point x="662.6" y="85.10000000000001" type="curve" smooth="yes"/>
      <point x="303.97999999999996" y="85.10000000000001" type="line" smooth="yes"/>
      <point x="192.44" y="85.10000000000001"/>
      <point x="132.29999999999998" y="113.75999999999999"/>
      <point x="132.29999999999998" y="171.44" type="curve" smooth="yes"/>
      <point x="132.29999999999998" y="211.92000000000002"/>
      <point x="166.32000000000002" y="241.4"/>
      <point x="222.9" y="263.14000000000004" type="curve"/>
      <point x="192.38" y="274.2" type="line"/>
      <point x="122.94000000000001" y="247.01999999999998"/>
      <point x="91.60000000000001" y="211.94"/>
      <point x="91.60000000000001" y="161.14" type="curve" smooth="yes"/>
      <point x="91.60000000000001" y="84.74000000000001"/>
      <point x="169.35999999999999" y="48.18"/>
      <point x="304.21999999999997" y="48.18" type="curve" smooth="yes"/>
      <point x="651.26" y="48.18" type="line" smooth="yes"/>
      <point x="758.0000000000001" y="48.18"/>
      <point x="814.4200000000001" y="22.14"/>
      <point x="814.4200000000001" y="-38.46000000000001" type="curve" smooth="yes"/>
      <point x="814.4200000000001" y="-132.64"/>
      <point x="685.38" y="-186.86"/>
      <point x="426.40000000000003" y="-186.86" type="curve" smooth="yes"/>
      <point x="194.38" y="-186.86"/>
      <point x="73.54" y="-148.38"/>
      <point x="73.54" y="-54.199999999999996" type="curve" smooth="yes"/>
      <point x="73.54" y="-4.98"/>
      <point x="107.86" y="44.519999999999996"/>
      <point x="230.22" y="63.260000000000005" type="curve"/>
      <point x="189.95999999999998" y="73.03999999999999" type="line"/>
      <point x="65.98" y="53.6"/>
      <point x="32.660000000000004" y="-4.959999999999999"/>
      <point x="32.660000000000004" y="-60.06000000000001" type="curve" smooth="yes"/>
      <point x="32.660000000000004" y="-174.46"/>
      <point x="163.14000000000001" y="-220.0"/>
    </contour>
    <contour>
      <point x="441.66" y="218.3" type="curve" smooth="yes"/>
      <point x="666.18" y="218.3"/>
      <point x="769.62" y="270.74"/>
      <point x="769.62" y="380.64000000000004" type="curve" smooth="yes"/>
      <point x="769.62" y="490.35999999999996"/>
      <point x="666.18" y="541.9799999999999"/>
      <point x="441.66" y="541.9799999999999" type="curve" smooth="yes"/>
      <point x="217.14000000000001" y="541.9799999999999"/>
      <point x="113.88000000000001" y="490.35999999999996"/>
      <point x="113.88000000000001" y="380.64000000000004" type="curve" smooth="yes"/>
      <point x="113.88000000000001" y="270.74"/>
      <point x="217.14000000000001" y="218.3"/>
    </contour>
    <contour>
      <point x="441.66" y="249.54000000000002" type="curve" smooth="yes"/>
      <point x="244.44" y="249.54000000000002"/>
      <point x="156.92000000000002" y="289.84"/>
      <point x="156.92000000000002" y="380.64000000000004" type="curve" smooth="yes"/>
      <point x="156.92000000000002" y="471.26"/>
      <point x="244.44" y="510.73999999999995"/>
      <point x="441.66" y="510.73999999999995" type="curve" smooth="yes"/>
      <point x="638.88" y="510.73999999999995"/>
      <point x="726.4000000000001" y="471.26"/>
      <point x="726.4000000000001" y="380.64000000000004" type="curve" smooth="yes"/>
      <point x="726.4000000000001" y="289.84"/>
      <point x="638.88" y="249.54000000000002"/>
    </contour>
    <contour>
      <point x="657.26" y="495.64" type="line"/>
      <point x="676.54" y="534.76"/>
      <point x="721.3" y="552.3199999999999"/>
      <point x="789.26" y="552.3199999999999" type="curve" smooth="yes"/>
      <point x="809.08" y="552.3199999999999"/>
      <point x="826.8" y="551.32"/>
      <point x="848.4399999999999" y="548.14" type="curve"/>
      <point x="852.4200000000001" y="582.36" type="line"/>
      <point x="824.3199999999999" y="585.36"/>
      <point x="809.78" y="586.36"/>
      <point x="790.88" y="586.36" type="curve" smooth="yes"/>
      <point x="707.26" y="586.36"/>
      <point x="651.9" y="561.28"/>
      <point x="631.62" y="506.84" type="curve"/>
    </contour>
  </outline>
</glyph>
<glyph name="h" format="2">
  <advance width="892.9100000000001"/>
  <unicode hex="0068"/>
  <anchor x="446.01" y="395.0" name="center"/>
  <anchor x="446.91" y="0.0" name="bottom"/>
  <anchor x="446.82" y="740.0" name="top"/>
  <outline>
    <contour>
      <point x="117.7" y="0.0" type="line"/>
      <point x="162.89999999999998" y="0.0" type="line"/>
      <point x="162.89999999999998" y="403.44" type="line"/>
      <point x="293.99" y="463.76000000000005"/>
      <point x="383.59" y="504.61"/>
      <point x="521.7900000000001" y="504.61" type="curve" smooth="yes"/>
      <point x="665.3399999999999" y="504.61"/>
      <point x="730.01" y="434.93"/>
      <point x="730.01" y="324.99" type="curve" smooth="yes"/>
      <point x="730.01" y="0.0" type="line"/>
      <point x="775.21" y="0.0" type="line"/>
      <point x="775.21" y="334.71" type="line" smooth="yes"/>
      <point x="775.21" y="462.81999999999994"/>
      <point x="696.3" y="541.8"/>
      <point x="532.86" y="541.8" type="curve" smooth="yes"/>
      <point x="388.98" y="541.8"/>
      <point x="292.58000000000004" y="498.22999999999996"/>
      <point x="162.89999999999998" y="438.21000000000004" type="curve"/>
      <point x="162.89999999999998" y="740.0" type="line"/>
      <point x="117.7" y="740.0" type="line"/>
    </contour>
  </outline>
</glyph>
<glyph name="i" format="2">
  <advance width="280.59999999999997"/>
  <unicode hex="0069"/>
  <anchor x="161.98999999999998" y="0.0" name="ogonek"/>
  <anchor x="140.29999999999998" y="0.0" name="bottom"/>
  <outline>
    <contour>
      <point x="140.29999999999998" y="667.37" type="curve" smooth="yes"/>
      <point x="166.55999999999997" y="667.37"/>
      <point x="171.96999999999997" y="671.6999999999999"/>
      <point x="171.96999999999997" y="692.74" type="curve" smooth="yes"/>
      <point x="171.96999999999997" y="713.7800000000001"/>
      <point x="166.56" y="718.11"/>
      <point x="140.29999999999998" y="718.11" type="curve" smooth="yes"/>
      <point x="114.03999999999999" y="718.11"/>
      <point x="108.63000000000001" y="713.7800000000001"/>
      <point x="108.63000000000001" y="692.74" type="curve" smooth="yes"/>
      <point x="108.63000000000001" y="671.6999999999999"/>
      <point x="114.95000000000002" y="667.37"/>
    </contour>
    <contour>
      <point x="117.7" y="0.0" type="line"/>
      <point x="162.89999999999998" y="0.0" type="line"/>
      <point x="162.89999999999998" y="531.8" type="line"/>
      <point x="117.7" y="531.8" type="line"/>
    </contour>
  </outline>
</glyph>
<glyph name="j" format="2">
  <advance width="284.93999999999994"/>
  <unicode hex="006A"/>
  <outline>
    <contour>
      <point x="168.14999999999998" y="531.8" type="line"/>
      <point x="122.95" y="531.8" type="line"/>
      <point x="122.95" y="20.39" type="line" smooth="yes"/>
      <point x="122.95" y="-72.53999999999999"/>
      <point x="95.77" y="-128.21"/>
      <point x="41.42" y="-157.33" type="curve" smooth="yes"/>
      <point x="31.869999999999997" y="-162.79"/>
      <point x="22.32" y="-167.34"/>
      <point x="11.86" y="-170.98" type="curve"/>
      <point x="20.060000000000002" y="-206.81" type="line"/>
      <point x="33.68" y="-203.35"/>
      <point x="49.730000000000004" y="-198.16"/>
      <point x="61.44" y="-192.70000000000002" type="curve" smooth="yes"/>
      <point x="132.66" y="-160.85"/>
      <point x="168.14999999999998" y="-92.16000000000001"/>
      <point x="168.14999999999998" y="19.759999999999998" type="curve" smooth="yes"/>
    </contour>
    <contour>
      <point x="143.73000000000002" y="667.37" type="curve" smooth="yes"/>
      <point x="169.98999999999998" y="667.37"/>
      <point x="175.4" y="671.6999999999999"/>
      <point x="175.4" y="692.74" type="curve" smooth="yes"/>
      <point x="175.4" y="713.7800000000001"/>
      <point x="169.98999999999998" y="718.11"/>
      <point x="143.73000000000002" y="718.11" type="curve" smooth="yes"/>
      <point x="117.47" y="718.11"/>
      <point x="112.06" y="713.7800000000001"/>
      <point x="112.06" y="692.74" type="curve" smooth="yes"/>
      <point x="112.06" y="671.6999999999999"/>
      <point x="118.38" y="667.37"/>
    </contour>
  </outline>
</glyph>
<glyph name="l" format="2">
  <advance width="368.93"/>
  <unicode hex="006C"/>
  <anchor x="184.83" y="395.0" name="center"/>
  <anchor x="140.29999999999998" y="740.0" name="top"/>
  <anchor x="282.98" y="740.0" name="topright"/>
  <anchor x="241.23" y="0.0" name="bottom"/>
  <outline>
    <contour>
      <point x="162.89999999999998" y="740.0" type="line"/>
      <point x="117.7" y="740.0" type="line"/>
      <point x="117.7" y="163.01" type="line" smooth="yes"/>
      <point x="117.7" y="19.509999999999998"/>
      <point x="186.77" y="-10.0"/>
      <point x="265.85" y="-10.0" type="curve" smooth="yes"/>
      <point x="305.17" y="-10.0"/>
      <point x="341.96" y="-2.37"/>
      <point x="371.11" y="7.71" type="curve"/>
      <point x="364.41" y="43.459999999999994" type="line"/>
      <point x="337.42" y="34.46"/>
      <point x="305.05" y="27.64"/>
      <point x="274.04" y="27.64" type="curve" smooth="yes"/>
      <point x="216.66" y="27.64"/>
      <point x="162.89999999999998" y="48.47"/>
      <point x="162.89999999999998" y="164.26999999999998" type="curve" smooth="yes"/>
    </contour>
  </outline>
</glyph>
<glyph name="m" format="2">
  <advance width="1361.51"/>
  <unicode hex="006D"/>
  <outline>
    <contour>
      <point x="117.7" y="0.0" type="line"/>
      <point x="162.89999999999998" y="0.0" type="line"/>
      <point x="162.89999999999998" y="397.07" type="line"/>
      <point x="270.98" y="459.03"/>
      <point x="352.48999999999995" y="499.61"/>
      <point x="476.32000000000005" y="499.61" type="curve" smooth="yes"/>
      <point x="643.62" y="499.61"/>
      <point x="660.4300000000001" y="376.52000000000004"/>
      <point x="660.4300000000001" y="320.44" type="curve" smooth="yes"/>
      <point x="660.4300000000001" y="0.0" type="line"/>
      <point x="705.63" y="0.0" type="line"/>
      <point x="705.63" y="323.5" type="line" smooth="yes"/>
      <point x="705.63" y="344.05"/>
      <point x="703.81" y="373.79"/>
      <point x="693.71" y="404.34999999999997" type="curve"/>
      <point x="761.65" y="442.83"/>
      <point x="866.64" y="504.25"/>
      <point x="1011.22" y="504.25" type="curve" smooth="yes"/>
      <point x="1182.07" y="504.25"/>
      <point x="1198.6100000000001" y="380.34000000000003"/>
      <point x="1198.6100000000001" y="324.08" type="curve" smooth="yes"/>
      <point x="1198.6100000000001" y="0.0" type="line"/>
      <point x="1243.81" y="0.0" type="line"/>
      <point x="1243.81" y="333.8" type="line" smooth="yes"/>
      <point x="1243.81" y="400.47"/>
      <point x="1219.33" y="541.8"/>
      <point x="1024.36" y="541.8" type="curve" smooth="yes"/>
      <point x="868.38" y="541.8"/>
      <point x="758.15" y="479.12"/>
      <point x="681.75" y="434.96" type="curve"/>
      <point x="655.76" y="489.59000000000003"/>
      <point x="601.94" y="537.25"/>
      <point x="488.46999999999997" y="537.25" type="curve" smooth="yes"/>
      <point x="355.59" y="537.25"/>
      <point x="260.57" y="490.59"/>
      <point x="160.10999999999999" y="433.22" type="curve"/>
      <point x="160.10999999999999" y="531.8" type="line"/>
      <point x="117.7" y="531.8" type="line"/>
    </contour>
  </outline>
</glyph>
<glyph name="n" format="2">
  <advance width="892.91"/>
  <unicode hex="006E"/>
  <anchor x="457.84000000000003" y="531.8" name="top"/>
  <anchor x="459.65999999999997" y="0.0" name="bottom"/>
  <outline>
    <contour>
      <point x="117.7" y="0.0" type="line"/>
      <point x="162.89999999999998" y="0.0" type="line"/>
      <point x="162.89999999999998" y="403.44" type="line"/>
      <point x="293.99" y="463.76"/>
      <point x="383.59000000000003" y="504.61"/>
      <point x="521.7900000000001" y="504.61" type="curve" smooth="yes"/>
      <point x="665.34" y="504.61"/>
      <point x="730.0100000000001" y="434.93"/>
      <point x="730.0100000000001" y="324.99" type="curve" smooth="yes"/>
      <point x="730.0100000000001" y="0.0" type="line"/>
      <point x="775.21" y="0.0" type="line"/>
      <point x="775.21" y="334.71" type="line" smooth="yes"/>
      <point x="775.21" y="462.82"/>
      <point x="696.3000000000001" y="541.8"/>
      <point x="532.86" y="541.8" type="curve" smooth="yes"/>
      <point x="388.16999999999996" y="541.8"/>
      <point x="290.40999999999997" y="497.78"/>
      <point x="160.10999999999999" y="436.86" type="curve"/>
      <point x="160.10999999999999" y="531.8" type="line"/>
      <point x="117.7" y="531.8" type="line"/>
    </contour>
  </outline>
</glyph>
<glyph name="o" format="2">
  <advance width="912.2"/>
  <unicode hex="006F"/>
  <anchor x="538.86" y="0.17999999999999997" name="ogonek"/>
  <anchor x="456.1" y="531.8" name="top"/>
  <anchor x="604.1600000000001" y="530.9" name="topright"/>
  <anchor x="456.1" y="0.0" name="bottom"/>
  <outline>
    <contour>
      <point x="70.03999999999999" y="267.90000000000003" type="curve" smooth="yes"/>
      <point x="70.03999999999999" y="84.36"/>
      <point x="187.94" y="-10.0"/>
      <point x="456.1" y="-10.0" type="curve" smooth="yes"/>
      <point x="724.26" y="-10.0"/>
      <point x="842.16" y="84.36"/>
      <point x="842.16" y="267.90000000000003" type="curve" smooth="yes"/>
      <point x="842.16" y="438.44"/>
      <point x="741.26" y="541.8"/>
      <point x="456.1" y="541.8" type="curve" smooth="yes"/>
      <point x="170.76000000000002" y="541.8"/>
      <point x="70.03999999999999" y="438.44"/>
    </contour>
    <contour>
      <point x="115.6" y="267.9" type="curve" smooth="yes"/>
      <point x="115.6" y="413.08"/>
      <point x="199.20000000000002" y="507.4"/>
      <point x="456.1" y="507.4" type="curve" smooth="yes"/>
      <point x="713.0" y="507.4"/>
      <point x="796.42" y="413.08"/>
      <point x="796.42" y="267.9" type="curve" smooth="yes"/>
      <point x="796.42" y="112.89999999999999"/>
      <point x="697.08" y="24.4"/>
      <point x="456.1" y="24.4" type="curve" smooth="yes"/>
      <point x="215.12" y="24.4"/>
      <point x="115.6" y="112.89999999999999"/>
    </contour>
  </outline>
</glyph>
<glyph name="p" format="2">
  <advance width="867.12"/>
  <unicode hex="0070"/>
  <outline>
    <contour>
      <point x="117.7" y="-210.0" type="line"/>
      <point x="162.98999999999998" y="-210.0" type="line"/>
      <point x="162.98999999999998" y="14.84" type="line"/>
      <point x="255.5" y="-1.72"/>
      <point x="331.72" y="-10.0"/>
      <point x="402.48" y="-10.0" type="curve" smooth="yes"/>
      <point x="665.3499999999999" y="-10.0"/>
      <point x="797.17" y="88.83"/>
      <point x="797.17" y="284.46" type="curve" smooth="yes"/>
      <point x="797.17" y="444.17"/>
      <point x="687.0699999999999" y="541.8"/>
      <point x="505.88" y="541.8" type="curve" smooth="yes"/>
      <point x="393.40999999999997" y="541.8"/>
      <point x="293.59" y="505.7"/>
      <point x="160.11" y="414.93999999999994" type="curve"/>
      <point x="160.10999999999999" y="531.8" type="line"/>
      <point x="117.7" y="531.8" type="line"/>
    </contour>
    <contour>
      <point x="402.75" y="23.58" type="curve" smooth="yes"/>
      <point x="337.35999999999996" y="23.58"/>
      <point x="256.22999999999996" y="32.22"/>
      <point x="162.89999999999998" y="50.41" type="curve"/>
      <point x="162.89999999999998" y="381.06" type="line"/>
      <point x="292.52000000000004" y="469.13"/>
      <point x="387.02000000000004" y="504.52000000000004"/>
      <point x="494.27" y="504.52000000000004" type="curve" smooth="yes"/>
      <point x="653.0" y="504.52000000000004"/>
      <point x="751.61" y="420.09999999999997"/>
      <point x="751.61" y="283.20000000000005" type="curve" smooth="yes"/>
      <point x="751.61" y="110.27"/>
      <point x="634.81" y="23.58"/>
    </contour>
  </outline>
</glyph>
<glyph name="q" format="2">
  <advance width="867.12"/>
  <unicode hex="0071"/>
  <outline>
    <contour>
      <point x="749.42" y="510.62" type="line"/>
      <point x="637.11" y="531.7099999999999"/>
      <point x="546.61" y="541.8"/>
      <point x="464.64" y="541.8" type="curve" smooth="yes"/>
      <point x="201.77" y="541.8"/>
      <point x="69.94999999999999" y="442.97"/>
      <point x="69.94999999999999" y="247.33999999999997" type="curve" smooth="yes"/>
      <point x="69.94999999999999" y="87.63"/>
      <point x="180.04999999999998" y="-10.0"/>
      <point x="361.24" y="-10.0" type="curve" smooth="yes"/>
      <point x="473.62" y="-10.0"/>
      <point x="572.0" y="25.56"/>
      <point x="704.2199999999999" y="115.6" type="curve"/>
      <point x="704.2199999999999" y="-210.0" type="line"/>
      <point x="749.42" y="-210.0" type="line"/>
    </contour>
    <contour>
      <point x="704.22" y="481.39" type="curve"/>
      <point x="704.22" y="150.74" type="line"/>
      <point x="574.6" y="62.67"/>
      <point x="480.09999999999997" y="27.28"/>
      <point x="372.85" y="27.28" type="curve" smooth="yes"/>
      <point x="214.12" y="27.28"/>
      <point x="115.50999999999999" y="111.7"/>
      <point x="115.50999999999999" y="248.6" type="curve" smooth="yes"/>
      <point x="115.50999999999999" y="421.53000000000003"/>
      <point x="232.31" y="508.21999999999997"/>
      <point x="464.37" y="508.21999999999997" type="curve" smooth="yes"/>
      <point x="529.85" y="508.21999999999997"/>
      <point x="610.89" y="499.58000000000004"/>
    </contour>
  </outline>
</glyph>
<glyph name="r" format="2">
  <advance width="618.96"/>
  <unicode hex="0072"/>
  <anchor x="349.56" y="531.8" name="top"/>
  <anchor x="140.3" y="0.0" name="bottom"/>
  <outline>
    <contour>
      <point x="160.11" y="531.8" type="line"/>
      <point x="117.7" y="531.8" type="line"/>
      <point x="117.7" y="0.0" type="line"/>
      <point x="162.9" y="0.0" type="line"/>
      <point x="162.9" y="372.52" type="line"/>
      <point x="272.67999999999995" y="468.23"/>
      <point x="374.1" y="503.34999999999997"/>
      <point x="467.69999999999993" y="503.34999999999997" type="curve" smooth="yes"/>
      <point x="510.25" y="503.34999999999997"/>
      <point x="561.54" y="495.53"/>
      <point x="600.9" y="485.62" type="curve"/>
      <point x="608.14" y="524.25" type="line"/>
      <point x="576.6" y="533.16"/>
      <point x="523.4" y="541.8"/>
      <point x="468.74" y="541.8" type="curve" smooth="yes"/>
      <point x="369.36" y="541.8"/>
      <point x="277.68" y="507.70000000000005"/>
      <point x="160.11" y="413.13000000000005" type="curve"/>
    </contour>
  </outline>
</glyph>
<glyph name="s" format="2">
  <advance width="766.3000000000001"/>
  <unicode hex="0073"/>
  <anchor x="379.48" y="531.8" name="top"/>
  <anchor x="387.76" y="0.0" name="bottom"/>
  <outline>
    <contour>
      <point x="56.12" y="40.019999999999996" type="line"/>
      <point x="129.12" y="12.18"/>
      <point x="266.4" y="-10.0"/>
      <point x="386.68" y="-10.0" type="curve" smooth="yes"/>
      <point x="593.18" y="-10.0"/>
      <point x="711.72" y="34.940000000000005"/>
      <point x="711.72" y="141.68" type="curve" smooth="yes"/>
      <point x="711.72" y="251.4"/>
      <point x="564.4" y="269.91999999999996"/>
      <point x="411.94000000000005" y="284.28000000000003" type="curve" smooth="yes"/>
      <point x="270.18" y="297.46000000000004"/>
      <point x="127.36" y="307.76"/>
      <point x="127.36" y="398.92" type="curve" smooth="yes"/>
      <point x="127.36" y="472.26"/>
      <point x="215.85999999999999" y="507.76000000000005"/>
      <point x="399.56" y="507.76000000000005" type="curve" smooth="yes"/>
      <point x="494.28" y="507.76000000000005"/>
      <point x="599.6" y="485.86"/>
      <point x="653.4599999999999" y="470.94" type="curve"/>
      <point x="661.4399999999999" y="505.34000000000003" type="line"/>
      <point x="606.3199999999999" y="520.26"/>
      <point x="503.59999999999997" y="541.8"/>
      <point x="400.1" y="541.8" type="curve" smooth="yes"/>
      <point x="185.48000000000002" y="541.8"/>
      <point x="84.86" y="492.9"/>
      <point x="84.86" y="395.5" type="curve" smooth="yes"/>
      <point x="84.86" y="283.12"/>
      <point x="229.14000000000001" y="264.52000000000004"/>
      <point x="387.08" y="249.7" type="curve" smooth="yes"/>
      <point x="532.12" y="236.06"/>
      <point x="668.5" y="221.68"/>
      <point x="668.5" y="139.34" type="curve" smooth="yes"/>
      <point x="668.5" y="62.08"/>
      <point x="571.98" y="23.86"/>
      <point x="388.84000000000003" y="23.86" type="curve" smooth="yes"/>
      <point x="274.18" y="23.86"/>
      <point x="135.12" y="46.94"/>
      <point x="64.10000000000001" y="74.6" type="curve"/>
    </contour>
  </outline>
</glyph>
<glyph name="t" format="2">
  <advance width="636.35"/>
  <unicode hex="0074"/>
  <anchor x="317.46000000000004" y="275.0" name="center"/>
  <anchor x="210.02" y="665.0" name="top"/>
  <anchor x="486.39" y="794.55" name="topright"/>
  <anchor x="374.84000000000003" y="0.0" name="bottom"/>
  <outline>
    <contour>
      <point x="382.91999999999996" y="-10.0" type="curve" smooth="yes"/>
      <point x="445.89" y="-10.0"/>
      <point x="526.0799999999999" y="3.0"/>
      <point x="612.4399999999999" y="30.189999999999998" type="curve"/>
      <point x="603.9200000000001" y="65.92999999999999" type="line"/>
      <point x="539.5500000000001" y="44.1"/>
      <point x="470.24" y="28.0"/>
      <point x="395.73999999999995" y="28.0" type="curve" smooth="yes"/>
      <point x="280.03" y="28.0"/>
      <point x="229.45000000000002" y="78.39999999999999"/>
      <point x="229.45000000000002" y="182.74" type="curve" smooth="yes"/>
      <point x="229.45000000000002" y="497.49" type="line"/>
      <point x="583.35" y="497.49" type="line"/>
      <point x="583.35" y="531.8" type="line"/>
      <point x="229.45000000000002" y="531.8" type="line"/>
      <point x="229.45000000000002" y="665.0" type="line"/>
      <point x="190.59" y="665.0" type="line"/>
      <point x="184.25" y="531.8" type="line"/>
      <point x="11.280000000000001" y="525.4499999999999" type="line"/>
      <point x="11.280000000000001" y="497.49" type="line"/>
      <point x="184.25" y="497.49" type="line"/>
      <point x="184.25" y="181.48" type="line" smooth="yes"/>
      <point x="184.25" y="41.63"/>
      <point x="261.32" y="-10.0"/>
    </contour>
  </outline>
</glyph>
<glyph name="u" format="2">
  <advance width="874.14"/>
  <unicode hex="0075"/>
  <anchor x="858.67" y="2.42" name="ogonek"/>
  <anchor x="428.06" y="531.8" name="top"/>
  <anchor x="736.08" y="531.8" name="topright"/>
  <anchor x="437.15999999999997" y="0.0" name="bottom"/>
  <outline>
    <contour>
      <point x="345.49" y="-10.0" type="curve" smooth="yes"/>
      <point x="481.8" y="-10.0"/>
      <point x="574.27" y="34.019999999999996"/>
      <point x="696.21" y="95.49000000000001" type="curve"/>
      <point x="707.4599999999999" y="19.369999999999997"/>
      <point x="753.83" y="-10.0"/>
      <point x="799.6999999999999" y="-10.0" type="curve" smooth="yes"/>
      <point x="819.2" y="-10.0"/>
      <point x="839.96" y="-5.38"/>
      <point x="858.67" y="2.42" type="curve"/>
      <point x="851.05" y="31.38" type="line"/>
      <point x="840.23" y="26.47"/>
      <point x="827.7700000000001" y="23.650000000000002"/>
      <point x="816.04" y="23.650000000000002" type="curve" smooth="yes"/>
      <point x="774.5600000000001" y="23.650000000000002"/>
      <point x="736.08" y="50.940000000000005"/>
      <point x="736.08" y="146.56" type="curve" smooth="yes"/>
      <point x="736.08" y="531.8" type="line"/>
      <point x="690.88" y="531.8" type="line"/>
      <point x="690.88" y="126.91000000000001" type="line"/>
      <point x="570.26" y="68.14"/>
      <point x="485.29" y="26.83"/>
      <point x="356.83000000000004" y="26.83" type="curve" smooth="yes"/>
      <point x="227.66" y="26.83"/>
      <point x="162.9" y="91.96000000000001"/>
      <point x="162.9" y="187.35000000000002" type="curve" smooth="yes"/>
      <point x="162.9" y="531.8" type="line"/>
      <point x="117.69999999999999" y="531.8" type="line"/>
      <point x="117.69999999999999" y="178.89" type="line" smooth="yes"/>
      <point x="117.69999999999999" y="67.36"/>
      <point x="194.04" y="-10.0"/>
    </contour>
  </outline>
</glyph>
<glyph name="v" format="2">
  <advance width="765.7099999999999"/>
  <unicode hex="0076"/>
  <outline>
    <contour>
      <point x="364.35" y="0.0" type="line"/>
      <point x="400.45" y="0.0" type="line"/>
      <point x="753.25" y="526.34" type="line"/>
      <point x="708.2700000000001" y="537.26" type="line"/>
      <point x="384.47999999999996" y="43.01" type="line"/>
      <point x="57.44" y="537.26" type="line"/>
      <point x="12.46" y="526.34" type="line"/>
    </contour>
  </outline>
</glyph>
<glyph name="w" format="2">
  <advance width="1154.4299999999998"/>
  <unicode hex="0077"/>
  <anchor x="577.26" y="531.8" name="top"/>
  <anchor x="577.26" y="0.0" name="bottom"/>
  <outline>
    <contour>
      <point x="284.74" y="0.0" type="line"/>
      <point x="326.82" y="0.0" type="line"/>
      <point x="576.27" y="485.49" type="line"/>
      <point x="827.4300000000001" y="0.0" type="line"/>
      <point x="868.0699999999999" y="0.0" type="line"/>
      <point x="1138.97" y="527.25" type="line"/>
      <point x="1096.5800000000002" y="536.35" type="line"/>
      <point x="850.38" y="48.72" type="line"/>
      <point x="600.49" y="531.8" type="line"/>
      <point x="553.9399999999999" y="531.8" type="line"/>
      <point x="307.87" y="47.99" type="line"/>
      <point x="58.75" y="536.35" type="line"/>
      <point x="15.46" y="527.25" type="line"/>
    </contour>
  </outline>
</glyph>
<glyph name="x" format="2">
  <advance width="804.7200000000001"/>
  <unicode hex="0078"/>
  <outline>
    <contour>
      <point x="21.66" y="7.279999999999999" type="line"/>
      <point x="66.96" y="-7.279999999999999" type="line"/>
      <point x="401.85999999999996" y="249.76000000000005" type="line"/>
      <point x="738.3" y="-7.279999999999999" type="line"/>
      <point x="783.0600000000001" y="7.279999999999999" type="line"/>
      <point x="433.62" y="276.08" type="line"/>
      <point x="762.7800000000001" y="524.52" type="line"/>
      <point x="720.72" y="539.08" type="line"/>
      <point x="403.84000000000003" y="299.41999999999996" type="line"/>
      <point x="87.96000000000001" y="539.0799999999999" type="line"/>
      <point x="42.839999999999996" y="524.5200000000001" type="line"/>
      <point x="373.26" y="274.46000000000004" type="line"/>
    </contour>
  </outline>
</glyph>
<glyph name="y" format="2">
  <advance width="767.16"/>
  <unicode hex="0079"/>
  <anchor x="382.76" y="531.8" name="top"/>
  <anchor x="584.8599999999999" y="0.0" name="bottom"/>
  <outline>
    <contour>
      <point x="276.5" y="-205.54000000000002" type="line"/>
      <point x="318.62" y="-214.64" type="line"/>
      <point x="754.7" y="530.98" type="line"/>
      <point x="711.1400000000001" y="540.08" type="line"/>
      <point x="416.41999999999996" y="33.46" type="line"/>
      <point x="58.339999999999996" y="540.9" type="line"/>
      <point x="12.46" y="529.98" type="line"/>
      <point x="388.65999999999997" y="0.0" type="line"/>
      <point x="396.16" y="0.0" type="line"/>
    </contour>
  </outline>
</glyph>
<glyph name="z" format="2">
  <advance width="775.6600000000001"/>
  <unicode hex="007A"/>
  <anchor x="400.15999999999997" y="531.8" name="top"/>
  <outline>
    <contour>
      <point x="42.82000000000001" y="0.0" type="line"/>
      <point x="739.12" y="0.0" type="line"/>
      <point x="739.12" y="34.94" type="line"/>
      <point x="111.38" y="34.94" type="line"/>
      <point x="701.12" y="501.02" type="line"/>
      <point x="701.12" y="531.8" type="line"/>
      <point x="87.6" y="531.8" type="line"/>
      <point x="87.6" y="496.85999999999996" type="line"/>
      <point x="633.46" y="496.85999999999996" type="line"/>
      <point x="42.82000000000001" y="30.78" type="line"/>
    </contour>
  </outline>
</glyph>
<glyph name="braceleft" format="2">
  <advance width="469.06"/>
  <unicode hex="007B"/>
  <outline>
    <contour>
      <point x="187.67" y="-65.75999999999999" type="curve" smooth="yes"/>
      <point x="187.67" y="-141.16"/>
      <point x="226.87" y="-210.0"/>
      <point x="362.24" y="-210.0" type="curve" smooth="yes"/>
      <point x="414.68" y="-210.0" type="line"/>
      <point x="414.68" y="-177.57999999999998" type="line"/>
      <point x="369.8" y="-177.57999999999998" type="line" smooth="yes"/>
      <point x="256.82" y="-177.57999999999998"/>
      <point x="229.63000000000002" y="-120.36"/>
      <point x="229.63000000000002" y="-62.79" type="curve" smooth="yes"/>
      <point x="229.63000000000002" y="5.6899999999999995"/>
      <point x="263.53000000000003" y="76.08"/>
      <point x="263.53000000000003" y="144.46" type="curve" smooth="yes"/>
      <point x="263.53000000000003" y="187.0"/>
      <point x="254.98999999999998" y="252.66"/>
      <point x="193.11" y="265.0" type="curve"/>
      <point x="254.07999999999998" y="281.16"/>
      <point x="263.53000000000003" y="341.17999999999995"/>
      <point x="263.53000000000003" y="383.71999999999997" type="curve" smooth="yes"/>
      <point x="263.53000000000003" y="455.74"/>
      <point x="229.63000000000002" y="521.58"/>
      <point x="229.63000000000002" y="590.97" type="curve" smooth="yes"/>
      <point x="229.63000000000002" y="648.54"/>
      <point x="256.82" y="707.58"/>
      <point x="369.8" y="707.58" type="curve" smooth="yes"/>
      <point x="414.68" y="707.58" type="line"/>
      <point x="414.68" y="740.0" type="line"/>
      <point x="362.24" y="740.0" type="line" smooth="yes"/>
      <point x="226.87" y="740.0"/>
      <point x="187.67" y="669.3399999999999"/>
      <point x="187.67" y="593.9399999999999" type="curve" smooth="yes"/>
      <point x="187.67" y="518.77"/>
      <point x="221.92999999999998" y="452.93"/>
      <point x="221.92999999999998" y="383.63" type="curve" smooth="yes"/>
      <point x="221.92999999999998" y="339.79999999999995"/>
      <point x="208.11" y="281.12"/>
      <point x="151.55" y="281.12" type="curve" smooth="yes"/>
      <point x="130.82" y="281.12" type="line"/>
      <point x="130.82" y="248.88" type="line"/>
      <point x="151.55" y="248.88" type="line" smooth="yes"/>
      <point x="208.11" y="248.88"/>
      <point x="221.92999999999998" y="188.38"/>
      <point x="221.92999999999998" y="144.55" type="curve" smooth="yes"/>
      <point x="221.92999999999998" y="77.07000000000001"/>
      <point x="187.67" y="7.589999999999999"/>
    </contour>
  </outline>
</glyph>
<glyph name="bar" format="2">
  <advance width="309.03999999999996"/>
  <unicode hex="007C"/>
  <outline>
    <contour>
      <point x="173.97" y="790.0" type="line"/>
      <point x="135.07" y="790.0" type="line"/>
      <point x="135.07" y="-210.0" type="line"/>
      <point x="173.97" y="-210.0" type="line"/>
    </contour>
  </outline>
</glyph>
<glyph name="braceright" format="2">
  <advance width="469.06"/>
  <unicode hex="007D"/>
  <outline>
    <contour>
      <point x="54.38" y="-177.57999999999998" type="line"/>
      <point x="54.38" y="-210.0" type="line"/>
      <point x="106.82" y="-210.0" type="line" smooth="yes"/>
      <point x="242.19" y="-210.0"/>
      <point x="281.39000000000004" y="-141.16"/>
      <point x="281.39000000000004" y="-65.75999999999999" type="curve" smooth="yes"/>
      <point x="281.39000000000004" y="7.589999999999999"/>
      <point x="247.13" y="77.07000000000001"/>
      <point x="247.13" y="144.55" type="curve" smooth="yes"/>
      <point x="247.13" y="188.38"/>
      <point x="260.95" y="248.88"/>
      <point x="317.51" y="248.88" type="curve" smooth="yes"/>
      <point x="338.23999999999995" y="248.88" type="line"/>
      <point x="338.23999999999995" y="281.12" type="line"/>
      <point x="317.51" y="281.12" type="line" smooth="yes"/>
      <point x="260.95" y="281.12"/>
      <point x="247.13" y="339.79999999999995"/>
      <point x="247.13" y="383.63" type="curve" smooth="yes"/>
      <point x="247.13" y="452.93"/>
      <point x="281.39000000000004" y="518.77"/>
      <point x="281.39000000000004" y="593.9399999999999" type="curve" smooth="yes"/>
      <point x="281.39000000000004" y="669.3399999999999"/>
      <point x="242.19" y="740.0"/>
      <point x="106.82" y="740.0" type="curve" smooth="yes"/>
      <point x="54.38" y="740.0" type="line"/>
      <point x="54.38" y="707.58" type="line"/>
      <point x="99.25999999999999" y="707.58" type="line" smooth="yes"/>
      <point x="212.23999999999998" y="707.58"/>
      <point x="239.43" y="648.54"/>
      <point x="239.43" y="590.97" type="curve" smooth="yes"/>
      <point x="239.43" y="521.58"/>
      <point x="205.53" y="455.74"/>
      <point x="205.53" y="383.71999999999997" type="curve" smooth="yes"/>
      <point x="205.53" y="341.17999999999995"/>
      <point x="214.98" y="281.16"/>
      <point x="275.95" y="265.0" type="curve"/>
      <point x="214.07" y="252.66"/>
      <point x="205.53" y="187.0"/>
      <point x="205.53" y="144.46" type="curve" smooth="yes"/>
      <point x="205.53" y="76.08"/>
      <point x="239.43" y="5.6899999999999995"/>
      <point x="239.43" y="-62.79" type="curve" smooth="yes"/>
      <point x="239.43" y="-120.36"/>
      <point x="212.23999999999998" y="-177.57999999999998"/>
      <point x="99.25999999999999" y="-177.57999999999998" type="curve" smooth="yes"/>
    </contour>
  </outline>
</glyph>
<glyph name="asciitilde" format="2">
  <advance width="579.98"/>
  <unicode hex="007E"/>
  <outline>
    <contour>
      <point x="506.33" y="266.05" type="curve"/>
      <point x="506.33" y="306.42999999999995" type="line"/>
      <point x="479.79" y="285.62"/>
      <point x="450.26" y="259.88"/>
      <point x="406.73" y="259.88" type="curve" smooth="yes"/>
      <point x="315.98999999999995" y="259.88"/>
      <point x="263.58" y="360.26000000000005"/>
      <point x="170.15000000000003" y="360.26000000000005" type="curve" smooth="yes"/>
      <point x="130.93" y="360.26000000000005"/>
      <point x="97.66" y="337.09000000000003"/>
      <point x="73.74" y="319.17" type="curve"/>
      <point x="73.74" y="277.88" type="line"/>
      <point x="97.36" y="296.33000000000004"/>
      <point x="127.0" y="323.16"/>
      <point x="170.98" y="323.16" type="curve" smooth="yes"/>
      <point x="258.12" y="323.16"/>
      <point x="311.60999999999996" y="222.69"/>
      <point x="408.64" y="222.69" type="curve" smooth="yes"/>
      <point x="452.71999999999997" y="222.69"/>
      <point x="482.06" y="246.51000000000002"/>
    </contour>
  </outline>
</glyph>
<glyph name="exclamdown" format="2">
  <advance width="340.86"/>
  <unicode hex="00A1"/>
  <outline>
    <contour>
      <point x="191.14000000000001" y="268.16" type="line"/>
      <point x="150.35000000000002" y="268.16" type="line"/>
      <point x="148.54999999999998" y="-208.29" type="line"/>
      <point x="192.94" y="-208.29" type="line"/>
    </contour>
    <contour>
      <point x="200.57000000000002" y="506.96999999999997" type="curve" smooth="yes"/>
      <point x="200.57000000000002" y="528.28"/>
      <point x="195.60999999999999" y="532.7"/>
      <point x="170.43" y="532.7" type="curve" smooth="yes"/>
      <point x="146.16" y="532.7"/>
      <point x="140.29" y="528.28"/>
      <point x="140.29" y="506.96999999999997" type="curve" smooth="yes"/>
      <point x="140.29" y="485.57"/>
      <point x="145.25" y="481.15000000000003"/>
      <point x="170.43" y="481.15000000000003" type="curve" smooth="yes"/>
      <point x="195.60999999999999" y="481.15000000000003"/>
      <point x="200.57000000000002" y="485.57"/>
    </contour>
  </outline>
</glyph>
<glyph name="cent" format="2">
  <advance width="1035.44"/>
  <unicode hex="00A2"/>
  <outline>
    <contour>
      <point x="526.72" y="-10.0" type="curve" smooth="yes"/>
      <point x="640.44" y="-10.0"/>
      <point x="780.82" y="4.73"/>
      <point x="868.98" y="25.91" type="curve"/>
      <point x="862.73" y="60.22" type="line"/>
      <point x="777.02" y="40.58"/>
      <point x="639.6800000000001" y="25.48"/>
      <point x="536.0200000000001" y="25.48" type="curve" smooth="yes"/>
      <point x="329.38" y="25.48"/>
      <point x="208.96" y="108.72"/>
      <point x="208.96" y="252.89000000000001" type="curve" smooth="yes"/>
      <point x="208.96" y="410.44"/>
      <point x="344.59" y="505.87"/>
      <point x="567.8100000000001" y="505.87" type="curve" smooth="yes"/>
      <point x="668.2800000000001" y="505.87"/>
      <point x="738.26" y="496.96"/>
      <point x="848.37" y="469.95" type="curve"/>
      <point x="854.6199999999999" y="505.42999999999995" type="line"/>
      <point x="757.1700000000001" y="530.98"/>
      <point x="672.3399999999999" y="541.8000000000001"/>
      <point x="566.9100000000001" y="541.8000000000001" type="curve" smooth="yes"/>
      <point x="313.6" y="541.8000000000001"/>
      <point x="164.66000000000003" y="429.19"/>
      <point x="164.66000000000003" y="252.35000000000002" type="curve" smooth="yes"/>
      <point x="164.66000000000003" y="84.53999999999999"/>
      <point x="294.83" y="-10.0"/>
    </contour>
    <contour>
      <point x="514.82" y="-105.0" type="line"/>
      <point x="551.11" y="-105.0" type="line"/>
      <point x="551.11" y="-2.92" type="line"/>
      <point x="514.82" y="-3.29" type="line"/>
    </contour>
    <contour>
      <point x="514.82" y="533.73" type="line"/>
      <point x="551.11" y="535.72" type="line"/>
      <point x="551.11" y="636.8000000000001" type="line"/>
      <point x="514.82" y="636.8000000000001" type="line"/>
    </contour>
  </outline>
</glyph>
<glyph name="sterling" format="2">
  <advance width="1035.44"/>
  <unicode hex="00A3"/>
  <outline>
    <contour>
      <point x="107.16" y="0.0" type="line"/>
      <point x="966.7600000000001" y="0.0" type="line"/>
      <point x="966.7600000000001" y="37.1" type="line"/>
      <point x="168.5" y="37.1" type="line"/>
      <point x="287.22" y="115.98"/>
      <point x="333.16" y="167.18"/>
      <point x="333.16" y="233.04" type="curve" smooth="yes"/>
      <point x="333.16" y="339.28"/>
      <point x="228.94" y="378.97999999999996"/>
      <point x="228.94" y="484.47999999999996" type="curve" smooth="yes"/>
      <point x="228.94" y="602.66"/>
      <point x="352.3" y="672.54"/>
      <point x="559.14" y="672.54" type="curve" smooth="yes"/>
      <point x="654.12" y="672.54"/>
      <point x="818.0999999999999" y="654.26"/>
      <point x="920.12" y="631.0799999999999" type="curve"/>
      <point x="927.0" y="667.6400000000001" type="line"/>
      <point x="844.94" y="689.5400000000001"/>
      <point x="664.66" y="710.0"/>
      <point x="557.34" y="710.0" type="curve" smooth="yes"/>
      <point x="319.56" y="710.0"/>
      <point x="183.38000000000002" y="628.9000000000001"/>
      <point x="183.38000000000002" y="488.52000000000004" type="curve" smooth="yes"/>
      <point x="183.38000000000002" y="373.94"/>
      <point x="289.22" y="330.36"/>
      <point x="289.22" y="231.76" type="curve" smooth="yes"/>
      <point x="289.22" y="173.4"/>
      <point x="244.66" y="126.89999999999999"/>
      <point x="107.16" y="34.22" type="curve"/>
    </contour>
    <contour>
      <point x="106.44" y="356.1" type="line"/>
      <point x="765.76" y="356.1" type="line"/>
      <point x="765.76" y="390.32" type="line"/>
      <point x="106.44" y="390.32" type="line"/>
    </contour>
  </outline>
</glyph>
<glyph name="currency" format="2">
  <advance width="469.84999999999997"/>
  <unicode hex="00A4"/>
  <outline>
    <contour>
      <point x="53.62" y="450.28000000000003" type="line"/>
      <point x="126.18" y="376.72" type="line"/>
      <point x="108.26" y="353.99"/>
      <point x="96.98" y="324.8"/>
      <point x="96.98" y="291.79" type="curve" smooth="yes"/>
      <point x="96.98" y="258.69"/>
      <point x="108.26" y="229.41"/>
      <point x="127.18" y="206.68" type="curve"/>
      <point x="53.62" y="133.12" type="line"/>
      <point x="76.8" y="109.94000000000001" type="line"/>
      <point x="152.16" y="185.21" type="line"/>
      <point x="174.26" y="166.82999999999998"/>
      <point x="202.82000000000002" y="156.82"/>
      <point x="234.2" y="156.82" type="curve" smooth="yes"/>
      <point x="265.76" y="156.82"/>
      <point x="295.32" y="166.92"/>
      <point x="317.59999999999997" y="185.3" type="curve"/>
      <point x="393.05" y="109.94000000000001" type="line"/>
      <point x="416.23" y="133.12" type="line"/>
      <point x="342.22" y="207.13" type="line"/>
      <point x="360.96000000000004" y="229.76999999999998"/>
      <point x="372.24" y="258.87"/>
      <point x="372.24" y="291.79" type="curve" smooth="yes"/>
      <point x="372.24" y="324.62"/>
      <point x="361.05" y="353.63"/>
      <point x="342.21999999999997" y="376.27" type="curve"/>
      <point x="416.23" y="450.28000000000003" type="line"/>
      <point x="393.05" y="473.46" type="line"/>
      <point x="317.59999999999997" y="398.01" type="line"/>
      <point x="295.32" y="416.48"/>
      <point x="266.67" y="427.49"/>
      <point x="234.2" y="427.49" type="curve" smooth="yes"/>
      <point x="201.91" y="427.49"/>
      <point x="173.35" y="416.47999999999996"/>
      <point x="151.25" y="398.1" type="curve"/>
      <point x="76.8" y="473.46" type="line"/>
    </contour>
    <contour>
      <point x="234.10999999999999" y="186.72" type="curve" smooth="yes"/>
      <point x="175.89" y="186.72"/>
      <point x="129.04" y="233.48"/>
      <point x="129.04" y="291.78999999999996" type="curve" smooth="yes"/>
      <point x="129.04" y="350.74"/>
      <point x="175.79999999999998" y="397.59000000000003"/>
      <point x="234.10999999999999" y="397.59000000000003" type="curve" smooth="yes"/>
      <point x="293.33" y="397.59000000000003"/>
      <point x="340.18" y="350.74"/>
      <point x="340.18" y="291.78999999999996" type="curve" smooth="yes"/>
      <point x="340.18" y="233.48"/>
      <point x="293.24" y="186.72"/>
    </contour>
  </outline>
</glyph>
<glyph name="yen" format="2">
  <advance width="1035.44"/>
  <unicode hex="00A5"/>
  <outline>
    <contour>
      <point x="143.26" y="358.08" type="line"/>
      <point x="500.32" y="358.08" type="line"/>
      <point x="500.32" y="207.51999999999998" type="line"/>
      <point x="143.26" y="207.51999999999998" type="line"/>
      <point x="143.26" y="177.62" type="line"/>
      <point x="500.32" y="177.62" type="line"/>
      <point x="500.32" y="0.0" type="line"/>
      <point x="548.04" y="0.0" type="line"/>
      <point x="548.04" y="177.62" type="line"/>
      <point x="907.1800000000001" y="177.62" type="line"/>
      <point x="907.1800000000001" y="207.51999999999998" type="line"/>
      <point x="548.04" y="207.51999999999998" type="line"/>
      <point x="548.04" y="358.08" type="line"/>
      <point x="907.1800000000001" y="358.08" type="line"/>
      <point x="907.1800000000001" y="388.16" type="line"/>
      <point x="548.04" y="388.16" type="line"/>
      <point x="944.18" y="692.7199999999999" type="line"/>
      <point x="903.56" y="707.2800000000001" type="line"/>
      <point x="524.18" y="417.68" type="line"/>
      <point x="131.88" y="707.2800000000001" type="line"/>
      <point x="91.44" y="692.7199999999999" type="line"/>
      <point x="500.32" y="388.16" type="line"/>
      <point x="143.26" y="388.16" type="line"/>
    </contour>
  </outline>
</glyph>
<glyph name="brokenbar" format="2">
  <advance width="309.04"/>
  <unicode hex="00A6"/>
  <outline>
    <contour>
      <point x="173.97" y="391.0" type="line"/>
      <point x="173.97" y="790.0" type="line"/>
      <point x="135.07" y="790.0" type="line"/>
      <point x="135.07" y="391.0" type="line"/>
    </contour>
    <contour>
      <point x="135.07" y="190.0" type="line"/>
      <point x="135.07" y="-210.0" type="line"/>
      <point x="173.97" y="-210.0" type="line"/>
      <point x="173.97" y="190.0" type="line"/>
    </contour>
  </outline>
</glyph>
<glyph name="section" format="2">
  <advance width="713.86"/>
  <unicode hex="00A7"/>
  <outline>
    <contour>
      <point x="336.37" y="-220.0" type="curve" smooth="yes"/>
      <point x="532.74" y="-220.0"/>
      <point x="657.97" y="-118.47"/>
      <point x="657.97" y="40.300000000000004" type="curve" smooth="yes"/>
      <point x="657.97" y="132.65"/>
      <point x="617.8699999999999" y="220.13"/>
      <point x="502.11999999999995" y="381.64" type="curve" smooth="yes"/>
      <point x="413.99" y="504.89"/>
      <point x="386.71000000000004" y="556.1899999999999"/>
      <point x="386.71000000000004" y="607.2199999999999" type="curve" smooth="yes"/>
      <point x="386.71000000000004" y="666.98"/>
      <point x="432.55" y="705.0"/>
      <point x="507.68000000000006" y="705.0" type="curve" smooth="yes"/>
      <point x="539.88" y="705.0"/>
      <point x="577.54" y="698.4499999999999"/>
      <point x="632.94" y="681.53" type="curve"/>
      <point x="641.1899999999999" y="717.0799999999999" type="line"/>
      <point x="571.2" y="739.63"/>
      <point x="500.65" y="750.0"/>
      <point x="429.0" y="750.0" type="curve" smooth="yes"/>
      <point x="224.1" y="750.0"/>
      <point x="93.56" y="640.37"/>
      <point x="92.65" y="470.76" type="curve" smooth="yes"/>
      <point x="92.64999999999999" y="355.73999999999995"/>
      <point x="134.20000000000002" y="262.9"/>
      <point x="244.14000000000001" y="125.05" type="curve" smooth="yes"/>
      <point x="309.88" y="42.22"/>
      <point x="346.62" y="1.390000000000005"/>
      <point x="347.53" y="-70.93" type="curve" smooth="yes"/>
      <point x="348.44" y="-123.05000000000001"/>
      <point x="298.05" y="-167.44"/>
      <point x="235.76" y="-167.44" type="curve" smooth="yes"/>
      <point x="183.01" y="-167.44"/>
      <point x="143.63000000000002" y="-150.52"/>
      <point x="68.5" y="-96.92999999999999" type="curve"/>
      <point x="55.44" y="-129.4" type="line"/>
      <point x="154.99" y="-198.08"/>
      <point x="223.79999999999998" y="-220.0"/>
    </contour>
    <contour>
      <point x="339.52" y="-191.19" type="curve" smooth="yes"/>
      <point x="293.78" y="-191.19"/>
      <point x="259.6" y="-188.10000000000002"/>
      <point x="228.95999999999998" y="-179.47" type="curve"/>
      <point x="244.39999999999998" y="-190.36" type="line"/>
      <point x="322.18" y="-195.98999999999998"/>
      <point x="386.87" y="-139.63"/>
      <point x="386.87" y="-71.11" type="curve" smooth="yes"/>
      <point x="386.87" y="-6.2799999999999985"/>
      <point x="368.34" y="29.419999999999998"/>
      <point x="277.05" y="143.52" type="curve" smooth="yes"/>
      <point x="170.1" y="278.38"/>
      <point x="132.18" y="366.03999999999996"/>
      <point x="132.18" y="473.01" type="curve" smooth="yes"/>
      <point x="132.18" y="622.4399999999999"/>
      <point x="247.95999999999998" y="719.6600000000001"/>
      <point x="424.22999999999996" y="719.6600000000001" type="curve" smooth="yes"/>
      <point x="443.39" y="719.6600000000001"/>
      <point x="462.02" y="718.21"/>
      <point x="483.09999999999997" y="714.77" type="curve"/>
      <point x="479.22999999999996" y="724.38" type="line"/>
      <point x="398.14" y="726.92"/>
      <point x="348.63" y="675.93"/>
      <point x="347.72" y="605.5799999999999" type="curve" smooth="yes"/>
      <point x="347.72" y="547.31"/>
      <point x="377.0" y="494.10999999999996"/>
      <point x="469.21000000000004" y="363.62" type="curve" smooth="yes"/>
      <point x="580.51" y="205.86"/>
      <point x="619.61" y="121.73"/>
      <point x="619.61" y="36.699999999999996" type="curve" smooth="yes"/>
      <point x="620.5200000000001" y="-98.47"/>
      <point x="515.0000000000001" y="-190.28"/>
    </contour>
  </outline>
</glyph>
<glyph name="copyright" format="2">
  <advance width="1090.78"/>
  <unicode hex="00A9"/>
  <outline>
    <contour>
      <point x="545.48" y="18.28" type="curve" smooth="yes"/>
      <point x="305.87999999999994" y="18.28"/>
      <point x="101.27999999999999" y="97.42"/>
      <point x="101.27999999999999" y="349.82" type="curve" smooth="yes"/>
      <point x="101.27999999999999" y="602.4000000000001"/>
      <point x="306.06" y="681.0"/>
      <point x="545.48" y="681.0" type="curve" smooth="yes"/>
      <point x="784.7199999999999" y="681.0"/>
      <point x="989.4999999999999" y="602.4000000000001"/>
      <point x="989.4999999999999" y="349.82" type="curve" smooth="yes"/>
      <point x="989.4999999999999" y="97.42"/>
      <point x="784.8999999999999" y="18.28"/>
    </contour>
    <contour>
      <point x="545.48" y="710.0" type="curve" smooth="yes"/>
      <point x="290.65999999999997" y="710.0"/>
      <point x="71.02" y="622.36"/>
      <point x="71.02" y="349.82" type="curve" smooth="yes"/>
      <point x="71.02" y="77.28"/>
      <point x="290.47999999999996" y="-10.0"/>
      <point x="545.48" y="-10.0" type="curve" smooth="yes"/>
      <point x="800.3" y="-10.0"/>
      <point x="1019.7599999999999" y="77.28"/>
      <point x="1019.7599999999999" y="349.82" type="curve" smooth="yes"/>
      <point x="1019.7599999999999" y="622.36"/>
      <point x="800.3" y="710.0"/>
    </contour>
    <contour>
      <point x="327.14" y="334.90000000000003" type="curve" smooth="yes"/>
      <point x="327.14" y="222.11999999999998"/>
      <point x="412.56" y="176.3"/>
      <point x="537.9200000000001" y="176.3" type="curve" smooth="yes"/>
      <point x="639.86" y="176.3"/>
      <point x="714.48" y="192.84"/>
      <point x="754.4599999999999" y="203.99999999999997" type="curve"/>
      <point x="746.66" y="233.54" type="line"/>
      <point x="708.0200000000001" y="223.36"/>
      <point x="639.2" y="208.18"/>
      <point x="542.42" y="208.18" type="curve" smooth="yes"/>
      <point x="427.64000000000004" y="208.18"/>
      <point x="364.06" y="244.02"/>
      <point x="364.06" y="335.62" type="curve" smooth="yes"/>
      <point x="364.06" y="445.96"/>
      <point x="449.76" y="481.62"/>
      <point x="570.9999999999999" y="481.62" type="curve" smooth="yes"/>
      <point x="630.1999999999999" y="481.62"/>
      <point x="672.5399999999998" y="475.72"/>
      <point x="722.9200000000001" y="462.08000000000004" type="curve"/>
      <point x="731.08" y="492.34" type="line"/>
      <point x="678.9" y="507.78"/>
      <point x="631.66" y="513.68"/>
      <point x="568.4799999999999" y="513.68" type="curve" smooth="yes"/>
      <point x="434.22" y="513.68"/>
      <point x="327.14" y="466.88"/>
    </contour>
  </outline>
</glyph>
<glyph name="ordfeminine" format="2">
  <advance width="534.8100000000001"/>
  <unicode hex="00AA"/>
  <outline>
    <contour>
      <point x="76.10000000000001" y="262.94" type="line"/>
      <point x="478.78" y="262.94" type="line"/>
      <point x="478.78" y="291.36" type="line"/>
      <point x="76.10000000000001" y="291.36" type="line"/>
    </contour>
    <component base="a.superior" xOffset="14.370000000000001"/>
  </outline>
</glyph>
<glyph name="logicalnot" format="2">
  <advance width="579.98"/>
  <unicode hex="00AC"/>
  <outline>
    <contour>
      <point x="62.73" y="374.72999999999996" type="line"/>
      <point x="480.59999999999997" y="374.72999999999996" type="line"/>
      <point x="480.59999999999997" y="174.75" type="line"/>
      <point x="517.25" y="174.75" type="line"/>
      <point x="517.25" y="411.38" type="line"/>
      <point x="62.73" y="411.38" type="line"/>
    </contour>
  </outline>
</glyph>
<glyph name="registered" format="2">
  <advance width="1044.3999999999999"/>
  <unicode hex="00AE"/>
  <outline>
    <contour>
      <point x="520.76" y="208.64" type="curve" smooth="yes"/>
      <point x="764.38" y="208.64"/>
      <point x="973.3799999999999" y="290.84"/>
      <point x="973.3799999999999" y="550.82" type="curve" smooth="yes"/>
      <point x="973.3799999999999" y="809.9"/>
      <point x="764.56" y="893.1800000000001"/>
      <point x="520.76" y="893.1800000000001" type="curve" smooth="yes"/>
      <point x="278.94" y="893.1800000000001"/>
      <point x="71.02" y="809.9"/>
      <point x="71.02" y="550.82" type="curve" smooth="yes"/>
      <point x="71.02" y="291.92"/>
      <point x="278.58" y="208.64"/>
    </contour>
    <contour>
      <point x="520.76" y="235.56" type="curve" smooth="yes"/>
      <point x="292.97999999999996" y="235.56"/>
      <point x="99.74000000000001" y="310.88"/>
      <point x="99.74000000000001" y="550.82" type="curve" smooth="yes"/>
      <point x="99.74000000000001" y="790.94"/>
      <point x="292.98" y="865.54"/>
      <point x="520.76" y="865.54" type="curve" smooth="yes"/>
      <point x="750.1600000000001" y="865.54"/>
      <point x="944.66" y="790.94"/>
      <point x="944.66" y="550.82" type="curve" smooth="yes"/>
      <point x="944.66" y="310.7"/>
      <point x="749.9800000000001" y="235.56"/>
    </contour>
    <contour>
      <point x="770.88" y="396.82" type="curve" smooth="yes"/>
      <point x="773.6999999999999" y="396.82"/>
      <point x="775.7" y="396.82"/>
      <point x="778.52" y="396.82" type="curve"/>
      <point x="778.52" y="426.61999999999995" type="line"/>
      <point x="776.7" y="426.62"/>
      <point x="774.7" y="426.62"/>
      <point x="772.88" y="426.62" type="curve" smooth="yes"/>
      <point x="729.76" y="426.62"/>
      <point x="651.9799999999999" y="472.76"/>
      <point x="581.84" y="534.92" type="curve"/>
      <point x="662.4200000000001" y="539.74"/>
      <point x="707.42" y="560.38"/>
      <point x="707.42" y="624.56" type="curve" smooth="yes"/>
      <point x="707.42" y="692.5600000000001"/>
      <point x="653.24" y="711.1800000000001"/>
      <point x="497.54" y="711.1800000000001" type="curve" smooth="yes"/>
      <point x="442.5" y="711.1800000000001"/>
      <point x="406.1" y="711.0"/>
      <point x="342.8" y="708.0" type="curve"/>
      <point x="342.8" y="398.18" type="line"/>
      <point x="376.20000000000005" y="398.18" type="line"/>
      <point x="376.20000000000005" y="531.6" type="line"/>
      <point x="427.9" y="530.78"/>
      <point x="464.58" y="529.78"/>
      <point x="509.17999999999995" y="529.78" type="curve" smooth="yes"/>
      <point x="517.8199999999999" y="529.78"/>
      <point x="526.4599999999999" y="529.78"/>
      <point x="535.1" y="529.78" type="curve"/>
      <point x="612.54" y="464.48"/>
      <point x="714.1999999999999" y="396.82"/>
    </contour>
    <contour>
      <point x="513.5" y="555.62" type="curve" smooth="yes"/>
      <point x="468.0" y="555.62"/>
      <point x="430.6" y="556.62"/>
      <point x="376.20000000000005" y="557.44" type="curve"/>
      <point x="376.20000000000005" y="680.26" type="line"/>
      <point x="431.76" y="683.08"/>
      <point x="443.03999999999996" y="683.9"/>
      <point x="498.80000000000007" y="683.9" type="curve" smooth="yes"/>
      <point x="635.0799999999999" y="683.9"/>
      <point x="673.48" y="673.26"/>
      <point x="673.48" y="622.5799999999999" type="curve" smooth="yes"/>
      <point x="673.48" y="556.3399999999999"/>
      <point x="604.4" y="555.62"/>
    </contour>
  </outline>
</glyph>
<glyph name="degree" format="2">
  <advance width="288.88"/>
  <unicode hex="00B0"/>
  <outline>
    <contour>
      <point x="143.62" y="501.28000000000003" type="curve" smooth="yes"/>
      <point x="208.72" y="501.28000000000003"/>
      <point x="258.16" y="552.5"/>
      <point x="258.16" y="612.92" type="curve" smooth="yes"/>
      <point x="258.16" y="672.8"/>
      <point x="209.44" y="726.38"/>
      <point x="143.62" y="726.38" type="curve" smooth="yes"/>
      <point x="77.62" y="726.38"/>
      <point x="30.720000000000002" y="672.8"/>
      <point x="30.720000000000002" y="612.92" type="curve" smooth="yes"/>
      <point x="30.720000000000002" y="552.5"/>
      <point x="78.52" y="501.28000000000003"/>
    </contour>
    <contour>
      <point x="143.62" y="533.88" type="curve" smooth="yes"/>
      <point x="99.78" y="533.88"/>
      <point x="64.94" y="568.9000000000001"/>
      <point x="64.94" y="612.92" type="curve" smooth="yes"/>
      <point x="64.94" y="656.5799999999999"/>
      <point x="99.60000000000001" y="693.6"/>
      <point x="143.62" y="693.6" type="curve" smooth="yes"/>
      <point x="187.46" y="693.6"/>
      <point x="224.12" y="656.5799999999999"/>
      <point x="224.12" y="612.92" type="curve" smooth="yes"/>
      <point x="224.12" y="568.9000000000001"/>
      <point x="187.46" y="533.88"/>
    </contour>
  </outline>
</glyph>
<glyph name="plusminus" format="2">
  <advance width="579.98"/>
  <unicode hex="00B1"/>
  <outline>
    <contour>
      <point x="62.730000000000004" y="65.42999999999999" type="line"/>
      <point x="517.25" y="65.42999999999999" type="line"/>
      <point x="517.25" y="102.08" type="line"/>
      <point x="310.07" y="102.08" type="line"/>
      <point x="310.07" y="298.99" type="line"/>
      <point x="517.25" y="298.99" type="line"/>
      <point x="517.25" y="335.64000000000004" type="line"/>
      <point x="310.07" y="335.64000000000004" type="line"/>
      <point x="310.07" y="535.53" type="line"/>
      <point x="269.82" y="535.53" type="line"/>
      <point x="269.82" y="335.64000000000004" type="line"/>
      <point x="62.730000000000004" y="335.64000000000004" type="line"/>
      <point x="62.730000000000004" y="298.99" type="line"/>
      <point x="269.82" y="298.99" type="line"/>
      <point x="269.82" y="102.08" type="line"/>
      <point x="62.730000000000004" y="102.08" type="line"/>
    </contour>
  </outline>
</glyph>
<glyph name="uni00B2" format="2">
  <advance width="652.8599999999999"/>
  <unicode hex="00B2"/>
  <outline>
    <contour>
      <point x="83.96000000000001" y="370.0" type="line"/>
      <point x="570.81" y="370.0" type="line"/>
      <point x="570.81" y="395.81" type="line"/>
      <point x="154.58" y="395.81" type="line"/>
      <point x="429.3" y="520.99"/>
      <point x="477.31999999999994" y="564.63"/>
      <point x="477.31999999999994" y="645.29" type="curve" smooth="yes"/>
      <point x="477.31999999999994" y="724.01"/>
      <point x="413.9" y="770.27"/>
      <point x="298.10999999999996" y="770.27" type="curve" smooth="yes"/>
      <point x="236.21999999999997" y="770.27"/>
      <point x="161.79999999999998" y="754.55"/>
      <point x="109.35000000000001" y="731.01" type="curve"/>
      <point x="119.22" y="705.8399999999999" type="line"/>
      <point x="170.29000000000002" y="727.4699999999999"/>
      <point x="234.05" y="740.11"/>
      <point x="291.34" y="740.11" type="curve" smooth="yes"/>
      <point x="387.4" y="740.11"/>
      <point x="437.34" y="703.18"/>
      <point x="437.34" y="640.23" type="curve" smooth="yes"/>
      <point x="437.34" y="564.1"/>
      <point x="370.34" y="520.1700000000001"/>
      <point x="81.22999999999999" y="392.64" type="curve"/>
    </contour>
  </outline>
</glyph>
<glyph name="uni00B3" format="2">
  <advance width="606.8000000000001"/>
  <unicode hex="00B3"/>
  <outline>
    <contour>
      <point x="23.909999999999997" y="411.02" type="line"/>
      <point x="98.72" y="375.19"/>
      <point x="178.07000000000002" y="360.27000000000004"/>
      <point x="283.53999999999996" y="360.27000000000004" type="curve" smooth="yes"/>
      <point x="455.53" y="360.27000000000004"/>
      <point x="559.96" y="405.92"/>
      <point x="559.96" y="485.36" type="curve" smooth="yes"/>
      <point x="559.96" y="540.4599999999999"/>
      <point x="504.02000000000004" y="573.74"/>
      <point x="405.17" y="577.36" type="curve"/>
      <point x="476.38" y="583.5400000000001"/>
      <point x="519.6600000000001" y="617.09"/>
      <point x="519.6600000000001" y="667.8199999999999" type="curve" smooth="yes"/>
      <point x="519.6600000000001" y="732.8199999999999"/>
      <point x="433.38" y="772.09"/>
      <point x="281.16" y="772.09" type="curve" smooth="yes"/>
      <point x="175.9" y="772.09"/>
      <point x="101.93" y="756.63"/>
      <point x="63.760000000000005" y="748.18" type="curve"/>
      <point x="69.1" y="720.64" type="line"/>
      <point x="112.78" y="728.83"/>
      <point x="170.61" y="744.28"/>
      <point x="274.76" y="744.28" type="curve" smooth="yes"/>
      <point x="403.73" y="744.28"/>
      <point x="482.46999999999997" y="713.53"/>
      <point x="482.46999999999997" y="661.8499999999999" type="curve" smooth="yes"/>
      <point x="482.46999999999997" y="612.81"/>
      <point x="425.25" y="586.33"/>
      <point x="321.0" y="586.33" type="curve" smooth="yes"/>
      <point x="170.02" y="586.33" type="line"/>
      <point x="170.02" y="562.87" type="line"/>
      <point x="316.76000000000005" y="562.87" type="line" smooth="yes"/>
      <point x="456.45" y="562.87"/>
      <point x="521.78" y="541.5799999999999"/>
      <point x="521.78" y="486.44" type="curve" smooth="yes"/>
      <point x="521.78" y="423.57"/>
      <point x="432.80999999999995" y="385.53999999999996"/>
      <point x="281.65000000000003" y="385.53999999999996" type="curve" smooth="yes"/>
      <point x="174.58" y="385.53999999999996"/>
      <point x="99.73" y="400.82"/>
      <point x="32.43000000000001" y="435.57" type="curve"/>
    </contour>
  </outline>
</glyph>
<glyph name="uni00B5" format="2">
  <advance width="874.1400000000001"/>
  <unicode hex="00B5"/>
  <outline>
    <contour>
      <point x="117.7" y="-210.0" type="line"/>
      <point x="162.89999999999998" y="-210.0" type="line"/>
      <point x="162.89999999999998" y="79.54" type="line"/>
      <point x="192.55" y="23.76"/>
      <point x="255.87" y="-10.0"/>
      <point x="353.85999999999996" y="-10.0" type="curve" smooth="yes"/>
      <point x="487.56000000000006" y="-10.0"/>
      <point x="577.42" y="34.019999999999996"/>
      <point x="696.21" y="95.49" type="curve"/>
      <point x="707.46" y="19.37"/>
      <point x="753.83" y="-10.0"/>
      <point x="799.6999999999999" y="-10.0" type="curve" smooth="yes"/>
      <point x="819.1999999999999" y="-10.0"/>
      <point x="839.96" y="-5.38"/>
      <point x="858.67" y="2.42" type="curve"/>
      <point x="851.0500000000001" y="31.38" type="line"/>
      <point x="840.23" y="26.47"/>
      <point x="827.77" y="23.65"/>
      <point x="816.04" y="23.65" type="curve" smooth="yes"/>
      <point x="774.5600000000001" y="23.65"/>
      <point x="736.08" y="50.94"/>
      <point x="736.08" y="146.56" type="curve" smooth="yes"/>
      <point x="736.08" y="531.8" type="line"/>
      <point x="690.8800000000001" y="531.8" type="line"/>
      <point x="690.8800000000001" y="126.91" type="line"/>
      <point x="570.26" y="68.14"/>
      <point x="485.28999999999996" y="26.83"/>
      <point x="356.83" y="26.83" type="curve" smooth="yes"/>
      <point x="227.65999999999997" y="26.83"/>
      <point x="162.89999999999998" y="91.96"/>
      <point x="162.89999999999998" y="187.35" type="curve" smooth="yes"/>
      <point x="162.89999999999998" y="531.8" type="line"/>
      <point x="117.7" y="531.8" type="line"/>
    </contour>
  </outline>
</glyph>
<glyph name="paragraph" format="2">
  <advance width="801.6299999999999"/>
  <unicode hex="00B6"/>
  <outline>
    <contour>
      <point x="635.8000000000001" y="-210.0" type="line"/>
      <point x="674.7" y="-210.0" type="line"/>
      <point x="674.7" y="740.0" type="line"/>
      <point x="635.8000000000001" y="740.0" type="line"/>
    </contour>
    <contour>
      <point x="344.07000000000005" y="217.79" type="line"/>
      <point x="181.39000000000001" y="229.61"/>
      <point x="106.50999999999999" y="312.57"/>
      <point x="106.50999999999999" y="465.94" type="curve" smooth="yes"/>
      <point x="106.50999999999999" y="629.84"/>
      <point x="203.85999999999999" y="700.62"/>
      <point x="434.5" y="703.3499999999999" type="curve"/>
      <point x="434.5" y="-210.0" type="line"/>
      <point x="473.4" y="-210.0" type="line"/>
      <point x="473.4" y="740.0" type="line"/>
      <point x="446.27" y="740.0" type="line" smooth="yes"/>
      <point x="177.64" y="740.0"/>
      <point x="65.89999999999999" y="654.54"/>
      <point x="65.89999999999999" y="469.0" type="curve" smooth="yes"/>
      <point x="65.89999999999999" y="294.54"/>
      <point x="152.63000000000002" y="200.81"/>
      <point x="340.09" y="186.9" type="curve"/>
    </contour>
  </outline>
</glyph>
<glyph name="periodcentered" format="2">
  <advance width="236.3"/>
  <unicode hex="00B7"/>
  <outline>
    <contour>
      <point x="88.42" y="289.7" type="curve" smooth="yes"/>
      <point x="88.42" y="268.3"/>
      <point x="94.38" y="263.88"/>
      <point x="118.55999999999999" y="263.88" type="curve" smooth="yes"/>
      <point x="143.73999999999998" y="263.88"/>
      <point x="148.7" y="268.3"/>
      <point x="148.7" y="289.7" type="curve" smooth="yes"/>
      <point x="148.7" y="311.1"/>
      <point x="143.73999999999998" y="315.52"/>
      <point x="118.55999999999999" y="315.52" type="curve" smooth="yes"/>
      <point x="93.38" y="315.52"/>
      <point x="88.42" y="311.1"/>
    </contour>
  </outline>
</glyph>
<glyph name="uni00B9" format="2">
  <advance width="576.9799999999999"/>
  <unicode hex="00B9"/>
  <outline>
    <contour>
      <point x="39.78" y="370.0" type="line"/>
      <point x="544.97" y="370.0" type="line"/>
      <point x="544.97" y="396.26000000000005" type="line"/>
      <point x="334.61" y="396.26000000000005" type="line"/>
      <point x="334.61" y="767.64" type="line"/>
      <point x="313.98" y="767.64" type="line"/>
      <point x="31.82" y="652.25" type="line"/>
      <point x="42.5" y="625.0" type="line"/>
      <point x="295.72" y="728.89" type="line"/>
      <point x="295.72" y="396.26000000000005" type="line"/>
      <point x="39.78" y="396.26000000000005" type="line"/>
    </contour>
  </outline>
</glyph>
<glyph name="ordmasculine" format="2">
  <advance width="564.3"/>
  <unicode hex="00BA"/>
  <outline>
    <contour>
      <point x="86.23" y="263.84999999999997" type="line"/>
      <point x="496.19" y="263.84999999999997" type="line"/>
      <point x="496.19" y="292.27" type="line"/>
      <point x="86.23" y="292.27" type="line"/>
    </contour>
    <component base="o.superior" xOffset="8.000000000000002"/>
  </outline>
</glyph>
<glyph name="questiondown" format="2">
  <advance width="695.1"/>
  <unicode hex="00BF"/>
  <outline>
    <contour>
      <point x="382.93" y="270.89" type="line"/>
      <point x="342.14" y="270.89" type="line"/>
      <point x="341.96" y="206.87" type="line"/>
      <point x="138.68" y="164.86999999999998"/>
      <point x="39.550000000000004" y="105.14999999999999"/>
      <point x="39.550000000000004" y="-10.679999999999998" type="curve" smooth="yes"/>
      <point x="39.550000000000004" y="-172.57999999999998"/>
      <point x="196.44" y="-218.29"/>
      <point x="328.85" y="-218.29" type="curve" smooth="yes"/>
      <point x="440.76" y="-218.29"/>
      <point x="568.0899999999999" y="-193.12"/>
      <point x="661.9100000000001" y="-137.39000000000001" type="curve"/>
      <point x="646.78" y="-103.46000000000001" type="line"/>
      <point x="555.05" y="-156.02"/>
      <point x="438.11" y="-180.47"/>
      <point x="333.44" y="-180.47" type="curve" smooth="yes"/>
      <point x="220.39" y="-180.47"/>
      <point x="85.83" y="-143.44000000000003"/>
      <point x="85.83" y="-9.510000000000003" type="curve" smooth="yes"/>
      <point x="85.83" y="75.27999999999999"/>
      <point x="161.17000000000002" y="143.79"/>
      <point x="383.56" y="180.43" type="curve"/>
    </contour>
    <contour>
      <point x="386.44" y="506.96999999999997" type="curve" smooth="yes"/>
      <point x="386.44" y="528.28"/>
      <point x="380.57000000000005" y="532.7"/>
      <point x="356.3" y="532.7" type="curve" smooth="yes"/>
      <point x="331.12" y="532.7"/>
      <point x="326.16" y="528.28"/>
      <point x="326.16" y="506.96999999999997" type="curve" smooth="yes"/>
      <point x="326.16" y="485.57"/>
      <point x="331.12" y="481.15"/>
      <point x="356.3" y="481.15" type="curve" smooth="yes"/>
      <point x="381.47999999999996" y="481.15"/>
      <point x="386.44" y="485.57"/>
    </contour>
  </outline>
</glyph>
<glyph name="AE" format="2">
  <advance width="1562.2600000000002"/>
  <unicode hex="00C6"/>
  <anchor x="768.78" y="700.0" name="top"/>
  <outline>
    <contour>
      <point x="0.999999999999999" y="0.0" type="line"/>
      <point x="59.6" y="-2.7755575615628914e-17" type="line"/>
      <point x="371.38000000000005" y="300.28" type="line"/>
      <point x="739.64" y="300.28" type="line"/>
      <point x="739.64" y="0.0" type="line"/>
      <point x="1510.16" y="0.0" type="line"/>
      <point x="1510.16" y="39.8" type="line"/>
      <point x="786.64" y="39.8" type="line"/>
      <point x="786.64" y="316.47999999999996" type="line"/>
      <point x="1449.16" y="316.47999999999996" type="line"/>
      <point x="1449.16" y="355.38" type="line"/>
      <point x="786.64" y="355.38" type="line"/>
      <point x="786.64" y="660.2" type="line"/>
      <point x="1481.16" y="660.2" type="line"/>
      <point x="1481.16" y="700.0" type="line"/>
      <point x="724.3" y="700.0" type="line"/>
    </contour>
    <contour>
      <point x="406.78" y="339.18" type="line"/>
      <point x="739.64" y="660.54" type="line"/>
      <point x="739.64" y="339.18" type="line"/>
    </contour>
  </outline>
</glyph>
<glyph name="multiply" format="2">
  <advance width="570.9799999999999"/>
  <unicode hex="00D7"/>
  <outline>
    <contour>
      <point x="93.74000000000001" y="76.39" type="line"/>
      <point x="286.40000000000003" y="266.08" type="line"/>
      <point x="476.33" y="79.12" type="line"/>
      <point x="500.68" y="106.25999999999999" type="line"/>
      <point x="313.81000000000006" y="290.7" type="line"/>
      <point x="502.5" y="477.05" type="line"/>
      <point x="478.15000000000003" y="504.19" type="line"/>
      <point x="286.40000000000003" y="315.32" type="line"/>
      <point x="92.83" y="506.01" type="line"/>
      <point x="68.48" y="478.87" type="line"/>
      <point x="258.9" y="290.7" type="line"/>
      <point x="69.39" y="103.53" type="line"/>
    </contour>
  </outline>
</glyph>
<glyph name="Oslash" format="2">
  <advance width="1246.92"/>
  <unicode hex="00D8"/>
  <anchor x="622.05" y="700.0" name="top"/>
  <outline>
    <contour>
      <point x="144.2" y="-10.9" type="line"/>
      <point x="273.76" y="77.04" type="line"/>
      <point x="274.03" y="76.23" type="line"/>
      <point x="1009.12" y="600.37" type="line"/>
      <point x="1009.39" y="599.65" type="line"/>
      <point x="1160.86" y="710.9" type="line"/>
      <point x="1102.45" y="710.9" type="line"/>
      <point x="978.08" y="623.09" type="line"/>
      <point x="977.8100000000001" y="623.9000000000001" type="line"/>
      <point x="241.09" y="101.74" type="line"/>
      <point x="241.0" y="102.10000000000001" type="line"/>
      <point x="86.06" y="-10.9" type="line"/>
    </contour>
    <contour>
      <point x="622.14" y="25.21" type="curve" smooth="yes"/>
      <point x="403.42999999999995" y="25.21"/>
      <point x="133.60000000000002" y="90.58000000000001"/>
      <point x="133.60000000000002" y="350.18" type="curve" smooth="yes"/>
      <point x="133.60000000000002" y="620.43"/>
      <point x="403.34" y="674.7900000000001"/>
      <point x="622.14" y="674.7900000000001" type="curve" smooth="yes"/>
      <point x="841.49" y="674.7900000000001"/>
      <point x="1112.32" y="621.25"/>
      <point x="1112.32" y="350.18" type="curve" smooth="yes"/>
      <point x="1112.32" y="78.02"/>
      <point x="841.49" y="25.21"/>
    </contour>
    <contour>
      <point x="622.23" y="-10.0" type="curve" smooth="yes"/>
      <point x="878.48" y="-10.0"/>
      <point x="1159.8700000000001" y="54.03"/>
      <point x="1159.8700000000001" y="355.0" type="curve" smooth="yes"/>
      <point x="1159.8700000000001" y="645.34"/>
      <point x="869.7199999999999" y="710.0"/>
      <point x="622.14" y="710.0" type="curve" smooth="yes"/>
      <point x="370.74" y="710.0"/>
      <point x="87.05" y="641.6999999999999"/>
      <point x="87.05" y="350.45" type="curve" smooth="yes"/>
      <point x="87.05" y="69.49999999999999"/>
      <point x="372.90000000000003" y="-10.0"/>
    </contour>
  </outline>
</glyph>
<glyph name="Thorn" format="2">
  <advance width="1056.82"/>
  <unicode hex="00DE"/>
  <outline>
    <contour>
      <point x="135.97000000000003" y="0.0" type="line"/>
      <point x="182.97" y="0.0" type="line"/>
      <point x="182.97" y="162.43" type="line"/>
      <point x="344.88" y="158.42999999999998"/>
      <point x="416.28999999999996" y="157.51999999999998"/>
      <point x="546.0699999999999" y="157.51999999999998" type="curve" smooth="yes"/>
      <point x="865.77" y="157.51999999999998"/>
      <point x="982.06" y="210.76999999999998"/>
      <point x="982.06" y="398.84999999999997" type="curve" smooth="yes"/>
      <point x="982.06" y="562.26"/>
      <point x="896.71" y="629.9"/>
      <point x="515.3100000000001" y="629.9" type="curve" smooth="yes"/>
      <point x="455.74" y="629.9"/>
      <point x="374.82" y="627.99"/>
      <point x="182.97" y="620.62" type="curve"/>
      <point x="182.97" y="700.0" type="line"/>
      <point x="135.97000000000003" y="700.0" type="line"/>
    </contour>
    <contour>
      <point x="533.38" y="194.44" type="curve" smooth="yes"/>
      <point x="397.73" y="194.44"/>
      <point x="328.40999999999997" y="197.26000000000002"/>
      <point x="182.97" y="200.35000000000002" type="curve"/>
      <point x="182.97" y="583.7900000000001" type="line"/>
      <point x="380.51" y="591.4300000000001"/>
      <point x="450.75000000000006" y="593.25"/>
      <point x="517.74" y="593.25" type="curve" smooth="yes"/>
      <point x="852.9300000000001" y="593.25"/>
      <point x="934.43" y="537.4000000000001"/>
      <point x="934.43" y="398.76" type="curve" smooth="yes"/>
      <point x="934.43" y="248.11"/>
      <point x="849.54" y="194.44"/>
    </contour>
  </outline>
</glyph>
<glyph name="germandbls" format="2">
  <advance width="941.64"/>
  <unicode hex="00DF"/>
  <outline>
    <contour>
      <point x="178.06" y="0.0" type="line"/>
      <point x="223.26" y="0.0" type="line"/>
      <point x="223.26" y="481.66" type="line" smooth="yes"/>
      <point x="223.26" y="635.0"/>
      <point x="324.28000000000003" y="715.42"/>
      <point x="530.0" y="715.42" type="curve" smooth="yes"/>
      <point x="701.32" y="715.42"/>
      <point x="751.62" y="695.96"/>
      <point x="751.62" y="626.72" type="curve" smooth="yes"/>
      <point x="751.62" y="575.04"/>
      <point x="705.04" y="553.84"/>
      <point x="577.88" y="534.2800000000001" type="curve" smooth="yes"/>
      <point x="433.08" y="512.64"/>
      <point x="378.43999999999994" y="476.5"/>
      <point x="378.43999999999994" y="397.14" type="curve" smooth="yes"/>
      <point x="378.43999999999994" y="308.9"/>
      <point x="448.92" y="269.36"/>
      <point x="661.14" y="247.18" type="curve" smooth="yes"/>
      <point x="842.3" y="227.98"/>
      <point x="893.14" y="201.04"/>
      <point x="893.14" y="132.98" type="curve" smooth="yes"/>
      <point x="893.14" y="64.1"/>
      <point x="791.2600000000001" y="22.860000000000003"/>
      <point x="658.78" y="22.860000000000003" type="curve" smooth="yes"/>
      <point x="563.22" y="22.860000000000003"/>
      <point x="429.86" y="43.5"/>
      <point x="330.02" y="74.42" type="curve"/>
      <point x="322.04" y="39.839999999999996" type="line"/>
      <point x="424.4" y="8.74"/>
      <point x="556.98" y="-11.0"/>
      <point x="656.4399999999999" y="-11.0" type="curve" smooth="yes"/>
      <point x="812.9" y="-11.0"/>
      <point x="936.36" y="39.58"/>
      <point x="936.36" y="135.14" type="curve" smooth="yes"/>
      <point x="936.36" y="224.02"/>
      <point x="871.1" y="264.09999999999997"/>
      <point x="670.96" y="284.46" type="curve" smooth="yes"/>
      <point x="485.82" y="303.02000000000004"/>
      <point x="419.86" y="331.16"/>
      <point x="419.86" y="398.76" type="curve" smooth="yes"/>
      <point x="419.86" y="458.54"/>
      <point x="471.34" y="483.58"/>
      <point x="586.4" y="501.49999999999994" type="curve" smooth="yes"/>
      <point x="733.5999999999999" y="524.14"/>
      <point x="793.76" y="552.5"/>
      <point x="793.76" y="626.46" type="curve" smooth="yes"/>
      <point x="793.76" y="716.0400000000001"/>
      <point x="715.74" y="750.0"/>
      <point x="530.9200000000001" y="750.0" type="curve" smooth="yes"/>
      <point x="295.2" y="750.0"/>
      <point x="180.52" y="663.16"/>
      <point x="178.06" y="493.72" type="curve" smooth="yes"/>
      <point x="178.06" y="484.0" type="line"/>
      <point x="42.3" y="477.73999999999995" type="line"/>
      <point x="42.3" y="449.78" type="line"/>
      <point x="178.06" y="449.78" type="line"/>
    </contour>
  </outline>
</glyph>
<glyph name="ae" format="2">
  <advance width="1372.88"/>
  <unicode hex="00E6"/>
  <anchor x="706.8599999999999" y="531.8" name="top"/>
  <outline>
    <contour>
      <point x="256.36" y="-10.0" type="curve" smooth="yes"/>
      <point x="400.22" y="-10.0"/>
      <point x="526.98" y="42.14"/>
      <point x="654.0999999999999" y="143.4" type="curve"/>
      <point x="655.1" y="143.4" type="line"/>
      <point x="700.7" y="45.42"/>
      <point x="816.4399999999999" y="-10.0"/>
      <point x="978.7" y="-10.0" type="curve" smooth="yes"/>
      <point x="1138.36" y="-10.0"/>
      <point x="1229.44" y="9.919999999999998"/>
      <point x="1303.94" y="26.64" type="curve"/>
      <point x="1297.42" y="61.220000000000006" type="line"/>
      <point x="1226.82" y="45.86"/>
      <point x="1129.8400000000001" y="24.939999999999998"/>
      <point x="980.32" y="24.939999999999998" type="curve" smooth="yes"/>
      <point x="796.34" y="24.939999999999998"/>
      <point x="681.3399999999999" y="108.02"/>
      <point x="677.8" y="240.04" type="curve" smooth="yes"/>
      <point x="677.62" y="251.96"/>
      <point x="677.62" y="254.77999999999997"/>
      <point x="679.4399999999999" y="273.98" type="curve"/>
      <point x="1014.46" y="274.52"/>
      <point x="1241.1799999999998" y="292.62"/>
      <point x="1309.68" y="295.8" type="curve"/>
      <point x="1310.68" y="300.06"/>
      <point x="1310.86" y="305.67999999999995"/>
      <point x="1310.86" y="316.94" type="curve" smooth="yes"/>
      <point x="1310.86" y="459.44"/>
      <point x="1192.86" y="541.8"/>
      <point x="989.0" y="541.8" type="curve" smooth="yes"/>
      <point x="823.32" y="541.8"/>
      <point x="707.16" y="476.94"/>
      <point x="668.18" y="369.03999999999996" type="curve"/>
      <point x="667.1800000000001" y="369.03999999999996" type="line"/>
      <point x="662.72" y="480.02"/>
      <point x="569.6800000000001" y="541.8"/>
      <point x="396.56" y="541.8" type="curve" smooth="yes"/>
      <point x="318.58" y="541.8"/>
      <point x="225.78" y="528.98"/>
      <point x="128.06" y="504.97999999999996" type="curve"/>
      <point x="134.57999999999998" y="470.40000000000003" type="line"/>
      <point x="229.23999999999998" y="493.68"/>
      <point x="321.3" y="506.85999999999996"/>
      <point x="396.58" y="506.85999999999996" type="curve" smooth="yes"/>
      <point x="551.46" y="506.85999999999996"/>
      <point x="635.24" y="452.53999999999996"/>
      <point x="635.24" y="352.28" type="curve" smooth="yes"/>
      <point x="635.24" y="303.96" type="line"/>
      <point x="182.68" y="292.04"/>
      <point x="75.32" y="257.32"/>
      <point x="75.32" y="124.96" type="curve" smooth="yes"/>
      <point x="75.32" y="37.44"/>
      <point x="139.12" y="-10.0"/>
    </contour>
    <contour>
      <point x="267.52000000000004" y="22.78" type="curve" smooth="yes"/>
      <point x="172.99999999999997" y="22.78"/>
      <point x="121.42" y="59.82"/>
      <point x="121.42" y="129.78" type="curve" smooth="yes"/>
      <point x="121.42" y="233.94"/>
      <point x="224.32" y="262.78000000000003"/>
      <point x="633.42" y="274.06" type="curve"/>
      <point x="632.6" y="267.24"/>
      <point x="632.6" y="262.06000000000006"/>
      <point x="632.6" y="244.32" type="curve" smooth="yes"/>
      <point x="632.6" y="217.3"/>
      <point x="635.24" y="194.73999999999998"/>
      <point x="641.6999999999999" y="176.0" type="curve"/>
      <point x="542.62" y="82.38000000000001"/>
      <point x="395.15999999999997" y="22.78"/>
    </contour>
    <contour>
      <point x="682.26" y="304.96" type="curve"/>
      <point x="706.36" y="436.88"/>
      <point x="819.08" y="508.12"/>
      <point x="987.1999999999999" y="508.12" type="curve" smooth="yes"/>
      <point x="1156.6" y="508.12"/>
      <point x="1262.5" y="437.05999999999995"/>
      <point x="1263.9399999999998" y="323.52" type="curve"/>
      <point x="1212.88" y="320.52000000000004"/>
      <point x="1000.0799999999999" y="304.96000000000004"/>
    </contour>
  </outline>
</glyph>
<glyph name="eth" format="2">
  <advance width="902.3"/>
  <unicode hex="00F0"/>
  <outline>
    <contour>
      <point x="796.64" y="397.34" type="curve"/>
      <point x="796.82" y="428.76" type="line"/>
      <point x="707.26" y="494.8"/>
      <point x="593.0200000000001" y="519.62"/>
      <point x="459.18" y="519.62" type="curve" smooth="yes"/>
      <point x="190.96" y="519.62"/>
      <point x="69.67999999999999" y="424.82"/>
      <point x="69.67999999999999" y="259.66" type="curve" smooth="yes"/>
      <point x="69.67999999999999" y="79.53999999999999"/>
      <point x="196.04" y="-10.0"/>
      <point x="431.65999999999997" y="-10.0" type="curve" smooth="yes"/>
      <point x="709.2800000000001" y="-10.0"/>
      <point x="836.44" y="102.36"/>
      <point x="836.44" y="353.42" type="curve" smooth="yes"/>
      <point x="836.44" y="589.54"/>
      <point x="672.02" y="715.22"/>
      <point x="385.5" y="715.22" type="curve" smooth="yes"/>
      <point x="288.22" y="715.22"/>
      <point x="208.51999999999998" y="706.4000000000001"/>
      <point x="99.44" y="682.9399999999999" type="curve"/>
      <point x="103.7" y="652.0600000000001" type="line"/>
      <point x="204.68" y="673.1600000000001"/>
      <point x="283.79999999999995" y="683.8000000000001"/>
      <point x="377.91999999999996" y="683.8000000000001" type="curve" smooth="yes"/>
      <point x="646.4" y="683.8000000000001"/>
      <point x="792.5" y="570.9"/>
      <point x="792.5" y="350.44" type="curve" smooth="yes"/>
      <point x="792.5" y="124.0"/>
      <point x="680.6" y="24.4"/>
      <point x="435.26" y="24.4" type="curve" smooth="yes"/>
      <point x="227.86" y="24.4"/>
      <point x="115.42" y="102.72"/>
      <point x="115.42" y="261.92" type="curve" smooth="yes"/>
      <point x="115.42" y="408.62"/>
      <point x="232.14000000000001" y="487.48"/>
      <point x="460.94" y="487.48" type="curve" smooth="yes"/>
      <point x="596.6400000000001" y="487.48"/>
      <point x="698.22" y="462.12"/>
    </contour>
    <contour>
      <point x="235.18" y="548.74" type="line"/>
      <point x="607.54" y="658.74" type="line"/>
      <point x="606.74" y="661.74" type="line"/>
      <point x="817.72" y="726.1199999999999" type="line"/>
      <point x="733.38" y="726.1199999999999" type="line"/>
      <point x="565.48" y="675.0600000000001" type="line"/>
      <point x="572.64" y="674.24" type="line"/>
      <point x="150.84" y="548.74" type="line"/>
    </contour>
  </outline>
</glyph>
<glyph name="divide" format="2">
  <advance width="579.98"/>
  <unicode hex="00F7"/>
  <outline>
    <contour>
      <point x="263.36" y="92.5" type="curve" smooth="yes"/>
      <point x="263.36" y="72.72"/>
      <point x="268.41999999999996" y="69.19999999999999"/>
      <point x="290.08000000000004" y="69.19999999999999" type="curve" smooth="yes"/>
      <point x="312.74" y="69.19999999999999"/>
      <point x="316.8" y="72.72"/>
      <point x="316.8" y="92.5" type="curve" smooth="yes"/>
      <point x="316.8" y="112.28"/>
      <point x="312.73999999999995" y="115.98"/>
      <point x="290.08000000000004" y="115.98" type="curve" smooth="yes"/>
      <point x="267.41999999999996" y="115.98"/>
      <point x="263.36" y="112.28"/>
    </contour>
    <contour>
      <point x="263.36" y="490.9" type="curve" smooth="yes"/>
      <point x="263.36" y="471.3"/>
      <point x="268.42" y="467.59999999999997"/>
      <point x="290.08000000000004" y="467.59999999999997" type="curve" smooth="yes"/>
      <point x="312.74" y="467.59999999999997"/>
      <point x="316.8" y="471.3"/>
      <point x="316.8" y="490.9" type="curve" smooth="yes"/>
      <point x="316.8" y="510.85999999999996"/>
      <point x="312.74" y="514.38"/>
      <point x="290.08000000000004" y="514.38" type="curve" smooth="yes"/>
      <point x="267.41999999999996" y="514.38"/>
      <point x="263.36" y="510.85999999999996"/>
    </contour>
    <contour>
      <point x="62.82" y="273.42" type="line"/>
      <point x="517.34" y="273.42" type="line"/>
      <point x="517.34" y="309.97999999999996" type="line"/>
      <point x="62.82" y="309.97999999999996" type="line"/>
    </contour>
  </outline>
</glyph>
<glyph name="oslash" format="2">
  <advance width="912.2"/>
  <unicode hex="00F8"/>
  <anchor x="456.09999999999997" y="531.8" name="top"/>
  <outline>
    <contour>
      <point x="456.09999999999997" y="-10.0" type="curve" smooth="yes"/>
      <point x="187.94" y="-10.0"/>
      <point x="70.04" y="84.36"/>
      <point x="70.04" y="267.9" type="curve" smooth="yes"/>
      <point x="70.04" y="438.44"/>
      <point x="170.76" y="541.8"/>
      <point x="456.09999999999997" y="541.8" type="curve" smooth="yes"/>
      <point x="741.26" y="541.8"/>
      <point x="842.16" y="438.44"/>
      <point x="842.16" y="267.9" type="curve" smooth="yes"/>
      <point x="842.16" y="84.36"/>
      <point x="724.26" y="-10.0"/>
    </contour>
    <contour>
      <point x="456.1" y="22.96" type="curve" smooth="yes"/>
      <point x="697.6199999999999" y="22.96"/>
      <point x="797.32" y="111.82"/>
      <point x="797.32" y="267.9" type="curve" smooth="yes"/>
      <point x="797.32" y="414.34"/>
      <point x="713.7199999999999" y="508.84000000000003"/>
      <point x="456.1" y="508.84000000000003" type="curve" smooth="yes"/>
      <point x="198.48" y="508.84000000000003"/>
      <point x="114.88" y="414.34"/>
      <point x="114.88" y="267.9" type="curve" smooth="yes"/>
      <point x="114.88" y="111.82"/>
      <point x="214.39999999999998" y="22.96"/>
    </contour>
    <contour>
      <point x="70.04" y="-10.0" type="line"/>
      <point x="181.42000000000002" y="75.92" type="line"/>
      <point x="181.42000000000002" y="75.92" type="line"/>
      <point x="708.24" y="478.44" type="line"/>
      <point x="708.24" y="478.44" type="line"/>
      <point x="791.1600000000001" y="541.8" type="line"/>
      <point x="842.16" y="541.8" type="line"/>
      <point x="734.6800000000001" y="458.96" type="line"/>
      <point x="734.6800000000001" y="458.96000000000004" type="line"/>
      <point x="204.86" y="54.44" type="line"/>
      <point x="204.85999999999999" y="54.44" type="line"/>
      <point x="120.68" y="-10.0" type="line"/>
    </contour>
  </outline>
</glyph>
<glyph name="thorn" format="2">
  <advance width="867.1199999999999"/>
  <unicode hex="00FE"/>
  <outline>
    <contour>
      <point x="117.7" y="-210.0" type="line"/>
      <point x="162.98999999999998" y="-210.0" type="line"/>
      <point x="162.98999999999998" y="13.930000000000001" type="line"/>
      <point x="242.76" y="-1.7199999999999998"/>
      <point x="328.98999999999995" y="-10.0"/>
      <point x="402.48" y="-10.0" type="curve" smooth="yes"/>
      <point x="674.45" y="-10.0"/>
      <point x="797.17" y="76.09"/>
      <point x="797.17" y="266.26" type="curve" smooth="yes"/>
      <point x="797.17" y="443.26"/>
      <point x="664.32" y="541.8"/>
      <point x="423.07" y="541.8" type="curve" smooth="yes"/>
      <point x="340.62" y="541.8"/>
      <point x="254.44" y="531.63"/>
      <point x="162.98999999999998" y="511.93" type="curve"/>
      <point x="162.98999999999998" y="740.0" type="line"/>
      <point x="117.7" y="740.0" type="line"/>
    </contour>
    <contour>
      <point x="402.75" y="23.58" type="curve" smooth="yes"/>
      <point x="337.36" y="23.58"/>
      <point x="256.23" y="32.22"/>
      <point x="162.89999999999998" y="50.41" type="curve"/>
      <point x="162.89999999999998" y="477.52" type="line"/>
      <point x="247.93" y="495.52"/>
      <point x="336.06" y="505.43"/>
      <point x="405.09" y="505.43" type="curve" smooth="yes"/>
      <point x="633.89" y="505.43"/>
      <point x="751.61" y="423.74"/>
      <point x="751.61" y="265.0" type="curve" smooth="yes"/>
      <point x="751.61" y="97.53"/>
      <point x="643.91" y="23.58"/>
    </contour>
  </outline>
</glyph>
<glyph name="Dcroat" format="2">
  <advance width="1151.6399999999999"/>
  <unicode hex="0110"/>
  <outline>
    <contour>
      <point x="-5.120000000000001" y="342.08" type="line"/>
      <point x="404.14" y="342.08" type="line"/>
      <point x="404.14" y="376.84000000000003" type="line"/>
      <point x="-5.120000000000001" y="376.84000000000003" type="line"/>
    </contour>
    <component base="D" xOffset="0.72"/>
  </outline>
</glyph>
<glyph name="dcroat" format="2">
  <advance width="868.2"/>
  <unicode hex="0111"/>
  <outline>
    <contour>
      <point x="431.71999999999997" y="615.1200000000001" type="line"/>
      <point x="883.12" y="615.1200000000001" type="line"/>
      <point x="883.12" y="643.0200000000001" type="line"/>
      <point x="431.71999999999997" y="643.0200000000001" type="line"/>
    </contour>
    <component base="d"/>
  </outline>
</glyph>
<glyph name="Hbar" format="2">
  <advance width="1185.22"/>
  <unicode hex="0126"/>
  <outline>
    <contour>
      <point x="40.56" y="498.74" type="line"/>
      <point x="136.06" y="498.74" type="line"/>
      <point x="136.06" y="0.0" type="line"/>
      <point x="183.06" y="0.0" type="line"/>
      <point x="183.06" y="282.97999999999996" type="line"/>
      <point x="1003.0600000000001" y="282.97999999999996" type="line"/>
      <point x="1003.0600000000001" y="0.0" type="line"/>
      <point x="1049.1599999999999" y="0.0" type="line"/>
      <point x="1049.1599999999999" y="498.74" type="line"/>
      <point x="1144.66" y="498.74" type="line"/>
      <point x="1144.66" y="531.88" type="line"/>
      <point x="1049.1599999999999" y="531.88" type="line"/>
      <point x="1049.1599999999999" y="700.0" type="line"/>
      <point x="1003.0600000000001" y="700.0" type="line"/>
      <point x="1003.0600000000001" y="531.88" type="line"/>
      <point x="183.06" y="531.88" type="line"/>
      <point x="183.06" y="700.0" type="line"/>
      <point x="136.06" y="700.0" type="line"/>
      <point x="136.06" y="531.88" type="line"/>
      <point x="40.56" y="531.88" type="line"/>
    </contour>
    <contour>
      <point x="183.06" y="322.78" type="line"/>
      <point x="183.06" y="498.74" type="line"/>
      <point x="1003.0600000000001" y="498.74" type="line"/>
      <point x="1003.0600000000001" y="322.78" type="line"/>
    </contour>
  </outline>
</glyph>
<glyph name="hbar" format="2">
  <advance width="892.9100000000001"/>
  <unicode hex="0127"/>
  <outline>
    <contour>
      <point x="-15.100000000000001" y="615.0300000000001" type="line"/>
      <point x="490.99" y="615.0300000000001" type="line"/>
      <point x="490.99" y="640.7700000000001" type="line"/>
      <point x="-15.100000000000001" y="640.7700000000001" type="line"/>
    </contour>
    <component base="h"/>
  </outline>
</glyph>
<glyph name="Idotaccent" format="2">
  <advance width="318.94"/>
  <unicode hex="0130"/>
  <outline>
    <contour>
      <point x="159.47" y="826.47" type="curve" smooth="yes"/>
      <point x="185.73" y="826.47"/>
      <point x="191.14" y="830.8000000000001"/>
      <point x="191.14" y="851.84" type="curve" smooth="yes"/>
      <point x="191.14" y="872.88"/>
      <point x="185.73" y="877.2099999999999"/>
      <point x="159.47" y="877.2099999999999" type="curve" smooth="yes"/>
      <point x="133.21" y="877.2099999999999"/>
      <point x="127.8" y="872.88"/>
      <point x="127.8" y="851.84" type="curve" smooth="yes"/>
      <point x="127.8" y="830.8000000000001"/>
      <point x="134.12" y="826.47"/>
    </contour>
    <component base="I"/>
  </outline>
</glyph>
<glyph name="dotlessi" format="2">
  <advance width="280.6"/>
  <unicode hex="0131"/>
  <anchor x="159.29000000000002" y="0.8999999999999999" name="ogonek"/>
  <anchor x="140.29999999999998" y="0.0" name="bottom"/>
  <anchor x="140.3" y="531.8" name="top"/>
  <outline>
    <contour>
      <point x="117.7" y="0.0" type="line"/>
      <point x="162.9" y="0.0" type="line"/>
      <point x="162.9" y="531.8" type="line"/>
      <point x="117.7" y="531.8" type="line"/>
    </contour>
  </outline>
</glyph>
<glyph name="kgreenlandic" format="2">
  <advance width="808.02"/>
  <unicode hex="0138"/>
  <anchor x="403.7" y="531.8" name="top"/>
  <anchor x="403.7" y="0.0" name="bottom"/>
  <outline>
    <contour>
      <point x="772.26" y="-10.0" type="curve" smooth="yes"/>
      <point x="778.6" y="-10.0"/>
      <point x="786.1400000000001" y="-10.0"/>
      <point x="791.6800000000001" y="-9.0" type="curve"/>
      <point x="788.0400000000001" y="32.42" type="line"/>
      <point x="782.5" y="31.419999999999995"/>
      <point x="776.9599999999999" y="31.419999999999998"/>
      <point x="774.0600000000001" y="31.419999999999998" type="curve" smooth="yes"/>
      <point x="725.7" y="31.419999999999998"/>
      <point x="651.3199999999999" y="70.89999999999999"/>
      <point x="472.36" y="188.5" type="curve" smooth="yes"/>
      <point x="162.0" y="393.14" type="line"/>
      <point x="162.0" y="531.8" type="line"/>
      <point x="117.7" y="531.8" type="line"/>
      <point x="117.7" y="0.0" type="line"/>
      <point x="162.0" y="0.0" type="line"/>
      <point x="162.0" y="347.0" type="line"/>
      <point x="469.76" y="142.8" type="line" smooth="yes"/>
      <point x="685.3000000000001" y="0.17999999999999972"/>
      <point x="725.82" y="-10.0"/>
    </contour>
    <contour>
      <point x="326.97999999999996" y="264.00000000000006" type="line"/>
      <point x="457.38" y="319.09999999999997"/>
      <point x="651.3199999999999" y="399.7"/>
      <point x="734.9000000000001" y="529.98" type="curve"/>
      <point x="690.1" y="541.8000000000001" type="line"/>
      <point x="611.14" y="422.38"/>
      <point x="432.66" y="344.28"/>
      <point x="280.70000000000005" y="278.8" type="curve"/>
    </contour>
  </outline>
</glyph>
<glyph name="Ldot" format="2">
  <advance width="877.73"/>
  <unicode hex="013F"/>
  <outline>
    <contour>
      <point x="560.5600000000001" y="376.92" type="curve" smooth="yes"/>
      <point x="560.5600000000001" y="355.61"/>
      <point x="566.4300000000001" y="351.19"/>
      <point x="590.7" y="351.19" type="curve" smooth="yes"/>
      <point x="615.88" y="351.19"/>
      <point x="620.84" y="355.61"/>
      <point x="620.84" y="376.92" type="curve" smooth="yes"/>
      <point x="620.84" y="398.32000000000005"/>
      <point x="615.88" y="402.74"/>
      <point x="590.7" y="402.74" type="curve" smooth="yes"/>
      <point x="565.52" y="402.74"/>
      <point x="560.5600000000001" y="398.32000000000005"/>
    </contour>
    <component base="L"/>
  </outline>
</glyph>
<glyph name="ldot" format="2">
  <advance width="377.27"/>
  <unicode hex="0140"/>
  <outline>
    <contour>
      <point x="338.83" y="339.72" type="curve" smooth="yes"/>
      <point x="358.70000000000005" y="339.72"/>
      <point x="361.59" y="343.06"/>
      <point x="361.59" y="362.39" type="curve" smooth="yes"/>
      <point x="361.59" y="381.72"/>
      <point x="358.70000000000005" y="385.06"/>
      <point x="338.83" y="385.06" type="curve" smooth="yes"/>
      <point x="318.96000000000004" y="385.06"/>
      <point x="316.07" y="381.72"/>
      <point x="316.07" y="362.39" type="curve" smooth="yes"/>
      <point x="316.07" y="343.06"/>
      <point x="319.87" y="339.72"/>
    </contour>
    <component base="l"/>
  </outline>
</glyph>
<glyph name="Lslash" format="2">
  <advance width="877.73"/>
  <unicode hex="0141"/>
  <outline>
    <contour>
      <point x="23.48" y="173.57999999999998" type="line"/>
      <point x="135.97000000000003" y="237.42999999999998" type="line"/>
      <point x="135.97000000000003" y="0.0" type="line"/>
      <point x="848.1899999999999" y="0.0" type="line"/>
      <point x="848.1899999999999" y="39.800000000000004" type="line"/>
      <point x="182.96999999999997" y="39.800000000000004" type="line"/>
      <point x="182.96999999999997" y="259.68" type="line"/>
      <point x="545.0500000000001" y="465.21999999999997" type="line"/>
      <point x="545.0500000000001" y="507.58" type="line"/>
      <point x="182.96999999999997" y="302.03999999999996" type="line"/>
      <point x="182.96999999999997" y="700.0" type="line"/>
      <point x="135.97000000000003" y="700.0" type="line"/>
      <point x="135.97000000000003" y="279.78999999999996" type="line"/>
      <point x="23.48" y="215.94" type="line"/>
    </contour>
  </outline>
</glyph>
<glyph name="lslash" format="2">
  <advance width="377.27"/>
  <unicode hex="0142"/>
  <outline>
    <contour>
      <point x="272.25" y="-10.0" type="curve" smooth="yes"/>
      <point x="316.20000000000005" y="-10.0"/>
      <point x="358.51" y="-1.46"/>
      <point x="392.01" y="6.8" type="curve"/>
      <point x="385.31" y="43.18" type="line"/>
      <point x="354.41999999999996" y="36.0"/>
      <point x="317.51000000000005" y="28.27"/>
      <point x="283.14" y="28.27" type="curve" smooth="yes"/>
      <point x="221.84" y="28.27"/>
      <point x="163.8" y="54.65"/>
      <point x="163.8" y="169.55" type="curve" smooth="yes"/>
      <point x="163.8" y="273.32" type="line"/>
      <point x="320.82" y="423.41" type="line"/>
      <point x="320.82" y="466.62" type="line"/>
      <point x="163.8" y="316.53000000000003" type="line"/>
      <point x="163.8" y="740.0" type="line"/>
      <point x="118.6" y="740.0" type="line"/>
      <point x="118.6" y="286.53999999999996" type="line"/>
      <point x="34.040000000000006" y="206.48999999999998" type="line"/>
      <point x="34.040000000000006" y="163.28" type="line"/>
      <point x="118.78" y="243.42000000000002" type="line"/>
      <point x="118.96000000000001" y="161.89999999999998" type="line" smooth="yes"/>
      <point x="120.49000000000001" y="23.439999999999998"/>
      <point x="192.22000000000003" y="-10.0"/>
    </contour>
  </outline>
</glyph>
<glyph name="Eng" format="2">
  <advance width="1177.8400000000001"/>
  <unicode hex="014A"/>
  <outline>
    <contour>
      <point x="135.97000000000003" y="0.0" type="line"/>
      <point x="180.27" y="0.0" type="line"/>
      <point x="180.27" y="650.6999999999999" type="line"/>
      <point x="997.57" y="-5.57" type="line"/>
      <point x="997.57" y="-11.200000000000001" type="line" smooth="yes"/>
      <point x="992.11" y="-138.21999999999997"/>
      <point x="878.57" y="-184.16000000000003"/>
      <point x="733.39" y="-184.16000000000003" type="curve" smooth="yes"/>
      <point x="659.8" y="-184.16000000000003"/>
      <point x="580.58" y="-171.97"/>
      <point x="518.48" y="-159.24" type="curve"/>
      <point x="510.24" y="-194.99" type="line"/>
      <point x="573.51" y="-207.81"/>
      <point x="656.53" y="-220.0"/>
      <point x="735.55" y="-220.0" type="curve" smooth="yes"/>
      <point x="906.7" y="-220.0"/>
      <point x="1041.87" y="-163.28"/>
      <point x="1041.87" y="-10.0" type="curve" smooth="yes"/>
      <point x="1041.87" y="700.0" type="line"/>
      <point x="997.57" y="700.0" type="line"/>
      <point x="997.57" y="46.50999999999999" type="line"/>
      <point x="176.83" y="709.1" type="line"/>
      <point x="135.97000000000003" y="709.1" type="line"/>
    </contour>
  </outline>
</glyph>
<glyph name="eng" format="2">
  <advance width="892.91"/>
  <unicode hex="014B"/>
  <outline>
    <contour>
      <point x="775.21" y="8.95" type="curve"/>
      <point x="775.21" y="334.71" type="line" smooth="yes"/>
      <point x="775.21" y="462.82000000000005"/>
      <point x="696.3" y="541.8"/>
      <point x="532.86" y="541.8" type="curve" smooth="yes"/>
      <point x="388.17" y="541.8"/>
      <point x="290.41" y="497.78"/>
      <point x="160.10999999999999" y="436.86" type="curve"/>
      <point x="160.10999999999999" y="531.8" type="line"/>
      <point x="117.7" y="531.8" type="line"/>
      <point x="117.7" y="0.0" type="line"/>
      <point x="162.89999999999998" y="0.0" type="line"/>
      <point x="162.89999999999998" y="403.44" type="line"/>
      <point x="293.98999999999995" y="463.76"/>
      <point x="383.59" y="504.61"/>
      <point x="521.7900000000001" y="504.61" type="curve" smooth="yes"/>
      <point x="665.3399999999999" y="504.61"/>
      <point x="730.0100000000001" y="434.93"/>
      <point x="730.0100000000001" y="324.99" type="curve" smooth="yes"/>
      <point x="730.0100000000001" y="5.67" type="line" smooth="yes"/>
      <point x="730.0100000000001" y="-75.52999999999999"/>
      <point x="702.73" y="-129.39000000000001"/>
      <point x="651.81" y="-158.51000000000002" type="curve" smooth="yes"/>
      <point x="641.54" y="-163.97"/>
      <point x="630.91" y="-168.34"/>
      <point x="619.37" y="-171.79999999999998" type="curve"/>
      <point x="626.76" y="-206.45000000000002" type="line"/>
      <point x="641.01" y="-203.35"/>
      <point x="655.0799999999999" y="-198.16"/>
      <point x="667.15" y="-192.70000000000002" type="curve" smooth="yes"/>
      <point x="736.39" y="-160.85"/>
      <point x="775.21" y="-92.16"/>
    </contour>
  </outline>
</glyph>
<glyph name="OE" format="2">
  <advance width="1793.18"/>
  <unicode hex="0152"/>
  <outline>
    <contour>
      <point x="1741.0800000000002" y="0.0" type="line"/>
      <point x="1741.0800000000002" y="39.8" type="line"/>
      <point x="1014.8599999999999" y="39.8" type="line"/>
      <point x="1014.8599999999999" y="360.76" type="line"/>
      <point x="1680.08" y="360.76" type="line"/>
      <point x="1680.08" y="399.65999999999997" type="line"/>
      <point x="1014.8599999999999" y="399.65999999999997" type="line"/>
      <point x="1014.8599999999999" y="660.2" type="line"/>
      <point x="1712.08" y="660.2" type="line"/>
      <point x="1712.08" y="700.0" type="line"/>
      <point x="1014.86" y="700.0" type="line"/>
      <point x="866.86" y="704.0"/>
      <point x="719.1199999999999" y="710.0"/>
      <point x="613.9599999999999" y="710.0" type="curve" smooth="yes"/>
      <point x="334.52000000000004" y="710.0"/>
      <point x="86.96" y="621.52"/>
      <point x="86.96" y="356.0" type="curve" smooth="yes"/>
      <point x="86.96" y="33.82000000000001"/>
      <point x="379.20000000000005" y="-10.0"/>
      <point x="644.9599999999999" y="-10.0" type="curve" smooth="yes"/>
      <point x="769.7" y="-10.0"/>
      <point x="879.5" y="-4.18"/>
      <point x="1014.86" y="0.0" type="curve"/>
    </contour>
    <contour>
      <point x="967.86" y="35.48" type="line"/>
      <point x="900.92" y="33.48"/>
      <point x="765.48" y="26.02"/>
      <point x="649.4599999999999" y="26.02" type="curve" smooth="yes"/>
      <point x="408.24" y="26.02"/>
      <point x="135.32" y="64.82000000000001"/>
      <point x="135.32" y="354.82" type="curve" smooth="yes"/>
      <point x="135.32" y="620.26"/>
      <point x="411.70000000000005" y="673.98"/>
      <point x="621.26" y="673.98" type="curve" smooth="yes"/>
      <point x="673.8599999999999" y="673.98"/>
      <point x="932.08" y="664.52"/>
      <point x="967.86" y="664.3399999999999" type="curve"/>
    </contour>
  </outline>
</glyph>
<glyph name="oe" format="2">
  <advance width="1583.2800000000002"/>
  <unicode hex="0153"/>
  <outline>
    <contour>
      <point x="69.94999999999999" y="267.90000000000003" type="curve" smooth="yes"/>
      <point x="69.94999999999999" y="84.36"/>
      <point x="187.85" y="-10.0"/>
      <point x="456.1" y="-10.0" type="curve" smooth="yes"/>
      <point x="665.38" y="-10.0"/>
      <point x="780.59" y="49.95"/>
      <point x="818.2900000000001" y="166.76" type="curve"/>
      <point x="857.62" y="49.86"/>
      <point x="984.38" y="-10.0"/>
      <point x="1143.4199999999998" y="-10.0" type="curve" smooth="yes"/>
      <point x="1303.17" y="-10.0"/>
      <point x="1439.6599999999999" y="14.469999999999999"/>
      <point x="1514.16" y="31.100000000000005" type="curve"/>
      <point x="1507.73" y="65.67999999999999" type="line"/>
      <point x="1435.6" y="50.14"/>
      <point x="1293.48" y="24.669999999999998"/>
      <point x="1144.95" y="24.669999999999998" type="curve" smooth="yes"/>
      <point x="970.73" y="24.669999999999998"/>
      <point x="841.52" y="100.91"/>
      <point x="841.52" y="244.68" type="curve" smooth="yes"/>
      <point x="841.52" y="256.69000000000005"/>
      <point x="842.43" y="267.52"/>
      <point x="843.3399999999999" y="278.53" type="curve"/>
      <point x="1177.91" y="278.97999999999996"/>
      <point x="1451.3999999999999" y="297.08"/>
      <point x="1519.99" y="300.26" type="curve"/>
      <point x="1521.08" y="307.43"/>
      <point x="1521.08" y="315.40999999999997"/>
      <point x="1521.08" y="321.49" type="curve" smooth="yes"/>
      <point x="1521.08" y="471.45"/>
      <point x="1412.0" y="541.8"/>
      <point x="1199.22" y="541.8" type="curve" smooth="yes"/>
      <point x="1028.96" y="541.8"/>
      <point x="873.71" y="483.49"/>
      <point x="824.46" y="350.76" type="curve"/>
      <point x="793.86" y="470.66"/>
      <point x="687.39" y="541.8"/>
      <point x="456.1" y="541.8" type="curve" smooth="yes"/>
      <point x="170.76" y="541.8"/>
      <point x="69.94999999999999" y="438.44"/>
    </contour>
    <contour>
      <point x="115.60000000000001" y="267.81" type="curve" smooth="yes"/>
      <point x="115.60000000000001" y="413.79999999999995"/>
      <point x="199.11" y="508.39000000000004"/>
      <point x="456.01" y="508.39000000000004" type="curve" smooth="yes"/>
      <point x="713.0" y="508.39000000000004"/>
      <point x="796.42" y="413.79999999999995"/>
      <point x="796.42" y="267.81" type="curve" smooth="yes"/>
      <point x="796.42" y="112.27"/>
      <point x="696.99" y="23.41"/>
      <point x="456.01" y="23.41" type="curve" smooth="yes"/>
      <point x="215.03000000000003" y="23.41"/>
      <point x="115.60000000000001" y="112.27"/>
    </contour>
    <contour>
      <point x="847.0699999999999" y="309.42" type="curve"/>
      <point x="877.63" y="460.63"/>
      <point x="1057.78" y="508.03000000000003"/>
      <point x="1197.51" y="508.03000000000003" type="curve" smooth="yes"/>
      <point x="1387.3799999999999" y="508.03000000000003"/>
      <point x="1472.9" y="444.89"/>
      <point x="1474.25" y="328.07" type="curve"/>
      <point x="1425.35" y="325.15999999999997"/>
      <point x="1165.97" y="309.51"/>
    </contour>
  </outline>
</glyph>
<glyph name="uni0162" format="2">
  <advance width="856.5200000000001"/>
  <unicode hex="0162"/>
  <outline>
    <contour>
      <point x="285.82" y="-153.37" type="curve"/>
      <point x="278.0" y="-183.43" type="line"/>
      <point x="341.10999999999996" y="-208.72"/>
      <point x="395.49" y="-220.0"/>
      <point x="439.5" y="-220.0" type="curve" smooth="yes"/>
      <point x="533.35" y="-220.0"/>
      <point x="579.43" y="-177.85"/>
      <point x="579.43" y="-112.04" type="curve" smooth="yes"/>
      <point x="579.43" y="-61.2"/>
      <point x="533.21" y="-24.009999999999998"/>
      <point x="448.14" y="5.45" type="curve"/>
      <point x="409.89000000000004" y="0.9" type="line"/>
      <point x="476.58000000000004" y="-27.390000000000004"/>
      <point x="538.9999999999999" y="-57.49999999999999"/>
      <point x="538.9999999999999" y="-107.71999999999998" type="curve" smooth="yes"/>
      <point x="538.9999999999999" y="-158.11"/>
      <point x="502.25" y="-187.22"/>
      <point x="431.58" y="-187.22" type="curve" smooth="yes"/>
      <point x="392.09000000000003" y="-187.22"/>
      <point x="342.6" y="-176.20999999999998"/>
    </contour>
    <component base="T"/>
  </outline>
</glyph>
<glyph name="Tbar" format="2">
  <advance width="858.32"/>
  <unicode hex="0166"/>
  <outline>
    <contour>
      <point x="126.87" y="352.71999999999997" type="line"/>
      <point x="405.66" y="352.71999999999997" type="line"/>
      <point x="405.66" y="0.0" type="line"/>
      <point x="452.66" y="0.0" type="line"/>
      <point x="452.66" y="352.71999999999997" type="line"/>
      <point x="731.4499999999999" y="352.71999999999997" type="line"/>
      <point x="731.4499999999999" y="389.82" type="line"/>
      <point x="452.66" y="389.82" type="line"/>
      <point x="452.66" y="662.0200000000001" type="line"/>
      <point x="849.71" y="662.0200000000001" type="line"/>
      <point x="849.71" y="700.0" type="line"/>
      <point x="8.61" y="700.0" type="line"/>
      <point x="8.61" y="662.0200000000001" type="line"/>
      <point x="405.66" y="662.0200000000001" type="line"/>
      <point x="405.66" y="389.82" type="line"/>
      <point x="126.87" y="389.82" type="line"/>
    </contour>
  </outline>
</glyph>
<glyph name="tbar" format="2">
  <advance width="636.44"/>
  <unicode hex="0167"/>
  <outline>
    <contour>
      <point x="229.54000000000002" y="306.97999999999996" type="line"/>
      <point x="525.6" y="306.97999999999996" type="line"/>
      <point x="525.6" y="336.32" type="line"/>
      <point x="229.54000000000002" y="336.32" type="line"/>
      <point x="229.54000000000002" y="497.58000000000004" type="line"/>
      <point x="583.4399999999999" y="497.58000000000004" type="line"/>
      <point x="583.4399999999999" y="531.8" type="line"/>
      <point x="229.54000000000002" y="531.8" type="line"/>
      <point x="229.54000000000002" y="665.0" type="line"/>
      <point x="190.68" y="665.0" type="line"/>
      <point x="184.34" y="531.8" type="line"/>
      <point x="11.280000000000001" y="525.54" type="line"/>
      <point x="11.280000000000001" y="497.58000000000004" type="line"/>
      <point x="184.34" y="497.58000000000004" type="line"/>
      <point x="184.34" y="336.32" type="line"/>
      <point x="84.08" y="336.32" type="line"/>
      <point x="84.08" y="306.97999999999996" type="line"/>
      <point x="184.34" y="306.97999999999996" type="line"/>
      <point x="184.34" y="180.04" type="line" smooth="yes"/>
      <point x="184.34" y="42.44"/>
      <point x="261.32" y="-10.0"/>
      <point x="382.91999999999996" y="-10.0" type="curve" smooth="yes"/>
      <point x="445.98" y="-10.0"/>
      <point x="526.0799999999999" y="3.0"/>
      <point x="612.44" y="30.279999999999998" type="curve"/>
      <point x="603.9200000000001" y="66.02" type="line"/>
      <point x="540.1800000000001" y="43.92"/>
      <point x="470.42" y="28.0"/>
      <point x="396.1" y="28.0" type="curve" smooth="yes"/>
      <point x="280.12" y="28.0"/>
      <point x="229.54000000000002" y="78.22"/>
      <point x="229.54000000000002" y="180.04" type="curve" smooth="yes"/>
    </contour>
  </outline>
</glyph>
<glyph name="uogonek" format="2">
  <advance width="874.14"/>
  <unicode hex="0173"/>
  <outline>
    <contour>
      <point x="810.9200000000001" y="-217.58" type="curve" smooth="yes"/>
      <point x="832.8" y="-217.58"/>
      <point x="849.0500000000001" y="-215.4"/>
      <point x="862.4" y="-211.04" type="curve"/>
      <point x="861.86" y="-182.15" type="line"/>
      <point x="850.4" y="-184.97000000000003"/>
      <point x="837.94" y="-186.88000000000002"/>
      <point x="821.66" y="-186.88000000000002" type="curve" smooth="yes"/>
      <point x="780.83" y="-186.88000000000002"/>
      <point x="740.4399999999999" y="-171.60000000000002"/>
      <point x="740.4399999999999" y="-117.93" type="curve" smooth="yes"/>
      <point x="740.4399999999999" y="-55.25"/>
      <point x="801.12" y="-12.22"/>
      <point x="858.67" y="2.42" type="curve"/>
      <point x="851.05" y="31.38" type="line"/>
      <point x="840.23" y="26.47"/>
      <point x="827.7700000000001" y="23.650000000000002"/>
      <point x="816.04" y="23.650000000000002" type="curve" smooth="yes"/>
      <point x="774.5600000000001" y="23.650000000000002"/>
      <point x="736.08" y="50.940000000000005"/>
      <point x="736.08" y="146.56" type="curve" smooth="yes"/>
      <point x="736.08" y="531.8" type="line"/>
      <point x="690.88" y="531.8" type="line"/>
      <point x="690.88" y="126.91000000000001" type="line"/>
      <point x="570.26" y="68.14"/>
      <point x="485.29" y="26.83"/>
      <point x="356.83000000000004" y="26.83" type="curve" smooth="yes"/>
      <point x="227.66" y="26.83"/>
      <point x="162.9" y="91.96000000000001"/>
      <point x="162.9" y="187.35000000000002" type="curve" smooth="yes"/>
      <point x="162.9" y="531.8" type="line"/>
      <point x="117.69999999999999" y="531.8" type="line"/>
      <point x="117.69999999999999" y="178.89" type="line" smooth="yes"/>
      <point x="117.69999999999999" y="67.36"/>
      <point x="194.04" y="-10.0"/>
      <point x="345.49" y="-10.0" type="curve" smooth="yes"/>
      <point x="481.8" y="-10.0"/>
      <point x="574.27" y="34.019999999999996"/>
      <point x="696.21" y="95.49000000000001" type="curve"/>
      <point x="707.4599999999999" y="19.369999999999997"/>
      <point x="753.83" y="-10.0"/>
      <point x="799.6999999999999" y="-10.0" type="curve" smooth="yes"/>
      <point x="809.5" y="-10.0"/>
      <point x="818.03" y="-7.09"/>
      <point x="827.7400000000001" y="-4.64" type="curve"/>
      <point x="837.54" y="12.08" type="line"/>
      <point x="763.88" y="-4.200000000000001"/>
      <point x="701.52" y="-59.4"/>
      <point x="701.52" y="-126.58999999999999" type="curve" smooth="yes"/>
      <point x="701.52" y="-195.78"/>
      <point x="759.1500000000001" y="-217.58"/>
    </contour>
  </outline>
</glyph>
<glyph name="longs" format="2">
  <advance width="402.85"/>
  <unicode hex="017F"/>
  <outline>
    <contour>
      <point x="224.17" y="498.46" type="line"/>
      <point x="224.17" y="654.57"/>
      <point x="301.0" y="714.0799999999999"/>
      <point x="436.74" y="714.0799999999999" type="curve" smooth="yes"/>
      <point x="509.94" y="714.0799999999999"/>
      <point x="577.49" y="699.53"/>
      <point x="657.1800000000001" y="678.88" type="curve"/>
      <point x="664.61" y="714.27" type="line"/>
      <point x="573.22" y="738.8199999999999"/>
      <point x="505.42" y="750.91"/>
      <point x="427.78999999999996" y="750.91" type="curve" smooth="yes"/>
      <point x="277.64" y="750.91"/>
      <point x="178.97" y="685.64"/>
      <point x="178.97" y="499.09000000000003" type="curve" smooth="yes"/>
      <point x="178.97" y="484.0" type="line"/>
      <point x="42.21" y="477.65" type="line"/>
      <point x="42.21" y="449.69" type="line"/>
      <point x="178.97" y="449.69" type="line"/>
      <point x="178.97" y="0.0" type="line"/>
      <point x="224.17" y="0.0" type="line"/>
    </contour>
  </outline>
</glyph>
